<?xml version="1.0" encoding="utf-8" standalone="no"?>
<!DOCTYPE svg PUBLIC "-//W3C//DTD SVG 1.1//EN"
  "http://www.w3.org/Graphics/SVG/1.1/DTD/svg11.dtd">
<svg xmlns:xlink="http://www.w3.org/1999/xlink" width="864pt" height="432pt" viewBox="0 0 864 432" xmlns="http://www.w3.org/2000/svg" version="1.1">
 <metadata>
  <rdf:RDF xmlns:dc="http://purl.org/dc/elements/1.1/" xmlns:cc="http://creativecommons.org/ns#" xmlns:rdf="http://www.w3.org/1999/02/22-rdf-syntax-ns#">
   <cc:Work>
    <dc:type rdf:resource="http://purl.org/dc/dcmitype/StillImage"/>
    <dc:date>2024-10-15T13:45:19.891530</dc:date>
    <dc:format>image/svg+xml</dc:format>
    <dc:creator>
     <cc:Agent>
      <dc:title>Matplotlib v3.8.4, https://matplotlib.org/</dc:title>
     </cc:Agent>
    </dc:creator>
   </cc:Work>
  </rdf:RDF>
 </metadata>
 <defs>
  <style type="text/css">*{stroke-linejoin: round; stroke-linecap: butt}</style>
 </defs>
 <g id="figure_1">
  <g id="patch_1">
   <path d="M 0 432 
L 864 432 
L 864 0 
L 0 0 
z
" style="fill: #ffffff"/>
  </g>
  <g id="axes_1">
   <g id="patch_2">
    <path d="M 86.4 205.451163 
L 302.4 205.451163 
L 302.4 64.8 
L 86.4 64.8 
z
" style="fill: #ffffff"/>
   </g>
   <g id="line2d_1">
    <path d="M 86.4 147.645875 
L 302.4 147.645875 
" clip-path="url(#pa3f1f94932)" style="fill: none; stroke-dasharray: 3.7,1.6; stroke-dashoffset: 0; stroke: #000000"/>
   </g>
   <g id="matplotlib.axis_1">
    <g id="xtick_1">
     <g id="line2d_2">
      <defs>
       <path id="m9606d9a723" d="M 0 0 
L 0 3.5 
" style="stroke: #000000; stroke-width: 0.8"/>
      </defs>
      <g>
       <use xlink:href="#m9606d9a723" x="96.542747" y="205.451163" style="stroke: #000000; stroke-width: 0.8"/>
      </g>
     </g>
    </g>
    <g id="xtick_2">
     <g id="line2d_3">
      <g>
       <use xlink:href="#m9606d9a723" x="141.070219" y="205.451163" style="stroke: #000000; stroke-width: 0.8"/>
      </g>
     </g>
    </g>
    <g id="xtick_3">
     <g id="line2d_4">
      <g>
       <use xlink:href="#m9606d9a723" x="185.597691" y="205.451163" style="stroke: #000000; stroke-width: 0.8"/>
      </g>
     </g>
    </g>
    <g id="xtick_4">
     <g id="line2d_5">
      <g>
       <use xlink:href="#m9606d9a723" x="230.125163" y="205.451163" style="stroke: #000000; stroke-width: 0.8"/>
      </g>
     </g>
    </g>
    <g id="xtick_5">
     <g id="line2d_6">
      <g>
       <use xlink:href="#m9606d9a723" x="274.652635" y="205.451163" style="stroke: #000000; stroke-width: 0.8"/>
      </g>
     </g>
    </g>
   </g>
   <g id="matplotlib.axis_2">
    <g id="ytick_1">
     <g id="line2d_7">
      <defs>
       <path id="m2c065c06fd" d="M 0 0 
L -3.5 0 
" style="stroke: #000000; stroke-width: 0.8"/>
      </defs>
      <g>
       <use xlink:href="#m2c065c06fd" x="86.4" y="196.537774" style="stroke: #000000; stroke-width: 0.8"/>
      </g>
     </g>
     <g id="text_1">
      <!-- −10 -->
      <g transform="translate(37.190625 204.136212) scale(0.2 -0.2)">
       <defs>
        <path id="DejaVuSans-2212" d="M 678 2272 
L 4684 2272 
L 4684 1741 
L 678 1741 
L 678 2272 
z
" transform="scale(0.015625)"/>
        <path id="DejaVuSans-31" d="M 794 531 
L 1825 531 
L 1825 4091 
L 703 3866 
L 703 4441 
L 1819 4666 
L 2450 4666 
L 2450 531 
L 3481 531 
L 3481 0 
L 794 0 
L 794 531 
z
" transform="scale(0.015625)"/>
        <path id="DejaVuSans-30" d="M 2034 4250 
Q 1547 4250 1301 3770 
Q 1056 3291 1056 2328 
Q 1056 1369 1301 889 
Q 1547 409 2034 409 
Q 2525 409 2770 889 
Q 3016 1369 3016 2328 
Q 3016 3291 2770 3770 
Q 2525 4250 2034 4250 
z
M 2034 4750 
Q 2819 4750 3233 4129 
Q 3647 3509 3647 2328 
Q 3647 1150 3233 529 
Q 2819 -91 2034 -91 
Q 1250 -91 836 529 
Q 422 1150 422 2328 
Q 422 3509 836 4129 
Q 1250 4750 2034 4750 
z
" transform="scale(0.015625)"/>
       </defs>
       <use xlink:href="#DejaVuSans-2212"/>
       <use xlink:href="#DejaVuSans-31" x="83.789062"/>
       <use xlink:href="#DejaVuSans-30" x="147.412109"/>
      </g>
     </g>
    </g>
    <g id="ytick_2">
     <g id="line2d_8">
      <g>
       <use xlink:href="#m2c065c06fd" x="86.4" y="147.645875" style="stroke: #000000; stroke-width: 0.8"/>
      </g>
     </g>
     <g id="text_2">
      <!-- 0 -->
      <g transform="translate(66.675 155.244313) scale(0.2 -0.2)">
       <use xlink:href="#DejaVuSans-30"/>
      </g>
     </g>
    </g>
    <g id="ytick_3">
     <g id="line2d_9">
      <g>
       <use xlink:href="#m2c065c06fd" x="86.4" y="98.753976" style="stroke: #000000; stroke-width: 0.8"/>
      </g>
     </g>
     <g id="text_3">
      <!-- 10 -->
      <g transform="translate(53.95 106.352414) scale(0.2 -0.2)">
       <use xlink:href="#DejaVuSans-31"/>
       <use xlink:href="#DejaVuSans-30" x="63.623047"/>
      </g>
     </g>
    </g>
   </g>
   <g id="line2d_10">
    <path d="M 97.006241 148.297902 
L 98.766471 147.785077 
L 104.17242 146.604334 
L 112.040745 145.096716 
L 115.539597 144.723834 
L 121.717055 144.350584 
L 129.66245 143.797113 
L 136.738891 143.064464 
L 148.270623 141.548196 
L 156.27378 140.620468 
L 160.715405 140.323454 
L 164.257607 140.297556 
L 167.824465 140.485872 
L 171.414187 140.881543 
L 175.006504 141.494413 
L 177.76154 142.24318 
L 180.574871 143.279133 
L 183.487766 144.67499 
L 193.381445 149.815501 
L 196.11819 150.875122 
L 199.571562 151.921029 
L 203.011265 152.698785 
L 211.779296 154.541334 
L 215.30759 155.562818 
L 217.954805 156.551695 
L 220.602782 157.76726 
L 223.249155 159.202657 
L 226.770383 161.392429 
L 231.17595 164.392405 
L 234.722426 167.075494 
L 237.42238 169.436613 
L 239.297798 171.380731 
L 241.32613 173.75443 
L 242.351479 175.100806 
L 244.320741 178.240248 
L 246.210454 182.098222 
L 249.030464 186.83832 
L 250.961854 188.804061 
L 252.87869 189.958693 
L 255.770448 190.958571 
L 259.676305 191.663575 
L 265.687581 191.972362 
L 266.691189 191.874007 
L 267.725045 191.893227 
L 270.817304 191.237022 
L 271.870089 190.756312 
L 272.930552 189.425523 
L 273.981611 186.14473 
L 275.050118 178.491861 
L 276.150654 173.371471 
L 277.487293 168.687258 
L 278.675585 167.193581 
L 281.338278 162.52513 
L 282.384758 161.864398 
L 283.568266 158.277092 
L 284.535633 157.135713 
L 285.669746 149.786785 
L 286.601632 149.213273 
L 288.525521 124.407037 
L 289.386217 127.756087 
L 289.940092 121.162979 
L 290.572687 120.39721 
L 291.926381 128.468446 
L 292.153162 121.048936 
L 292.581818 135.824054 
L 292.581818 135.824054 
" clip-path="url(#pa3f1f94932)" style="fill: none; stroke: #d62728; stroke-width: 1.5; stroke-linecap: square"/>
   </g>
   <g id="line2d_11">
    <path d="M 97.006241 148.385507 
L 97.850456 148.005357 
L 103.277382 146.442703 
L 109.467368 144.939061 
L 112.905871 144.293102 
L 117.306426 143.74788 
L 125.246355 143.074141 
L 133.199186 142.3211 
L 140.283015 141.425074 
L 149.15925 140.056399 
L 155.384093 139.164304 
L 158.940958 138.825051 
L 162.486604 138.71627 
L 166.034948 138.861344 
L 168.724092 139.169964 
L 172.307352 139.831101 
L 175.918184 140.742236 
L 179.628444 142.009638 
L 182.50554 143.203717 
L 189.499015 146.228995 
L 195.224066 148.329707 
L 201.283787 150.301739 
L 206.499981 152.012164 
L 210.016107 153.346382 
L 212.661379 154.52297 
L 215.30759 155.91221 
L 217.954805 157.562133 
L 220.602782 159.513092 
L 224.130723 162.505416 
L 238.346126 175.42373 
L 240.29688 177.700611 
L 242.351479 180.60661 
L 243.346118 182.25826 
L 244.320741 184.125011 
L 247.152151 190.132691 
L 249.030464 193.713524 
L 250.004964 194.971981 
L 250.961854 195.963493 
L 251.915767 196.724235 
L 253.838175 197.749231 
L 256.739296 198.56475 
L 260.656893 199.005286 
L 264.664311 199.029621 
L 265.687581 198.886826 
L 266.691189 198.890094 
L 267.725045 198.650651 
L 268.742064 198.588096 
L 269.784671 198.166976 
L 270.817304 197.928423 
L 271.870089 197.00036 
L 272.930552 195.730167 
L 273.981611 191.496865 
L 275.050118 183.304254 
L 276.150654 177.202502 
L 277.487293 172.7682 
L 279.989287 168.21672 
L 281.338278 165.033754 
L 282.384758 163.212225 
L 283.568266 158.670174 
L 284.535633 156.243504 
L 285.669746 147.666166 
L 286.601632 145.604255 
L 288.525521 117.724451 
L 289.386217 122.22359 
L 289.940092 113.440889 
L 290.572687 113.217688 
L 291.926381 121.603326 
L 292.153162 113.685158 
L 292.581818 130.887797 
L 292.581818 130.887797 
" clip-path="url(#pa3f1f94932)" style="fill: none; stroke: #2ca02c; stroke-width: 1.5; stroke-linecap: square"/>
   </g>
   <g id="patch_3">
    <path d="M 86.4 205.451163 
L 86.4 64.8 
" style="fill: none; stroke: #000000; stroke-width: 0.8; stroke-linejoin: miter; stroke-linecap: square"/>
   </g>
   <g id="patch_4">
    <path d="M 302.4 205.451163 
L 302.4 64.8 
" style="fill: none; stroke: #000000; stroke-width: 0.8; stroke-linejoin: miter; stroke-linecap: square"/>
   </g>
   <g id="patch_5">
    <path d="M 86.4 205.451163 
L 302.4 205.451163 
" style="fill: none; stroke: #000000; stroke-width: 0.8; stroke-linejoin: miter; stroke-linecap: square"/>
   </g>
   <g id="patch_6">
    <path d="M 86.4 64.8 
L 302.4 64.8 
" style="fill: none; stroke: #000000; stroke-width: 0.8; stroke-linejoin: miter; stroke-linecap: square"/>
   </g>
   <g id="text_4">
    <!-- -2$\sigma_{PC}$ -->
    <g transform="translate(162.275 58.8) scale(0.25 -0.25)">
     <defs>
      <path id="DejaVuSans-2d" d="M 313 2009 
L 1997 2009 
L 1997 1497 
L 313 1497 
L 313 2009 
z
" transform="scale(0.015625)"/>
      <path id="DejaVuSans-32" d="M 1228 531 
L 3431 531 
L 3431 0 
L 469 0 
L 469 531 
Q 828 903 1448 1529 
Q 2069 2156 2228 2338 
Q 2531 2678 2651 2914 
Q 2772 3150 2772 3378 
Q 2772 3750 2511 3984 
Q 2250 4219 1831 4219 
Q 1534 4219 1204 4116 
Q 875 4013 500 3803 
L 500 4441 
Q 881 4594 1212 4672 
Q 1544 4750 1819 4750 
Q 2544 4750 2975 4387 
Q 3406 4025 3406 3419 
Q 3406 3131 3298 2873 
Q 3191 2616 2906 2266 
Q 2828 2175 2409 1742 
Q 1991 1309 1228 531 
z
" transform="scale(0.015625)"/>
      <path id="DejaVuSans-Oblique-3c3" d="M 2219 3044 
Q 1744 3044 1422 2700 
Q 1081 2341 969 1747 
Q 844 1119 1044 756 
Q 1241 397 1706 397 
Q 2166 397 2503 759 
Q 2844 1122 2966 1747 
Q 3075 2319 2881 2700 
Q 2700 3044 2219 3044 
z
M 2309 3503 
L 4219 3500 
L 4106 2925 
L 3463 2925 
Q 3706 2438 3575 1747 
Q 3406 888 2884 400 
Q 2359 -91 1609 -91 
Q 856 -91 525 400 
Q 194 888 363 1747 
Q 528 2609 1050 3097 
Q 1484 3503 2309 3503 
z
" transform="scale(0.015625)"/>
      <path id="DejaVuSans-Oblique-50" d="M 1081 4666 
L 2541 4666 
Q 3178 4666 3512 4369 
Q 3847 4072 3847 3500 
Q 3847 2731 3353 2303 
Q 2859 1875 1966 1875 
L 1172 1875 
L 806 0 
L 172 0 
L 1081 4666 
z
M 1613 4147 
L 1275 2394 
L 2069 2394 
Q 2606 2394 2893 2669 
Q 3181 2944 3181 3456 
Q 3181 3784 2986 3965 
Q 2791 4147 2438 4147 
L 1613 4147 
z
" transform="scale(0.015625)"/>
      <path id="DejaVuSans-Oblique-43" d="M 4447 4306 
L 4319 3641 
Q 4019 3944 3683 4091 
Q 3347 4238 2956 4238 
Q 2422 4238 2017 3981 
Q 1613 3725 1319 3200 
Q 1131 2863 1032 2486 
Q 934 2109 934 1728 
Q 934 1091 1264 756 
Q 1594 422 2222 422 
Q 2656 422 3056 561 
Q 3456 700 3834 978 
L 3688 231 
Q 3316 72 2936 -9 
Q 2556 -91 2175 -91 
Q 1278 -91 773 396 
Q 269 884 269 1753 
Q 269 2309 461 2846 
Q 653 3384 1013 3828 
Q 1394 4300 1883 4525 
Q 2372 4750 3022 4750 
Q 3422 4750 3780 4639 
Q 4138 4528 4447 4306 
z
" transform="scale(0.015625)"/>
     </defs>
     <use xlink:href="#DejaVuSans-2d" transform="translate(0 0.78125)"/>
     <use xlink:href="#DejaVuSans-32" transform="translate(36.083984 0.78125)"/>
     <use xlink:href="#DejaVuSans-Oblique-3c3" transform="translate(99.707031 0.78125)"/>
     <use xlink:href="#DejaVuSans-Oblique-50" transform="translate(163.085938 -15.625) scale(0.7)"/>
     <use xlink:href="#DejaVuSans-Oblique-43" transform="translate(205.297852 -15.625) scale(0.7)"/>
    </g>
   </g>
  </g>
  <g id="axes_2">
   <g id="patch_7">
    <path d="M 324 205.451163 
L 540 205.451163 
L 540 64.8 
L 324 64.8 
z
" style="fill: #ffffff"/>
   </g>
   <g id="line2d_12">
    <path d="M 324 147.645875 
L 540 147.645875 
" clip-path="url(#pf2a3efdd1b)" style="fill: none; stroke-dasharray: 3.7,1.6; stroke-dashoffset: 0; stroke: #000000"/>
   </g>
   <g id="matplotlib.axis_3">
    <g id="xtick_6">
     <g id="line2d_13">
      <g>
       <use xlink:href="#m9606d9a723" x="334.142747" y="205.451163" style="stroke: #000000; stroke-width: 0.8"/>
      </g>
     </g>
    </g>
    <g id="xtick_7">
     <g id="line2d_14">
      <g>
       <use xlink:href="#m9606d9a723" x="378.670219" y="205.451163" style="stroke: #000000; stroke-width: 0.8"/>
      </g>
     </g>
    </g>
    <g id="xtick_8">
     <g id="line2d_15">
      <g>
       <use xlink:href="#m9606d9a723" x="423.197691" y="205.451163" style="stroke: #000000; stroke-width: 0.8"/>
      </g>
     </g>
    </g>
    <g id="xtick_9">
     <g id="line2d_16">
      <g>
       <use xlink:href="#m9606d9a723" x="467.725163" y="205.451163" style="stroke: #000000; stroke-width: 0.8"/>
      </g>
     </g>
    </g>
    <g id="xtick_10">
     <g id="line2d_17">
      <g>
       <use xlink:href="#m9606d9a723" x="512.252635" y="205.451163" style="stroke: #000000; stroke-width: 0.8"/>
      </g>
     </g>
    </g>
   </g>
   <g id="matplotlib.axis_4">
    <g id="ytick_4">
     <g id="line2d_18">
      <g>
       <use xlink:href="#m2c065c06fd" x="324" y="196.537774" style="stroke: #000000; stroke-width: 0.8"/>
      </g>
     </g>
    </g>
    <g id="ytick_5">
     <g id="line2d_19">
      <g>
       <use xlink:href="#m2c065c06fd" x="324" y="147.645875" style="stroke: #000000; stroke-width: 0.8"/>
      </g>
     </g>
    </g>
    <g id="ytick_6">
     <g id="line2d_20">
      <g>
       <use xlink:href="#m2c065c06fd" x="324" y="98.753976" style="stroke: #000000; stroke-width: 0.8"/>
      </g>
     </g>
    </g>
   </g>
   <g id="line2d_21">
    <path d="M 334.171435 146.171891 
L 334.991189 145.680572 
L 338.5615 144.445788 
L 342.12097 143.557415 
L 345.669789 142.938651 
L 349.17196 142.563823 
L 352.741812 142.459274 
L 358.115566 142.566675 
L 385.774588 143.664368 
L 394.690957 144.374917 
L 400.889051 145.069112 
L 407.107963 146.01808 
L 414.152546 147.382261 
L 432.695504 151.438492 
L 438.93098 152.529463 
L 444.290706 153.228555 
L 449.630809 153.675086 
L 454.944156 153.893731 
L 459.35009 153.86959 
L 464.593442 153.594936 
L 469.787412 153.055452 
L 473.223534 152.535396 
L 475.87253 151.961718 
L 478.542099 151.22865 
L 479.368564 150.938783 
L 480.19522 150.841779 
L 481.688374 150.218021 
L 482.407651 149.845048 
L 483.194233 149.727151 
L 483.933065 149.351073 
L 485.394884 148.765267 
L 489.681631 146.936296 
L 493.283562 145.36103 
L 497.832952 143.723259 
L 498.616341 143.601279 
L 499.420018 143.266842 
L 500.221113 143.196679 
L 501.039262 142.829551 
L 501.857533 142.825529 
L 502.69207 142.409788 
L 503.526212 142.491199 
L 504.377042 142.083385 
L 505.227682 142.266968 
L 506.965609 141.730997 
L 507.832378 142.011777 
L 508.70976 141.591139 
L 509.601275 141.904576 
L 510.476102 141.360398 
L 511.381436 141.93313 
L 512.245623 141.378615 
L 513.149449 141.192081 
L 514.027972 141.566085 
L 514.899484 141.241049 
L 515.723095 141.905753 
L 516.236667 141.459322 
L 516.750714 141.684122 
L 516.750714 141.684122 
" clip-path="url(#pf2a3efdd1b)" style="fill: none; stroke: #d62728; stroke-width: 1.5; stroke-linecap: square"/>
   </g>
   <g id="line2d_22">
    <path d="M 334.171435 146.462305 
L 334.991189 145.901863 
L 338.5615 144.442962 
L 342.12097 143.340199 
L 345.669789 142.470215 
L 349.17196 141.817752 
L 351.842946 141.517762 
L 355.435018 141.310219 
L 360.791752 141.283705 
L 373.278054 141.54983 
L 389.34408 142.089037 
L 396.468543 142.516842 
L 402.653817 143.137442 
L 407.998452 143.866553 
L 412.400629 144.653764 
L 417.629624 145.895195 
L 425.488543 147.869388 
L 433.590177 149.72775 
L 442.505456 151.812801 
L 447.853936 152.824916 
L 452.290798 153.441835 
L 457.591494 153.901044 
L 462.851166 154.078523 
L 468.063209 154.025825 
L 473.223534 153.755841 
L 477.681418 153.298161 
L 483.933065 152.156268 
L 486.111538 151.542129 
L 486.835911 151.397304 
L 488.257657 150.926024 
L 490.401425 150.27807 
L 492.554365 149.504994 
L 494.764052 148.831176 
L 495.50893 148.503419 
L 496.278459 148.369743 
L 497.044345 148.039886 
L 497.832952 147.929977 
L 498.616341 147.596518 
L 499.420018 147.518736 
L 500.221113 147.185639 
L 501.039262 147.140825 
L 501.857533 146.793897 
L 502.69207 146.782999 
L 503.526212 146.41759 
L 504.377042 146.40601 
L 505.227682 146.049461 
L 506.965609 145.963932 
L 507.832378 145.633162 
L 508.70976 145.751971 
L 509.601275 145.431535 
L 510.476102 145.606323 
L 511.381436 145.134967 
L 512.245623 145.165649 
L 513.149449 145.449749 
L 514.027972 144.827306 
L 516.236667 145.06201 
L 516.750714 145.371984 
L 516.750714 145.371984 
" clip-path="url(#pf2a3efdd1b)" style="fill: none; stroke: #2ca02c; stroke-width: 1.5; stroke-linecap: square"/>
   </g>
   <g id="patch_8">
    <path d="M 324 205.451163 
L 324 64.8 
" style="fill: none; stroke: #000000; stroke-width: 0.8; stroke-linejoin: miter; stroke-linecap: square"/>
   </g>
   <g id="patch_9">
    <path d="M 540 205.451163 
L 540 64.8 
" style="fill: none; stroke: #000000; stroke-width: 0.8; stroke-linejoin: miter; stroke-linecap: square"/>
   </g>
   <g id="patch_10">
    <path d="M 324 205.451163 
L 540 205.451163 
" style="fill: none; stroke: #000000; stroke-width: 0.8; stroke-linejoin: miter; stroke-linecap: square"/>
   </g>
   <g id="patch_11">
    <path d="M 324 64.8 
L 540 64.8 
" style="fill: none; stroke: #000000; stroke-width: 0.8; stroke-linejoin: miter; stroke-linecap: square"/>
   </g>
   <g id="text_5">
    <!-- $\mathbf{c}_0$ -->
    <g transform="translate(418.5 58.8) scale(0.25 -0.25)">
     <defs>
      <path id="DejaVuSans-Bold-63" d="M 3366 3391 
L 3366 2478 
Q 3138 2634 2908 2709 
Q 2678 2784 2431 2784 
Q 1963 2784 1702 2511 
Q 1441 2238 1441 1747 
Q 1441 1256 1702 982 
Q 1963 709 2431 709 
Q 2694 709 2930 787 
Q 3166 866 3366 1019 
L 3366 103 
Q 3103 6 2833 -42 
Q 2563 -91 2291 -91 
Q 1344 -91 809 395 
Q 275 881 275 1747 
Q 275 2613 809 3098 
Q 1344 3584 2291 3584 
Q 2566 3584 2833 3536 
Q 3100 3488 3366 3391 
z
" transform="scale(0.015625)"/>
     </defs>
     <use xlink:href="#DejaVuSans-Bold-63"/>
     <use xlink:href="#DejaVuSans-30" transform="translate(60.234375 -16.40625) scale(0.7)"/>
    </g>
   </g>
  </g>
  <g id="axes_3">
   <g id="patch_12">
    <path d="M 561.6 205.451163 
L 777.6 205.451163 
L 777.6 64.8 
L 561.6 64.8 
z
" style="fill: #ffffff"/>
   </g>
   <g id="line2d_23">
    <path d="M 561.6 147.645875 
L 777.6 147.645875 
" clip-path="url(#pa698558e90)" style="fill: none; stroke-dasharray: 3.7,1.6; stroke-dashoffset: 0; stroke: #000000"/>
   </g>
   <g id="matplotlib.axis_5">
    <g id="xtick_11">
     <g id="line2d_24">
      <g>
       <use xlink:href="#m9606d9a723" x="571.742747" y="205.451163" style="stroke: #000000; stroke-width: 0.8"/>
      </g>
     </g>
    </g>
    <g id="xtick_12">
     <g id="line2d_25">
      <g>
       <use xlink:href="#m9606d9a723" x="616.270219" y="205.451163" style="stroke: #000000; stroke-width: 0.8"/>
      </g>
     </g>
    </g>
    <g id="xtick_13">
     <g id="line2d_26">
      <g>
       <use xlink:href="#m9606d9a723" x="660.797691" y="205.451163" style="stroke: #000000; stroke-width: 0.8"/>
      </g>
     </g>
    </g>
    <g id="xtick_14">
     <g id="line2d_27">
      <g>
       <use xlink:href="#m9606d9a723" x="705.325163" y="205.451163" style="stroke: #000000; stroke-width: 0.8"/>
      </g>
     </g>
    </g>
    <g id="xtick_15">
     <g id="line2d_28">
      <g>
       <use xlink:href="#m9606d9a723" x="749.852635" y="205.451163" style="stroke: #000000; stroke-width: 0.8"/>
      </g>
     </g>
    </g>
   </g>
   <g id="matplotlib.axis_6">
    <g id="ytick_7">
     <g id="line2d_29">
      <g>
       <use xlink:href="#m2c065c06fd" x="561.6" y="196.537774" style="stroke: #000000; stroke-width: 0.8"/>
      </g>
     </g>
    </g>
    <g id="ytick_8">
     <g id="line2d_30">
      <g>
       <use xlink:href="#m2c065c06fd" x="561.6" y="147.645875" style="stroke: #000000; stroke-width: 0.8"/>
      </g>
     </g>
    </g>
    <g id="ytick_9">
     <g id="line2d_31">
      <g>
       <use xlink:href="#m2c065c06fd" x="561.6" y="98.753976" style="stroke: #000000; stroke-width: 0.8"/>
      </g>
     </g>
    </g>
   </g>
   <g id="line2d_32">
    <path d="M 571.418182 146.234466 
L 572.187702 145.349301 
L 576.49129 142.060526 
L 578.237179 140.984319 
L 580.001416 140.112312 
L 581.780705 139.456921 
L 583.56307 138.998359 
L 586.23454 138.564012 
L 588.957051 138.379059 
L 593.506981 138.308225 
L 601.585937 138.51665 
L 610.520257 138.947327 
L 615.865999 139.398969 
L 620.309523 139.972999 
L 624.739656 140.773378 
L 629.151001 141.80518 
L 633.529316 143.090684 
L 636.981561 144.329446 
L 640.393121 145.754333 
L 642.970518 147.019943 
L 645.600476 148.584495 
L 647.40647 149.889842 
L 649.26535 151.503497 
L 652.077173 154.090745 
L 653.91139 155.31208 
L 655.725122 156.126199 
L 657.530151 156.665006 
L 660.226164 157.155449 
L 663.860477 157.488902 
L 667.584285 157.576117 
L 672.214575 157.39169 
L 683.849871 156.838368 
L 688.273049 156.883919 
L 691.799617 157.110253 
L 695.318195 157.546983 
L 697.947134 158.05636 
L 700.563803 158.772312 
L 703.165931 159.771319 
L 704.889591 160.639964 
L 706.605219 161.716204 
L 708.305248 162.995779 
L 710.832122 165.28887 
L 717.463424 171.748382 
L 718.165743 172.368784 
L 721.831704 174.65298 
L 724.463592 175.745615 
L 726.893891 176.346676 
L 728.320243 176.475481 
L 729.780173 176.427676 
L 730.776945 176.186216 
L 731.263652 175.799021 
L 731.768201 175.54268 
L 732.738461 173.508689 
L 733.741525 162.292564 
L 734.06018 153.512319 
L 734.590738 151.685952 
L 735.165907 143.967378 
L 735.832977 142.946514 
L 736.350625 137.242807 
L 737.200626 135.695611 
L 737.478188 126.162828 
L 738.347213 126.408102 
L 737.223998 87.424136 
L 738.297044 90.984383 
L 739.303736 83.331745 
L 740.37174 82.530736 
L 740.770922 89.396111 
L 741.586326 82.874861 
L 741.834089 90.478719 
L 741.834089 90.478719 
" clip-path="url(#pa698558e90)" style="fill: none; stroke: #d62728; stroke-width: 1.5; stroke-linecap: square"/>
   </g>
   <g id="line2d_33">
    <path d="M 571.418182 147.285473 
L 572.187702 146.280585 
L 577.362084 141.768933 
L 579.116988 140.571449 
L 580.889764 139.577045 
L 582.672482 138.790671 
L 585.340529 137.887835 
L 587.136261 137.443438 
L 589.871503 137.018147 
L 592.602971 136.773852 
L 597.106145 136.669705 
L 603.375159 136.81335 
L 609.628233 137.14803 
L 614.975912 137.618698 
L 620.309523 138.312627 
L 624.739656 139.096988 
L 628.270789 139.896738 
L 631.784214 140.881386 
L 635.262332 142.124172 
L 637.836481 143.249301 
L 640.393121 144.571168 
L 642.106046 145.625609 
L 643.840236 146.892205 
L 645.600476 148.449594 
L 647.40647 150.376302 
L 649.26535 152.696524 
L 651.145844 155.17359 
L 652.998515 157.163122 
L 654.819272 158.529114 
L 656.629043 159.48134 
L 658.428962 160.162603 
L 661.128474 160.905868 
L 666.646644 162.045739 
L 684.736256 165.708794 
L 693.560061 167.401368 
L 697.947134 168.438648 
L 701.432298 169.465331 
L 704.889591 170.738969 
L 713.398607 174.109837 
L 716.68789 174.857194 
L 717.463424 174.820746 
L 718.165743 174.966912 
L 720.075758 175.003104 
L 720.667478 175.103711 
L 721.270327 175.044849 
L 722.921736 175.192727 
L 723.441286 175.126369 
L 725.458584 175.309746 
L 725.942559 175.294833 
L 727.366438 175.509904 
L 727.83162 175.499105 
L 728.320243 175.649482 
L 728.794312 175.603139 
L 729.291605 175.787027 
L 729.780173 175.714911 
L 730.279694 175.926756 
L 730.776945 175.822302 
L 731.263652 176.074687 
L 731.768201 175.931747 
L 732.22542 176.197087 
L 732.738461 175.9079 
L 733.17133 175.287228 
L 733.741525 172.313373 
L 734.06018 164.417597 
L 734.590738 160.858665 
L 735.165907 152.855666 
L 735.832977 150.221884 
L 736.350625 141.500625 
L 737.200626 137.396533 
L 737.478188 126.516659 
L 738.347213 124.734549 
L 737.223998 79.296854 
L 738.297044 85.791125 
L 739.303736 71.409644 
L 740.37174 71.193235 
L 740.770922 80.419738 
L 741.586326 71.369256 
L 741.834089 83.426327 
L 741.834089 83.426327 
" clip-path="url(#pa698558e90)" style="fill: none; stroke: #2ca02c; stroke-width: 1.5; stroke-linecap: square"/>
   </g>
   <g id="patch_13">
    <path d="M 561.6 205.451163 
L 561.6 64.8 
" style="fill: none; stroke: #000000; stroke-width: 0.8; stroke-linejoin: miter; stroke-linecap: square"/>
   </g>
   <g id="patch_14">
    <path d="M 777.6 205.451163 
L 777.6 64.8 
" style="fill: none; stroke: #000000; stroke-width: 0.8; stroke-linejoin: miter; stroke-linecap: square"/>
   </g>
   <g id="patch_15">
    <path d="M 561.6 205.451163 
L 777.6 205.451163 
" style="fill: none; stroke: #000000; stroke-width: 0.8; stroke-linejoin: miter; stroke-linecap: square"/>
   </g>
   <g id="patch_16">
    <path d="M 561.6 64.8 
L 777.6 64.8 
" style="fill: none; stroke: #000000; stroke-width: 0.8; stroke-linejoin: miter; stroke-linecap: square"/>
   </g>
   <g id="text_6">
    <!-- +2$\sigma_{PC}$ -->
    <g transform="translate(631.475 58.8) scale(0.25 -0.25)">
     <defs>
      <path id="DejaVuSans-2b" d="M 2944 4013 
L 2944 2272 
L 4684 2272 
L 4684 1741 
L 2944 1741 
L 2944 0 
L 2419 0 
L 2419 1741 
L 678 1741 
L 678 2272 
L 2419 2272 
L 2419 4013 
L 2944 4013 
z
" transform="scale(0.015625)"/>
     </defs>
     <use xlink:href="#DejaVuSans-2b" transform="translate(0 0.78125)"/>
     <use xlink:href="#DejaVuSans-32" transform="translate(83.789062 0.78125)"/>
     <use xlink:href="#DejaVuSans-Oblique-3c3" transform="translate(147.412109 0.78125)"/>
     <use xlink:href="#DejaVuSans-Oblique-50" transform="translate(210.791016 -15.625) scale(0.7)"/>
     <use xlink:href="#DejaVuSans-Oblique-43" transform="translate(253.00293 -15.625) scale(0.7)"/>
    </g>
   </g>
   <g id="legend_1">
    <g id="patch_17">
     <path d="M 614.44375 139.5125 
L 763.6 139.5125 
Q 767.6 139.5125 767.6 135.5125 
L 767.6 78.8 
Q 767.6 74.8 763.6 74.8 
L 614.44375 74.8 
Q 610.44375 74.8 610.44375 78.8 
L 610.44375 135.5125 
Q 610.44375 139.5125 614.44375 139.5125 
z
" style="fill: #ffffff; opacity: 0.8; stroke: #cccccc; stroke-linejoin: miter"/>
    </g>
    <g id="line2d_34">
     <path d="M 618.44375 90.996875 
L 638.44375 90.996875 
L 658.44375 90.996875 
" style="fill: none; stroke: #d62728; stroke-width: 1.5; stroke-linecap: square"/>
    </g>
    <g id="text_7">
     <!-- Thoracic -->
     <g transform="translate(674.44375 97.996875) scale(0.2 -0.2)">
      <defs>
       <path id="DejaVuSans-54" d="M -19 4666 
L 3928 4666 
L 3928 4134 
L 2272 4134 
L 2272 0 
L 1638 0 
L 1638 4134 
L -19 4134 
L -19 4666 
z
" transform="scale(0.015625)"/>
       <path id="DejaVuSans-68" d="M 3513 2113 
L 3513 0 
L 2938 0 
L 2938 2094 
Q 2938 2591 2744 2837 
Q 2550 3084 2163 3084 
Q 1697 3084 1428 2787 
Q 1159 2491 1159 1978 
L 1159 0 
L 581 0 
L 581 4863 
L 1159 4863 
L 1159 2956 
Q 1366 3272 1645 3428 
Q 1925 3584 2291 3584 
Q 2894 3584 3203 3211 
Q 3513 2838 3513 2113 
z
" transform="scale(0.015625)"/>
       <path id="DejaVuSans-6f" d="M 1959 3097 
Q 1497 3097 1228 2736 
Q 959 2375 959 1747 
Q 959 1119 1226 758 
Q 1494 397 1959 397 
Q 2419 397 2687 759 
Q 2956 1122 2956 1747 
Q 2956 2369 2687 2733 
Q 2419 3097 1959 3097 
z
M 1959 3584 
Q 2709 3584 3137 3096 
Q 3566 2609 3566 1747 
Q 3566 888 3137 398 
Q 2709 -91 1959 -91 
Q 1206 -91 779 398 
Q 353 888 353 1747 
Q 353 2609 779 3096 
Q 1206 3584 1959 3584 
z
" transform="scale(0.015625)"/>
       <path id="DejaVuSans-72" d="M 2631 2963 
Q 2534 3019 2420 3045 
Q 2306 3072 2169 3072 
Q 1681 3072 1420 2755 
Q 1159 2438 1159 1844 
L 1159 0 
L 581 0 
L 581 3500 
L 1159 3500 
L 1159 2956 
Q 1341 3275 1631 3429 
Q 1922 3584 2338 3584 
Q 2397 3584 2469 3576 
Q 2541 3569 2628 3553 
L 2631 2963 
z
" transform="scale(0.015625)"/>
       <path id="DejaVuSans-61" d="M 2194 1759 
Q 1497 1759 1228 1600 
Q 959 1441 959 1056 
Q 959 750 1161 570 
Q 1363 391 1709 391 
Q 2188 391 2477 730 
Q 2766 1069 2766 1631 
L 2766 1759 
L 2194 1759 
z
M 3341 1997 
L 3341 0 
L 2766 0 
L 2766 531 
Q 2569 213 2275 61 
Q 1981 -91 1556 -91 
Q 1019 -91 701 211 
Q 384 513 384 1019 
Q 384 1609 779 1909 
Q 1175 2209 1959 2209 
L 2766 2209 
L 2766 2266 
Q 2766 2663 2505 2880 
Q 2244 3097 1772 3097 
Q 1472 3097 1187 3025 
Q 903 2953 641 2809 
L 641 3341 
Q 956 3463 1253 3523 
Q 1550 3584 1831 3584 
Q 2591 3584 2966 3190 
Q 3341 2797 3341 1997 
z
" transform="scale(0.015625)"/>
       <path id="DejaVuSans-63" d="M 3122 3366 
L 3122 2828 
Q 2878 2963 2633 3030 
Q 2388 3097 2138 3097 
Q 1578 3097 1268 2742 
Q 959 2388 959 1747 
Q 959 1106 1268 751 
Q 1578 397 2138 397 
Q 2388 397 2633 464 
Q 2878 531 3122 666 
L 3122 134 
Q 2881 22 2623 -34 
Q 2366 -91 2075 -91 
Q 1284 -91 818 406 
Q 353 903 353 1747 
Q 353 2603 823 3093 
Q 1294 3584 2113 3584 
Q 2378 3584 2631 3529 
Q 2884 3475 3122 3366 
z
" transform="scale(0.015625)"/>
       <path id="DejaVuSans-69" d="M 603 3500 
L 1178 3500 
L 1178 0 
L 603 0 
L 603 3500 
z
M 603 4863 
L 1178 4863 
L 1178 4134 
L 603 4134 
L 603 4863 
z
" transform="scale(0.015625)"/>
      </defs>
      <use xlink:href="#DejaVuSans-54"/>
      <use xlink:href="#DejaVuSans-68" x="61.083984"/>
      <use xlink:href="#DejaVuSans-6f" x="124.462891"/>
      <use xlink:href="#DejaVuSans-72" x="185.644531"/>
      <use xlink:href="#DejaVuSans-61" x="226.757812"/>
      <use xlink:href="#DejaVuSans-63" x="288.037109"/>
      <use xlink:href="#DejaVuSans-69" x="343.017578"/>
      <use xlink:href="#DejaVuSans-63" x="370.800781"/>
     </g>
    </g>
    <g id="line2d_35">
     <path d="M 618.44375 120.353125 
L 638.44375 120.353125 
L 658.44375 120.353125 
" style="fill: none; stroke: #2ca02c; stroke-width: 1.5; stroke-linecap: square"/>
    </g>
    <g id="text_8">
     <!-- Nasal -->
     <g transform="translate(674.44375 127.353125) scale(0.2 -0.2)">
      <defs>
       <path id="DejaVuSans-4e" d="M 628 4666 
L 1478 4666 
L 3547 763 
L 3547 4666 
L 4159 4666 
L 4159 0 
L 3309 0 
L 1241 3903 
L 1241 0 
L 628 0 
L 628 4666 
z
" transform="scale(0.015625)"/>
       <path id="DejaVuSans-73" d="M 2834 3397 
L 2834 2853 
Q 2591 2978 2328 3040 
Q 2066 3103 1784 3103 
Q 1356 3103 1142 2972 
Q 928 2841 928 2578 
Q 928 2378 1081 2264 
Q 1234 2150 1697 2047 
L 1894 2003 
Q 2506 1872 2764 1633 
Q 3022 1394 3022 966 
Q 3022 478 2636 193 
Q 2250 -91 1575 -91 
Q 1294 -91 989 -36 
Q 684 19 347 128 
L 347 722 
Q 666 556 975 473 
Q 1284 391 1588 391 
Q 1994 391 2212 530 
Q 2431 669 2431 922 
Q 2431 1156 2273 1281 
Q 2116 1406 1581 1522 
L 1381 1569 
Q 847 1681 609 1914 
Q 372 2147 372 2553 
Q 372 3047 722 3315 
Q 1072 3584 1716 3584 
Q 2034 3584 2315 3537 
Q 2597 3491 2834 3397 
z
" transform="scale(0.015625)"/>
       <path id="DejaVuSans-6c" d="M 603 4863 
L 1178 4863 
L 1178 0 
L 603 0 
L 603 4863 
z
" transform="scale(0.015625)"/>
      </defs>
      <use xlink:href="#DejaVuSans-4e"/>
      <use xlink:href="#DejaVuSans-61" x="74.804688"/>
      <use xlink:href="#DejaVuSans-73" x="136.083984"/>
      <use xlink:href="#DejaVuSans-61" x="188.183594"/>
      <use xlink:href="#DejaVuSans-6c" x="249.462891"/>
     </g>
    </g>
   </g>
  </g>
  <g id="axes_4">
   <g id="patch_18">
    <path d="M 86.4 367.2 
L 302.4 367.2 
L 302.4 226.548837 
L 86.4 226.548837 
z
" style="fill: #ffffff"/>
   </g>
   <g id="line2d_36">
    <path d="M 86.4 309.394712 
L 302.4 309.394712 
" clip-path="url(#p3a9513c57e)" style="fill: none; stroke-dasharray: 3.7,1.6; stroke-dashoffset: 0; stroke: #000000"/>
   </g>
   <g id="matplotlib.axis_7">
    <g id="xtick_16">
     <g id="line2d_37">
      <g>
       <use xlink:href="#m9606d9a723" x="96.542747" y="367.2" style="stroke: #000000; stroke-width: 0.8"/>
      </g>
     </g>
     <g id="text_9">
      <!-- 0 -->
      <g transform="translate(90.180247 389.396875) scale(0.2 -0.2)">
       <use xlink:href="#DejaVuSans-30"/>
      </g>
     </g>
    </g>
    <g id="xtick_17">
     <g id="line2d_38">
      <g>
       <use xlink:href="#m9606d9a723" x="141.070219" y="367.2" style="stroke: #000000; stroke-width: 0.8"/>
      </g>
     </g>
     <g id="text_10">
      <!-- 100 -->
      <g transform="translate(121.982719 389.396875) scale(0.2 -0.2)">
       <use xlink:href="#DejaVuSans-31"/>
       <use xlink:href="#DejaVuSans-30" x="63.623047"/>
       <use xlink:href="#DejaVuSans-30" x="127.246094"/>
      </g>
     </g>
    </g>
    <g id="xtick_18">
     <g id="line2d_39">
      <g>
       <use xlink:href="#m9606d9a723" x="185.597691" y="367.2" style="stroke: #000000; stroke-width: 0.8"/>
      </g>
     </g>
     <g id="text_11">
      <!-- 200 -->
      <g transform="translate(166.510191 389.396875) scale(0.2 -0.2)">
       <use xlink:href="#DejaVuSans-32"/>
       <use xlink:href="#DejaVuSans-30" x="63.623047"/>
       <use xlink:href="#DejaVuSans-30" x="127.246094"/>
      </g>
     </g>
    </g>
    <g id="xtick_19">
     <g id="line2d_40">
      <g>
       <use xlink:href="#m9606d9a723" x="230.125163" y="367.2" style="stroke: #000000; stroke-width: 0.8"/>
      </g>
     </g>
     <g id="text_12">
      <!-- 300 -->
      <g transform="translate(211.037663 389.396875) scale(0.2 -0.2)">
       <defs>
        <path id="DejaVuSans-33" d="M 2597 2516 
Q 3050 2419 3304 2112 
Q 3559 1806 3559 1356 
Q 3559 666 3084 287 
Q 2609 -91 1734 -91 
Q 1441 -91 1130 -33 
Q 819 25 488 141 
L 488 750 
Q 750 597 1062 519 
Q 1375 441 1716 441 
Q 2309 441 2620 675 
Q 2931 909 2931 1356 
Q 2931 1769 2642 2001 
Q 2353 2234 1838 2234 
L 1294 2234 
L 1294 2753 
L 1863 2753 
Q 2328 2753 2575 2939 
Q 2822 3125 2822 3475 
Q 2822 3834 2567 4026 
Q 2313 4219 1838 4219 
Q 1578 4219 1281 4162 
Q 984 4106 628 3988 
L 628 4550 
Q 988 4650 1302 4700 
Q 1616 4750 1894 4750 
Q 2613 4750 3031 4423 
Q 3450 4097 3450 3541 
Q 3450 3153 3228 2886 
Q 3006 2619 2597 2516 
z
" transform="scale(0.015625)"/>
       </defs>
       <use xlink:href="#DejaVuSans-33"/>
       <use xlink:href="#DejaVuSans-30" x="63.623047"/>
       <use xlink:href="#DejaVuSans-30" x="127.246094"/>
      </g>
     </g>
    </g>
    <g id="xtick_20">
     <g id="line2d_41">
      <g>
       <use xlink:href="#m9606d9a723" x="274.652635" y="367.2" style="stroke: #000000; stroke-width: 0.8"/>
      </g>
     </g>
     <g id="text_13">
      <!-- 400 -->
      <g transform="translate(255.565135 389.396875) scale(0.2 -0.2)">
       <defs>
        <path id="DejaVuSans-34" d="M 2419 4116 
L 825 1625 
L 2419 1625 
L 2419 4116 
z
M 2253 4666 
L 3047 4666 
L 3047 1625 
L 3713 1625 
L 3713 1100 
L 3047 1100 
L 3047 0 
L 2419 0 
L 2419 1100 
L 313 1100 
L 313 1709 
L 2253 4666 
z
" transform="scale(0.015625)"/>
       </defs>
       <use xlink:href="#DejaVuSans-34"/>
       <use xlink:href="#DejaVuSans-30" x="63.623047"/>
       <use xlink:href="#DejaVuSans-30" x="127.246094"/>
      </g>
     </g>
    </g>
   </g>
   <g id="matplotlib.axis_8">
    <g id="ytick_10">
     <g id="line2d_42">
      <g>
       <use xlink:href="#m2c065c06fd" x="86.4" y="358.286611" style="stroke: #000000; stroke-width: 0.8"/>
      </g>
     </g>
     <g id="text_14">
      <!-- −10 -->
      <g transform="translate(37.190625 365.885049) scale(0.2 -0.2)">
       <use xlink:href="#DejaVuSans-2212"/>
       <use xlink:href="#DejaVuSans-31" x="83.789062"/>
       <use xlink:href="#DejaVuSans-30" x="147.412109"/>
      </g>
     </g>
    </g>
    <g id="ytick_11">
     <g id="line2d_43">
      <g>
       <use xlink:href="#m2c065c06fd" x="86.4" y="309.394712" style="stroke: #000000; stroke-width: 0.8"/>
      </g>
     </g>
     <g id="text_15">
      <!-- 0 -->
      <g transform="translate(66.675 316.99315) scale(0.2 -0.2)">
       <use xlink:href="#DejaVuSans-30"/>
      </g>
     </g>
    </g>
    <g id="ytick_12">
     <g id="line2d_44">
      <g>
       <use xlink:href="#m2c065c06fd" x="86.4" y="260.502813" style="stroke: #000000; stroke-width: 0.8"/>
      </g>
     </g>
     <g id="text_16">
      <!-- 10 -->
      <g transform="translate(53.95 268.101251) scale(0.2 -0.2)">
       <use xlink:href="#DejaVuSans-31"/>
       <use xlink:href="#DejaVuSans-30" x="63.623047"/>
      </g>
     </g>
    </g>
   </g>
   <g id="line2d_45">
    <path d="M 96.477381 308.019652 
L 97.292993 307.494657 
L 100.845892 306.259647 
L 104.387174 305.37703 
L 107.921946 304.736634 
L 111.425997 304.29728 
L 114.107336 304.169412 
L 117.71298 304.216832 
L 122.18301 304.590225 
L 128.417921 305.375004 
L 134.644745 306.351726 
L 140.864068 307.549068 
L 148.842684 309.362263 
L 155.906892 310.895609 
L 163.750361 312.334578 
L 170.727536 313.419105 
L 179.44092 314.477088 
L 184.61075 314.90123 
L 191.613717 315.186697 
L 207.694578 315.552499 
L 212.124204 315.359512 
L 215.623133 315.048098 
L 219.071865 314.525063 
L 222.455928 313.723127 
L 224.950475 312.923506 
L 226.588852 312.22772 
L 229.820735 310.487266 
L 232.194016 308.667371 
L 233.76237 307.162944 
L 235.355143 305.385183 
L 237.797659 301.572788 
L 238.608973 300.632031 
L 239.374615 299.441318 
L 240.193266 299.039371 
L 241.656457 297.185011 
L 242.388522 296.315881 
L 243.193639 296.064807 
L 243.966347 295.353348 
L 244.760335 295.031075 
L 245.53712 294.535305 
L 248.721063 293.428142 
L 249.525405 293.191013 
L 251.962309 292.794467 
L 253.598457 292.571503 
L 255.250218 292.411806 
L 256.083804 292.30218 
L 256.920393 292.324306 
L 257.760311 292.233212 
L 258.605555 292.293384 
L 259.456154 292.223072 
L 260.305924 292.319159 
L 261.164377 292.261117 
L 262.019106 292.38948 
L 262.887927 292.337927 
L 263.747549 292.503906 
L 264.63057 292.454796 
L 265.493222 292.66546 
L 266.387372 292.64206 
L 267.252633 292.916551 
L 269.051234 293.063822 
L 269.922012 293.416599 
L 270.833706 293.458018 
L 271.727598 293.859541 
L 272.642933 293.861058 
L 273.541011 294.420749 
L 274.436697 294.307176 
L 276.244497 294.984276 
L 277.147358 295.11601 
L 278.008067 296.152399 
L 278.540391 295.969491 
L 279.10174 296.632399 
L 279.10174 296.632399 
" clip-path="url(#p3a9513c57e)" style="fill: none; stroke: #d62728; stroke-width: 1.5; stroke-linecap: square"/>
   </g>
   <g id="line2d_46">
    <path d="M 96.477381 308.474662 
L 97.292993 307.927059 
L 99.958805 306.906397 
L 103.502313 305.870179 
L 107.921946 304.812279 
L 112.312847 303.974373 
L 115.010113 303.747681 
L 117.71298 303.70458 
L 121.290794 303.917122 
L 125.747194 304.415629 
L 132.866626 305.465364 
L 141.751836 307.030527 
L 148.842684 308.200664 
L 154.144627 308.801571 
L 159.414205 309.127787 
L 163.750361 309.20545 
L 168.978609 309.046386 
L 174.216341 308.65659 
L 179.44092 308.016278 
L 187.205779 307.034817 
L 191.613717 306.62056 
L 196.061871 306.418866 
L 200.520237 306.410808 
L 208.585488 306.744188 
L 213.879838 306.825783 
L 218.216048 306.652629 
L 224.950475 306.054356 
L 230.613867 305.641691 
L 236.159051 305.250505 
L 240.193266 304.797265 
L 242.388522 304.76778 
L 243.193639 304.733622 
L 243.966347 304.821596 
L 244.760335 304.79072 
L 247.121821 305.043166 
L 247.923487 305.017978 
L 251.14276 305.406777 
L 251.962309 305.434498 
L 252.77755 305.598368 
L 253.598457 305.630667 
L 254.420424 305.810737 
L 255.250218 305.838169 
L 256.083804 306.062553 
L 256.920393 306.050122 
L 257.760311 306.322444 
L 258.605555 306.285952 
L 259.456154 306.596931 
L 260.305924 306.528267 
L 261.164377 306.896533 
L 262.019106 306.796183 
L 262.887927 307.236345 
L 263.747549 307.075931 
L 264.63057 307.600796 
L 265.493222 307.358843 
L 266.387372 307.881337 
L 267.252633 307.57418 
L 269.051234 308.338767 
L 269.922012 307.993016 
L 270.833706 308.663657 
L 271.727598 308.316115 
L 272.642933 309.129178 
L 273.541011 308.440252 
L 275.381288 309.762565 
L 276.244497 309.032883 
L 277.147358 309.602404 
L 278.008067 309.479662 
L 279.10174 310.287296 
L 279.10174 310.287296 
" clip-path="url(#p3a9513c57e)" style="fill: none; stroke: #2ca02c; stroke-width: 1.5; stroke-linecap: square"/>
   </g>
   <g id="patch_19">
    <path d="M 86.4 367.2 
L 86.4 226.548837 
" style="fill: none; stroke: #000000; stroke-width: 0.8; stroke-linejoin: miter; stroke-linecap: square"/>
   </g>
   <g id="patch_20">
    <path d="M 302.4 367.2 
L 302.4 226.548837 
" style="fill: none; stroke: #000000; stroke-width: 0.8; stroke-linejoin: miter; stroke-linecap: square"/>
   </g>
   <g id="patch_21">
    <path d="M 86.4 367.2 
L 302.4 367.2 
" style="fill: none; stroke: #000000; stroke-width: 0.8; stroke-linejoin: miter; stroke-linecap: square"/>
   </g>
   <g id="patch_22">
    <path d="M 86.4 226.548837 
L 302.4 226.548837 
" style="fill: none; stroke: #000000; stroke-width: 0.8; stroke-linejoin: miter; stroke-linecap: square"/>
   </g>
  </g>
  <g id="axes_5">
   <g id="patch_23">
    <path d="M 324 367.2 
L 540 367.2 
L 540 226.548837 
L 324 226.548837 
z
" style="fill: #ffffff"/>
   </g>
   <g id="line2d_47">
    <path d="M 324 309.394712 
L 540 309.394712 
" clip-path="url(#pc8eb6fea61)" style="fill: none; stroke-dasharray: 3.7,1.6; stroke-dashoffset: 0; stroke: #000000"/>
   </g>
   <g id="matplotlib.axis_9">
    <g id="xtick_21">
     <g id="line2d_48">
      <g>
       <use xlink:href="#m9606d9a723" x="334.142747" y="367.2" style="stroke: #000000; stroke-width: 0.8"/>
      </g>
     </g>
     <g id="text_17">
      <!-- 0 -->
      <g transform="translate(327.780247 389.396875) scale(0.2 -0.2)">
       <use xlink:href="#DejaVuSans-30"/>
      </g>
     </g>
    </g>
    <g id="xtick_22">
     <g id="line2d_49">
      <g>
       <use xlink:href="#m9606d9a723" x="378.670219" y="367.2" style="stroke: #000000; stroke-width: 0.8"/>
      </g>
     </g>
     <g id="text_18">
      <!-- 100 -->
      <g transform="translate(359.582719 389.396875) scale(0.2 -0.2)">
       <use xlink:href="#DejaVuSans-31"/>
       <use xlink:href="#DejaVuSans-30" x="63.623047"/>
       <use xlink:href="#DejaVuSans-30" x="127.246094"/>
      </g>
     </g>
    </g>
    <g id="xtick_23">
     <g id="line2d_50">
      <g>
       <use xlink:href="#m9606d9a723" x="423.197691" y="367.2" style="stroke: #000000; stroke-width: 0.8"/>
      </g>
     </g>
     <g id="text_19">
      <!-- 200 -->
      <g transform="translate(404.110191 389.396875) scale(0.2 -0.2)">
       <use xlink:href="#DejaVuSans-32"/>
       <use xlink:href="#DejaVuSans-30" x="63.623047"/>
       <use xlink:href="#DejaVuSans-30" x="127.246094"/>
      </g>
     </g>
    </g>
    <g id="xtick_24">
     <g id="line2d_51">
      <g>
       <use xlink:href="#m9606d9a723" x="467.725163" y="367.2" style="stroke: #000000; stroke-width: 0.8"/>
      </g>
     </g>
     <g id="text_20">
      <!-- 300 -->
      <g transform="translate(448.637663 389.396875) scale(0.2 -0.2)">
       <use xlink:href="#DejaVuSans-33"/>
       <use xlink:href="#DejaVuSans-30" x="63.623047"/>
       <use xlink:href="#DejaVuSans-30" x="127.246094"/>
      </g>
     </g>
    </g>
    <g id="xtick_25">
     <g id="line2d_52">
      <g>
       <use xlink:href="#m9606d9a723" x="512.252635" y="367.2" style="stroke: #000000; stroke-width: 0.8"/>
      </g>
     </g>
     <g id="text_21">
      <!-- 400 -->
      <g transform="translate(493.165135 389.396875) scale(0.2 -0.2)">
       <use xlink:href="#DejaVuSans-34"/>
       <use xlink:href="#DejaVuSans-30" x="63.623047"/>
       <use xlink:href="#DejaVuSans-30" x="127.246094"/>
      </g>
     </g>
    </g>
    <g id="text_22">
     <!-- time (ms) -->
     <g transform="translate(383.476562 412.753125) scale(0.2 -0.2)">
      <defs>
       <path id="DejaVuSans-74" d="M 1172 4494 
L 1172 3500 
L 2356 3500 
L 2356 3053 
L 1172 3053 
L 1172 1153 
Q 1172 725 1289 603 
Q 1406 481 1766 481 
L 2356 481 
L 2356 0 
L 1766 0 
Q 1100 0 847 248 
Q 594 497 594 1153 
L 594 3053 
L 172 3053 
L 172 3500 
L 594 3500 
L 594 4494 
L 1172 4494 
z
" transform="scale(0.015625)"/>
       <path id="DejaVuSans-6d" d="M 3328 2828 
Q 3544 3216 3844 3400 
Q 4144 3584 4550 3584 
Q 5097 3584 5394 3201 
Q 5691 2819 5691 2113 
L 5691 0 
L 5113 0 
L 5113 2094 
Q 5113 2597 4934 2840 
Q 4756 3084 4391 3084 
Q 3944 3084 3684 2787 
Q 3425 2491 3425 1978 
L 3425 0 
L 2847 0 
L 2847 2094 
Q 2847 2600 2669 2842 
Q 2491 3084 2119 3084 
Q 1678 3084 1418 2786 
Q 1159 2488 1159 1978 
L 1159 0 
L 581 0 
L 581 3500 
L 1159 3500 
L 1159 2956 
Q 1356 3278 1631 3431 
Q 1906 3584 2284 3584 
Q 2666 3584 2933 3390 
Q 3200 3197 3328 2828 
z
" transform="scale(0.015625)"/>
       <path id="DejaVuSans-65" d="M 3597 1894 
L 3597 1613 
L 953 1613 
Q 991 1019 1311 708 
Q 1631 397 2203 397 
Q 2534 397 2845 478 
Q 3156 559 3463 722 
L 3463 178 
Q 3153 47 2828 -22 
Q 2503 -91 2169 -91 
Q 1331 -91 842 396 
Q 353 884 353 1716 
Q 353 2575 817 3079 
Q 1281 3584 2069 3584 
Q 2775 3584 3186 3129 
Q 3597 2675 3597 1894 
z
M 3022 2063 
Q 3016 2534 2758 2815 
Q 2500 3097 2075 3097 
Q 1594 3097 1305 2825 
Q 1016 2553 972 2059 
L 3022 2063 
z
" transform="scale(0.015625)"/>
       <path id="DejaVuSans-20" transform="scale(0.015625)"/>
       <path id="DejaVuSans-28" d="M 1984 4856 
Q 1566 4138 1362 3434 
Q 1159 2731 1159 2009 
Q 1159 1288 1364 580 
Q 1569 -128 1984 -844 
L 1484 -844 
Q 1016 -109 783 600 
Q 550 1309 550 2009 
Q 550 2706 781 3412 
Q 1013 4119 1484 4856 
L 1984 4856 
z
" transform="scale(0.015625)"/>
       <path id="DejaVuSans-29" d="M 513 4856 
L 1013 4856 
Q 1481 4119 1714 3412 
Q 1947 2706 1947 2009 
Q 1947 1309 1714 600 
Q 1481 -109 1013 -844 
L 513 -844 
Q 928 -128 1133 580 
Q 1338 1288 1338 2009 
Q 1338 2731 1133 3434 
Q 928 4138 513 4856 
z
" transform="scale(0.015625)"/>
      </defs>
      <use xlink:href="#DejaVuSans-74"/>
      <use xlink:href="#DejaVuSans-69" x="39.208984"/>
      <use xlink:href="#DejaVuSans-6d" x="66.992188"/>
      <use xlink:href="#DejaVuSans-65" x="164.404297"/>
      <use xlink:href="#DejaVuSans-20" x="225.927734"/>
      <use xlink:href="#DejaVuSans-28" x="257.714844"/>
      <use xlink:href="#DejaVuSans-6d" x="296.728516"/>
      <use xlink:href="#DejaVuSans-73" x="394.140625"/>
      <use xlink:href="#DejaVuSans-29" x="446.240234"/>
     </g>
    </g>
   </g>
   <g id="matplotlib.axis_10">
    <g id="ytick_13">
     <g id="line2d_53">
      <g>
       <use xlink:href="#m2c065c06fd" x="324" y="358.286611" style="stroke: #000000; stroke-width: 0.8"/>
      </g>
     </g>
    </g>
    <g id="ytick_14">
     <g id="line2d_54">
      <g>
       <use xlink:href="#m2c065c06fd" x="324" y="309.394712" style="stroke: #000000; stroke-width: 0.8"/>
      </g>
     </g>
    </g>
    <g id="ytick_15">
     <g id="line2d_55">
      <g>
       <use xlink:href="#m2c065c06fd" x="324" y="260.502813" style="stroke: #000000; stroke-width: 0.8"/>
      </g>
     </g>
    </g>
   </g>
   <g id="line2d_56">
    <path d="M 334.171435 307.920728 
L 334.991189 307.429409 
L 338.5615 306.194625 
L 342.12097 305.306253 
L 345.669789 304.687489 
L 349.17196 304.31266 
L 352.741812 304.208111 
L 358.115566 304.315512 
L 385.774588 305.413205 
L 394.690957 306.123754 
L 400.889051 306.817949 
L 407.107963 307.766917 
L 414.152546 309.131098 
L 432.695504 313.187329 
L 438.93098 314.2783 
L 444.290706 314.977392 
L 449.630809 315.423924 
L 454.944156 315.642568 
L 459.35009 315.618427 
L 464.593442 315.343773 
L 469.787412 314.804289 
L 473.223534 314.284233 
L 475.87253 313.710555 
L 478.542099 312.977487 
L 479.368564 312.68762 
L 480.19522 312.590616 
L 481.688374 311.966858 
L 482.407651 311.593885 
L 483.194233 311.475988 
L 483.933065 311.09991 
L 485.394884 310.514104 
L 489.681631 308.685133 
L 493.283562 307.109867 
L 497.832952 305.472096 
L 498.616341 305.350116 
L 499.420018 305.015679 
L 500.221113 304.945516 
L 501.039262 304.578388 
L 501.857533 304.574366 
L 502.69207 304.158625 
L 503.526212 304.240036 
L 504.377042 303.832222 
L 505.227682 304.015806 
L 506.965609 303.479834 
L 507.832378 303.760614 
L 508.70976 303.339976 
L 509.601275 303.653413 
L 510.476102 303.109235 
L 511.381436 303.681967 
L 512.245623 303.127452 
L 513.149449 302.940918 
L 514.027972 303.314922 
L 514.899484 302.989886 
L 515.723095 303.654591 
L 516.236667 303.208159 
L 516.750714 303.432959 
L 516.750714 303.432959 
" clip-path="url(#pc8eb6fea61)" style="fill: none; stroke: #d62728; stroke-width: 1.5; stroke-linecap: square"/>
   </g>
   <g id="line2d_57">
    <path d="M 334.171435 308.211142 
L 334.991189 307.650701 
L 338.5615 306.1918 
L 342.12097 305.089036 
L 345.669789 304.219052 
L 349.17196 303.566589 
L 351.842946 303.266599 
L 355.435018 303.059057 
L 360.791752 303.032542 
L 373.278054 303.298667 
L 389.34408 303.837874 
L 396.468543 304.265679 
L 402.653817 304.886279 
L 407.998452 305.61539 
L 412.400629 306.402601 
L 417.629624 307.644032 
L 425.488543 309.618225 
L 433.590177 311.476587 
L 442.505456 313.561639 
L 447.853936 314.573753 
L 452.290798 315.190672 
L 457.591494 315.649881 
L 462.851166 315.82736 
L 468.063209 315.774663 
L 473.223534 315.504679 
L 477.681418 315.046998 
L 483.933065 313.905105 
L 486.111538 313.290966 
L 486.835911 313.146141 
L 488.257657 312.674861 
L 490.401425 312.026907 
L 492.554365 311.253831 
L 494.764052 310.580013 
L 495.50893 310.252256 
L 496.278459 310.11858 
L 497.044345 309.788723 
L 497.832952 309.678814 
L 498.616341 309.345355 
L 499.420018 309.267574 
L 500.221113 308.934476 
L 501.039262 308.889662 
L 501.857533 308.542734 
L 502.69207 308.531836 
L 503.526212 308.166427 
L 504.377042 308.154847 
L 505.227682 307.798298 
L 506.965609 307.712769 
L 507.832378 307.381999 
L 508.70976 307.500808 
L 509.601275 307.180372 
L 510.476102 307.35516 
L 511.381436 306.883805 
L 512.245623 306.914487 
L 513.149449 307.198586 
L 514.027972 306.576144 
L 516.236667 306.810847 
L 516.750714 307.120821 
L 516.750714 307.120821 
" clip-path="url(#pc8eb6fea61)" style="fill: none; stroke: #2ca02c; stroke-width: 1.5; stroke-linecap: square"/>
   </g>
   <g id="patch_24">
    <path d="M 324 367.2 
L 324 226.548837 
" style="fill: none; stroke: #000000; stroke-width: 0.8; stroke-linejoin: miter; stroke-linecap: square"/>
   </g>
   <g id="patch_25">
    <path d="M 540 367.2 
L 540 226.548837 
" style="fill: none; stroke: #000000; stroke-width: 0.8; stroke-linejoin: miter; stroke-linecap: square"/>
   </g>
   <g id="patch_26">
    <path d="M 324 367.2 
L 540 367.2 
" style="fill: none; stroke: #000000; stroke-width: 0.8; stroke-linejoin: miter; stroke-linecap: square"/>
   </g>
   <g id="patch_27">
    <path d="M 324 226.548837 
L 540 226.548837 
" style="fill: none; stroke: #000000; stroke-width: 0.8; stroke-linejoin: miter; stroke-linecap: square"/>
   </g>
  </g>
  <g id="axes_6">
   <g id="patch_28">
    <path d="M 561.6 367.2 
L 777.6 367.2 
L 777.6 226.548837 
L 561.6 226.548837 
z
" style="fill: #ffffff"/>
   </g>
   <g id="line2d_58">
    <path d="M 561.6 309.394712 
L 777.6 309.394712 
" clip-path="url(#p8cd3bcc0a9)" style="fill: none; stroke-dasharray: 3.7,1.6; stroke-dashoffset: 0; stroke: #000000"/>
   </g>
   <g id="matplotlib.axis_11">
    <g id="xtick_26">
     <g id="line2d_59">
      <g>
       <use xlink:href="#m9606d9a723" x="571.742747" y="367.2" style="stroke: #000000; stroke-width: 0.8"/>
      </g>
     </g>
     <g id="text_23">
      <!-- 0 -->
      <g transform="translate(565.380247 389.396875) scale(0.2 -0.2)">
       <use xlink:href="#DejaVuSans-30"/>
      </g>
     </g>
    </g>
    <g id="xtick_27">
     <g id="line2d_60">
      <g>
       <use xlink:href="#m9606d9a723" x="616.270219" y="367.2" style="stroke: #000000; stroke-width: 0.8"/>
      </g>
     </g>
     <g id="text_24">
      <!-- 100 -->
      <g transform="translate(597.182719 389.396875) scale(0.2 -0.2)">
       <use xlink:href="#DejaVuSans-31"/>
       <use xlink:href="#DejaVuSans-30" x="63.623047"/>
       <use xlink:href="#DejaVuSans-30" x="127.246094"/>
      </g>
     </g>
    </g>
    <g id="xtick_28">
     <g id="line2d_61">
      <g>
       <use xlink:href="#m9606d9a723" x="660.797691" y="367.2" style="stroke: #000000; stroke-width: 0.8"/>
      </g>
     </g>
     <g id="text_25">
      <!-- 200 -->
      <g transform="translate(641.710191 389.396875) scale(0.2 -0.2)">
       <use xlink:href="#DejaVuSans-32"/>
       <use xlink:href="#DejaVuSans-30" x="63.623047"/>
       <use xlink:href="#DejaVuSans-30" x="127.246094"/>
      </g>
     </g>
    </g>
    <g id="xtick_29">
     <g id="line2d_62">
      <g>
       <use xlink:href="#m9606d9a723" x="705.325163" y="367.2" style="stroke: #000000; stroke-width: 0.8"/>
      </g>
     </g>
     <g id="text_26">
      <!-- 300 -->
      <g transform="translate(686.237663 389.396875) scale(0.2 -0.2)">
       <use xlink:href="#DejaVuSans-33"/>
       <use xlink:href="#DejaVuSans-30" x="63.623047"/>
       <use xlink:href="#DejaVuSans-30" x="127.246094"/>
      </g>
     </g>
    </g>
    <g id="xtick_30">
     <g id="line2d_63">
      <g>
       <use xlink:href="#m9606d9a723" x="749.852635" y="367.2" style="stroke: #000000; stroke-width: 0.8"/>
      </g>
     </g>
     <g id="text_27">
      <!-- 400 -->
      <g transform="translate(730.765135 389.396875) scale(0.2 -0.2)">
       <use xlink:href="#DejaVuSans-34"/>
       <use xlink:href="#DejaVuSans-30" x="63.623047"/>
       <use xlink:href="#DejaVuSans-30" x="127.246094"/>
      </g>
     </g>
    </g>
   </g>
   <g id="matplotlib.axis_12">
    <g id="ytick_16">
     <g id="line2d_64">
      <g>
       <use xlink:href="#m2c065c06fd" x="561.6" y="358.286611" style="stroke: #000000; stroke-width: 0.8"/>
      </g>
     </g>
    </g>
    <g id="ytick_17">
     <g id="line2d_65">
      <g>
       <use xlink:href="#m2c065c06fd" x="561.6" y="309.394712" style="stroke: #000000; stroke-width: 0.8"/>
      </g>
     </g>
    </g>
    <g id="ytick_18">
     <g id="line2d_66">
      <g>
       <use xlink:href="#m2c065c06fd" x="561.6" y="260.502813" style="stroke: #000000; stroke-width: 0.8"/>
      </g>
     </g>
    </g>
   </g>
   <g id="line2d_67">
    <path d="M 571.807718 309.126253 
L 572.634816 308.514464 
L 578.044295 305.788769 
L 580.749305 304.667355 
L 583.43781 303.788149 
L 586.073905 303.160657 
L 588.716106 302.791747 
L 593.179147 302.511786 
L 608.30736 301.823455 
L 623.477428 300.983575 
L 628.843156 300.930366 
L 633.320526 301.086599 
L 636.902828 301.417868 
L 640.494738 301.983549 
L 643.216352 302.593763 
L 645.940092 303.388437 
L 650.36327 304.946344 
L 653.868858 306.4411 
L 656.505304 307.755361 
L 659.189386 309.422629 
L 661.933055 311.521775 
L 665.675656 314.798782 
L 669.391732 318.054114 
L 672.034525 320.082686 
L 673.740139 321.178715 
L 675.439515 322.07575 
L 678.017809 323.134719 
L 680.63055 323.92638 
L 683.266882 324.511642 
L 686.803308 325.071464 
L 691.237697 325.532417 
L 696.568587 325.81122 
L 701.00564 325.860107 
L 705.439213 325.731101 
L 708.989507 325.518463 
L 713.498783 325.009636 
L 717.33618 324.135841 
L 718.23919 323.831833 
L 719.124073 323.720491 
L 720.809616 322.969934 
L 721.643514 322.464374 
L 722.49577 322.249313 
L 725.852099 319.823821 
L 727.482309 318.153294 
L 729.048856 315.970815 
L 730.472776 313.199117 
L 731.624242 309.899019 
L 732.53618 307.201805 
L 732.998033 306.36564 
L 733.54275 305.737158 
L 734.716202 304.971889 
L 737.440303 304.232628 
L 738.171063 304.278442 
L 738.925888 304.004339 
L 739.691965 304.125854 
L 740.472025 303.811253 
L 741.268147 304.016218 
L 742.072245 303.712465 
L 742.897174 304.003139 
L 744.567892 303.64949 
L 745.418939 304.012568 
L 746.266467 303.662352 
L 747.144433 304.049393 
L 747.986973 303.577344 
L 748.882795 304.220581 
L 749.704926 303.772785 
L 750.608683 303.581396 
L 751.45208 304.081421 
L 752.304459 303.80586 
L 753.164162 304.39733 
L 753.649048 304.023803 
L 754.194308 304.165297 
L 754.194308 304.165297 
" clip-path="url(#p8cd3bcc0a9)" style="fill: none; stroke: #d62728; stroke-width: 1.5; stroke-linecap: square"/>
   </g>
   <g id="line2d_68">
    <path d="M 571.807718 309.189557 
L 572.634816 308.445136 
L 578.044295 305.053105 
L 580.749305 303.645249 
L 583.43781 302.545683 
L 586.073905 301.73256 
L 588.716106 301.131703 
L 592.287775 300.553703 
L 597.627053 299.977302 
L 616.332826 298.406106 
L 625.265328 297.781211 
L 630.633373 297.623392 
L 634.216293 297.709313 
L 637.798759 298.030137 
L 641.398536 298.596045 
L 645.037551 299.397165 
L 648.604776 300.371875 
L 651.240849 301.278091 
L 653.868858 302.456844 
L 655.62214 303.420077 
L 657.394447 304.649616 
L 659.189386 306.176692 
L 661.01066 307.999949 
L 664.734992 312.175309 
L 668.477532 316.37653 
L 672.034525 319.976513 
L 674.588944 322.180815 
L 677.15426 323.984961 
L 679.756436 325.449061 
L 682.386225 326.596046 
L 685.033026 327.496475 
L 688.575846 328.407381 
L 692.125529 329.063295 
L 696.568587 329.623268 
L 701.891446 329.98649 
L 706.327072 330.052759 
L 710.769655 329.854557 
L 713.498783 329.535775 
L 715.440555 329.160417 
L 717.33618 328.63895 
L 719.981792 327.747969 
L 721.643514 326.568441 
L 722.49577 326.146732 
L 724.193448 324.691705 
L 725.025104 323.887374 
L 726.675711 321.924997 
L 728.274735 319.390522 
L 729.048856 317.969304 
L 730.472776 314.419706 
L 731.624242 310.143628 
L 732.072914 308.045607 
L 732.998033 305.294958 
L 734.090266 303.837104 
L 736.028967 302.843511 
L 736.71449 302.510807 
L 737.440303 302.44436 
L 738.171063 302.180374 
L 738.925888 302.194657 
L 739.691965 301.954036 
L 740.472025 302.037781 
L 741.268147 301.796898 
L 742.072245 301.906794 
L 742.897174 301.670095 
L 744.567892 301.831628 
L 745.418939 301.600522 
L 746.266467 301.835517 
L 747.144433 301.608538 
L 747.986973 301.923035 
L 748.882795 301.538665 
L 750.608683 302.06094 
L 751.45208 301.63681 
L 752.304459 301.869079 
L 753.164162 301.781982 
L 754.194308 302.132087 
L 754.194308 302.132087 
" clip-path="url(#p8cd3bcc0a9)" style="fill: none; stroke: #2ca02c; stroke-width: 1.5; stroke-linecap: square"/>
   </g>
   <g id="patch_29">
    <path d="M 561.6 367.2 
L 561.6 226.548837 
" style="fill: none; stroke: #000000; stroke-width: 0.8; stroke-linejoin: miter; stroke-linecap: square"/>
   </g>
   <g id="patch_30">
    <path d="M 777.6 367.2 
L 777.6 226.548837 
" style="fill: none; stroke: #000000; stroke-width: 0.8; stroke-linejoin: miter; stroke-linecap: square"/>
   </g>
   <g id="patch_31">
    <path d="M 561.6 367.2 
L 777.6 367.2 
" style="fill: none; stroke: #000000; stroke-width: 0.8; stroke-linejoin: miter; stroke-linecap: square"/>
   </g>
   <g id="patch_32">
    <path d="M 561.6 226.548837 
L 777.6 226.548837 
" style="fill: none; stroke: #000000; stroke-width: 0.8; stroke-linejoin: miter; stroke-linecap: square"/>
   </g>
  </g>
  <g id="text_28">
   <!--   -->
   <g transform="translate(428.027344 27.636094) scale(0.25 -0.25)">
    <use xlink:href="#DejaVuSans-20"/>
   </g>
  </g>
 </g>
 <defs>
  <clipPath id="pa3f1f94932">
   <rect x="86.4" y="64.8" width="216" height="140.651163"/>
  </clipPath>
  <clipPath id="pf2a3efdd1b">
   <rect x="324" y="64.8" width="216" height="140.651163"/>
  </clipPath>
  <clipPath id="pa698558e90">
   <rect x="561.6" y="64.8" width="216" height="140.651163"/>
  </clipPath>
  <clipPath id="p3a9513c57e">
   <rect x="86.4" y="226.548837" width="216" height="140.651163"/>
  </clipPath>
  <clipPath id="pc8eb6fea61">
   <rect x="324" y="226.548837" width="216" height="140.651163"/>
  </clipPath>
  <clipPath id="p8cd3bcc0a9">
   <rect x="561.6" y="226.548837" width="216" height="140.651163"/>
  </clipPath>
 </defs>
</svg>
