<?xml version="1.0" encoding="utf-8" standalone="no"?>
<!DOCTYPE svg PUBLIC "-//W3C//DTD SVG 1.1//EN"
  "http://www.w3.org/Graphics/SVG/1.1/DTD/svg11.dtd">
<svg xmlns:xlink="http://www.w3.org/1999/xlink" width="864pt" height="432pt" viewBox="0 0 864 432" xmlns="http://www.w3.org/2000/svg" version="1.1">
 <metadata>
  <rdf:RDF xmlns:dc="http://purl.org/dc/elements/1.1/" xmlns:cc="http://creativecommons.org/ns#" xmlns:rdf="http://www.w3.org/1999/02/22-rdf-syntax-ns#">
   <cc:Work>
    <dc:type rdf:resource="http://purl.org/dc/dcmitype/StillImage"/>
    <dc:date>2024-10-15T13:34:48.594155</dc:date>
    <dc:format>image/svg+xml</dc:format>
    <dc:creator>
     <cc:Agent>
      <dc:title>Matplotlib v3.8.4, https://matplotlib.org/</dc:title>
     </cc:Agent>
    </dc:creator>
   </cc:Work>
  </rdf:RDF>
 </metadata>
 <defs>
  <style type="text/css">*{stroke-linejoin: round; stroke-linecap: butt}</style>
 </defs>
 <g id="figure_1">
  <g id="patch_1">
   <path d="M 0 432 
L 864 432 
L 864 0 
L 0 0 
z
" style="fill: #ffffff"/>
  </g>
  <g id="axes_1">
   <g id="patch_2">
    <path d="M 86.4 205.451163 
L 302.4 205.451163 
L 302.4 64.8 
L 86.4 64.8 
z
" style="fill: #ffffff"/>
   </g>
   <g id="line2d_1">
    <path d="M 86.4 131.530526 
L 302.4 131.530526 
" clip-path="url(#p3da16670d0)" style="fill: none; stroke-dasharray: 3.7,1.6; stroke-dashoffset: 0; stroke: #000000"/>
   </g>
   <g id="matplotlib.axis_1">
    <g id="xtick_1">
     <g id="line2d_2">
      <defs>
       <path id="me3de96a24a" d="M 0 0 
L 0 3.5 
" style="stroke: #000000; stroke-width: 0.8"/>
      </defs>
      <g>
       <use xlink:href="#me3de96a24a" x="103.072348" y="205.451163" style="stroke: #000000; stroke-width: 0.8"/>
      </g>
     </g>
    </g>
    <g id="xtick_2">
     <g id="line2d_3">
      <g>
       <use xlink:href="#me3de96a24a" x="164.640799" y="205.451163" style="stroke: #000000; stroke-width: 0.8"/>
      </g>
     </g>
    </g>
    <g id="xtick_3">
     <g id="line2d_4">
      <g>
       <use xlink:href="#me3de96a24a" x="226.20925" y="205.451163" style="stroke: #000000; stroke-width: 0.8"/>
      </g>
     </g>
    </g>
    <g id="xtick_4">
     <g id="line2d_5">
      <g>
       <use xlink:href="#me3de96a24a" x="287.777702" y="205.451163" style="stroke: #000000; stroke-width: 0.8"/>
      </g>
     </g>
    </g>
   </g>
   <g id="matplotlib.axis_2">
    <g id="ytick_1">
     <g id="line2d_6">
      <defs>
       <path id="m5a2386105c" d="M 0 0 
L -3.5 0 
" style="stroke: #000000; stroke-width: 0.8"/>
      </defs>
      <g>
       <use xlink:href="#m5a2386105c" x="86.4" y="180.032541" style="stroke: #000000; stroke-width: 0.8"/>
      </g>
     </g>
     <g id="text_1">
      <!-- −2 -->
      <g transform="translate(49.915625 187.630979) scale(0.2 -0.2)">
       <defs>
        <path id="DejaVuSans-2212" d="M 678 2272 
L 4684 2272 
L 4684 1741 
L 678 1741 
L 678 2272 
z
" transform="scale(0.015625)"/>
        <path id="DejaVuSans-32" d="M 1228 531 
L 3431 531 
L 3431 0 
L 469 0 
L 469 531 
Q 828 903 1448 1529 
Q 2069 2156 2228 2338 
Q 2531 2678 2651 2914 
Q 2772 3150 2772 3378 
Q 2772 3750 2511 3984 
Q 2250 4219 1831 4219 
Q 1534 4219 1204 4116 
Q 875 4013 500 3803 
L 500 4441 
Q 881 4594 1212 4672 
Q 1544 4750 1819 4750 
Q 2544 4750 2975 4387 
Q 3406 4025 3406 3419 
Q 3406 3131 3298 2873 
Q 3191 2616 2906 2266 
Q 2828 2175 2409 1742 
Q 1991 1309 1228 531 
z
" transform="scale(0.015625)"/>
       </defs>
       <use xlink:href="#DejaVuSans-2212"/>
       <use xlink:href="#DejaVuSans-32" x="83.789062"/>
      </g>
     </g>
    </g>
    <g id="ytick_2">
     <g id="line2d_7">
      <g>
       <use xlink:href="#m5a2386105c" x="86.4" y="131.530526" style="stroke: #000000; stroke-width: 0.8"/>
      </g>
     </g>
     <g id="text_2">
      <!-- 0 -->
      <g transform="translate(66.675 139.128964) scale(0.2 -0.2)">
       <defs>
        <path id="DejaVuSans-30" d="M 2034 4250 
Q 1547 4250 1301 3770 
Q 1056 3291 1056 2328 
Q 1056 1369 1301 889 
Q 1547 409 2034 409 
Q 2525 409 2770 889 
Q 3016 1369 3016 2328 
Q 3016 3291 2770 3770 
Q 2525 4250 2034 4250 
z
M 2034 4750 
Q 2819 4750 3233 4129 
Q 3647 3509 3647 2328 
Q 3647 1150 3233 529 
Q 2819 -91 2034 -91 
Q 1250 -91 836 529 
Q 422 1150 422 2328 
Q 422 3509 836 4129 
Q 1250 4750 2034 4750 
z
" transform="scale(0.015625)"/>
       </defs>
       <use xlink:href="#DejaVuSans-30"/>
      </g>
     </g>
    </g>
    <g id="ytick_3">
     <g id="line2d_8">
      <g>
       <use xlink:href="#m5a2386105c" x="86.4" y="83.028511" style="stroke: #000000; stroke-width: 0.8"/>
      </g>
     </g>
     <g id="text_3">
      <!-- 2 -->
      <g transform="translate(66.675 90.626948) scale(0.2 -0.2)">
       <use xlink:href="#DejaVuSans-32"/>
      </g>
     </g>
    </g>
   </g>
   <g id="line2d_9">
    <path d="M 103.197912 131.623286 
L 104.821016 130.462126 
L 108.305815 127.691412 
L 110.008074 126.632115 
L 111.769986 125.821337 
L 113.545135 125.25183 
L 116.176133 124.651527 
L 117.873744 124.582716 
L 120.56999 124.513346 
L 122.279507 124.2532 
L 124.918375 124.430097 
L 126.774275 124.260238 
L 128.563181 123.900099 
L 131.851721 123.080663 
L 132.706641 123.020104 
L 133.601003 122.82487 
L 137.200349 121.492966 
L 140.842922 119.58689 
L 144.600783 117.4252 
L 146.440058 116.169827 
L 147.325118 115.576347 
L 153.6749 112.509984 
L 155.318486 112.230793 
L 157.085624 112.115334 
L 160.805787 112.116488 
L 162.4605 112.424395 
L 164.151688 112.939984 
L 165.910061 113.604245 
L 167.619235 114.448236 
L 169.317313 115.55071 
L 171.037897 116.918166 
L 173.285212 119.126952 
L 175.652341 121.880778 
L 180.734327 127.961421 
L 182.311769 129.613209 
L 185.554597 132.522561 
L 186.900111 133.430651 
L 190.085961 135.017607 
L 191.667344 135.534785 
L 194.955107 136.195812 
L 195.650119 136.258084 
L 201.522731 135.574039 
L 204.795819 135.561445 
L 206.446535 135.685482 
L 209.827614 136.488159 
L 216.964212 139.425644 
L 217.886198 139.773036 
L 219.794927 140.237159 
L 222.626319 141.028731 
L 224.47419 141.085218 
L 227.503234 140.939216 
L 229.611242 140.833254 
L 231.851478 140.515533 
L 234.129875 140.349552 
L 236.466707 140.010577 
L 238.73865 140.020445 
L 239.854465 139.984088 
L 240.946418 139.831465 
L 242.090164 139.51749 
L 243.272381 139.367931 
L 246.600972 139.584767 
L 247.65607 139.272562 
L 248.790299 138.690133 
L 250.022513 138.229955 
L 251.300893 137.977826 
L 254.892223 137.836861 
L 257.19639 137.265775 
L 259.627496 136.675747 
L 263.173977 136.202313 
L 264.297608 136.066027 
L 269.707075 134.670665 
L 272.857442 133.728824 
L 278.598501 132.316983 
L 288.524835 130.529065 
L 289.60807 130.469139 
L 290.141233 130.431296 
L 291.171538 130.64455 
L 291.664774 130.855364 
L 292.581818 131.520153 
L 292.581818 131.520153 
" clip-path="url(#p3da16670d0)" style="fill: none; stroke: #d62728; stroke-width: 1.5; stroke-linecap: square"/>
   </g>
   <g id="line2d_10">
    <path d="M 103.197912 131.857575 
L 103.99146 130.961948 
L 109.156946 124.020466 
L 110.880284 122.268539 
L 112.657607 120.845019 
L 114.438917 119.819511 
L 116.176133 119.03791 
L 117.011779 118.825979 
L 122.279507 118.279222 
L 125.84754 118.496784 
L 127.681714 118.301573 
L 129.419095 117.898564 
L 131.041218 117.43224 
L 132.706641 117.283725 
L 134.496935 116.750724 
L 138.130879 115.054395 
L 140.842922 113.339881 
L 145.535531 109.812838 
L 148.217107 107.777284 
L 153.6749 104.560295 
L 155.318486 104.165759 
L 157.085624 103.961962 
L 159.94681 103.892834 
L 161.634771 104.117816 
L 163.293533 104.616212 
L 165.032619 105.346043 
L 166.76845 106.298658 
L 168.467957 107.510895 
L 170.180893 109.099395 
L 171.841295 110.980813 
L 174.026803 113.912645 
L 177.356043 119.129099 
L 181.519903 125.685423 
L 183.996944 129.054775 
L 186.21934 131.782582 
L 188.458994 133.710758 
L 190.085961 134.895005 
L 191.667344 135.728455 
L 193.358288 136.340505 
L 195.650119 137.021146 
L 201.522731 137.135676 
L 203.982885 137.486385 
L 205.610518 137.914496 
L 206.446535 138.185506 
L 209.827614 139.960888 
L 214.266872 143.032436 
L 215.163474 143.726601 
L 216.057586 144.218001 
L 216.964212 144.91521 
L 222.626319 147.410238 
L 223.540404 147.713288 
L 225.457156 147.852494 
L 229.611242 147.87872 
L 230.708606 147.826273 
L 231.851478 147.633874 
L 232.997272 147.616686 
L 237.620608 147.074712 
L 239.854465 146.937793 
L 240.946418 146.738099 
L 242.090164 146.36508 
L 243.272381 146.159201 
L 246.600972 146.161297 
L 247.65607 145.786524 
L 248.790299 145.164615 
L 250.022513 144.621953 
L 251.300893 144.302885 
L 256.03315 143.609708 
L 259.627496 142.432064 
L 261.999652 141.967812 
L 264.297608 141.46798 
L 270.76626 139.054699 
L 273.867606 137.865148 
L 281.115032 135.349945 
L 286.810321 133.499977 
L 289.60807 132.2066 
L 290.663685 131.784967 
L 292.136289 131.649114 
L 292.581818 131.910829 
L 292.581818 131.910829 
" clip-path="url(#p3da16670d0)" style="fill: none; stroke: #2ca02c; stroke-width: 1.5; stroke-linecap: square"/>
   </g>
   <g id="patch_3">
    <path d="M 86.4 205.451163 
L 86.4 64.8 
" style="fill: none; stroke: #000000; stroke-width: 0.8; stroke-linejoin: miter; stroke-linecap: square"/>
   </g>
   <g id="patch_4">
    <path d="M 302.4 205.451163 
L 302.4 64.8 
" style="fill: none; stroke: #000000; stroke-width: 0.8; stroke-linejoin: miter; stroke-linecap: square"/>
   </g>
   <g id="patch_5">
    <path d="M 86.4 205.451163 
L 302.4 205.451163 
" style="fill: none; stroke: #000000; stroke-width: 0.8; stroke-linejoin: miter; stroke-linecap: square"/>
   </g>
   <g id="patch_6">
    <path d="M 86.4 64.8 
L 302.4 64.8 
" style="fill: none; stroke: #000000; stroke-width: 0.8; stroke-linejoin: miter; stroke-linecap: square"/>
   </g>
   <g id="text_4">
    <!-- -2$\sigma_{PC}$ -->
    <g transform="translate(162.275 58.8) scale(0.25 -0.25)">
     <defs>
      <path id="DejaVuSans-2d" d="M 313 2009 
L 1997 2009 
L 1997 1497 
L 313 1497 
L 313 2009 
z
" transform="scale(0.015625)"/>
      <path id="DejaVuSans-Oblique-3c3" d="M 2219 3044 
Q 1744 3044 1422 2700 
Q 1081 2341 969 1747 
Q 844 1119 1044 756 
Q 1241 397 1706 397 
Q 2166 397 2503 759 
Q 2844 1122 2966 1747 
Q 3075 2319 2881 2700 
Q 2700 3044 2219 3044 
z
M 2309 3503 
L 4219 3500 
L 4106 2925 
L 3463 2925 
Q 3706 2438 3575 1747 
Q 3406 888 2884 400 
Q 2359 -91 1609 -91 
Q 856 -91 525 400 
Q 194 888 363 1747 
Q 528 2609 1050 3097 
Q 1484 3503 2309 3503 
z
" transform="scale(0.015625)"/>
      <path id="DejaVuSans-Oblique-50" d="M 1081 4666 
L 2541 4666 
Q 3178 4666 3512 4369 
Q 3847 4072 3847 3500 
Q 3847 2731 3353 2303 
Q 2859 1875 1966 1875 
L 1172 1875 
L 806 0 
L 172 0 
L 1081 4666 
z
M 1613 4147 
L 1275 2394 
L 2069 2394 
Q 2606 2394 2893 2669 
Q 3181 2944 3181 3456 
Q 3181 3784 2986 3965 
Q 2791 4147 2438 4147 
L 1613 4147 
z
" transform="scale(0.015625)"/>
      <path id="DejaVuSans-Oblique-43" d="M 4447 4306 
L 4319 3641 
Q 4019 3944 3683 4091 
Q 3347 4238 2956 4238 
Q 2422 4238 2017 3981 
Q 1613 3725 1319 3200 
Q 1131 2863 1032 2486 
Q 934 2109 934 1728 
Q 934 1091 1264 756 
Q 1594 422 2222 422 
Q 2656 422 3056 561 
Q 3456 700 3834 978 
L 3688 231 
Q 3316 72 2936 -9 
Q 2556 -91 2175 -91 
Q 1278 -91 773 396 
Q 269 884 269 1753 
Q 269 2309 461 2846 
Q 653 3384 1013 3828 
Q 1394 4300 1883 4525 
Q 2372 4750 3022 4750 
Q 3422 4750 3780 4639 
Q 4138 4528 4447 4306 
z
" transform="scale(0.015625)"/>
     </defs>
     <use xlink:href="#DejaVuSans-2d" transform="translate(0 0.78125)"/>
     <use xlink:href="#DejaVuSans-32" transform="translate(36.083984 0.78125)"/>
     <use xlink:href="#DejaVuSans-Oblique-3c3" transform="translate(99.707031 0.78125)"/>
     <use xlink:href="#DejaVuSans-Oblique-50" transform="translate(163.085938 -15.625) scale(0.7)"/>
     <use xlink:href="#DejaVuSans-Oblique-43" transform="translate(205.297852 -15.625) scale(0.7)"/>
    </g>
   </g>
  </g>
  <g id="axes_2">
   <g id="patch_7">
    <path d="M 324 205.451163 
L 540 205.451163 
L 540 64.8 
L 324 64.8 
z
" style="fill: #ffffff"/>
   </g>
   <g id="line2d_11">
    <path d="M 324 131.530526 
L 540 131.530526 
" clip-path="url(#pc3fc76805f)" style="fill: none; stroke-dasharray: 3.7,1.6; stroke-dashoffset: 0; stroke: #000000"/>
   </g>
   <g id="matplotlib.axis_3">
    <g id="xtick_5">
     <g id="line2d_12">
      <g>
       <use xlink:href="#me3de96a24a" x="340.672348" y="205.451163" style="stroke: #000000; stroke-width: 0.8"/>
      </g>
     </g>
    </g>
    <g id="xtick_6">
     <g id="line2d_13">
      <g>
       <use xlink:href="#me3de96a24a" x="402.240799" y="205.451163" style="stroke: #000000; stroke-width: 0.8"/>
      </g>
     </g>
    </g>
    <g id="xtick_7">
     <g id="line2d_14">
      <g>
       <use xlink:href="#me3de96a24a" x="463.80925" y="205.451163" style="stroke: #000000; stroke-width: 0.8"/>
      </g>
     </g>
    </g>
    <g id="xtick_8">
     <g id="line2d_15">
      <g>
       <use xlink:href="#me3de96a24a" x="525.377702" y="205.451163" style="stroke: #000000; stroke-width: 0.8"/>
      </g>
     </g>
    </g>
   </g>
   <g id="matplotlib.axis_4">
    <g id="ytick_4">
     <g id="line2d_16">
      <g>
       <use xlink:href="#m5a2386105c" x="324" y="180.032541" style="stroke: #000000; stroke-width: 0.8"/>
      </g>
     </g>
    </g>
    <g id="ytick_5">
     <g id="line2d_17">
      <g>
       <use xlink:href="#m5a2386105c" x="324" y="131.530526" style="stroke: #000000; stroke-width: 0.8"/>
      </g>
     </g>
    </g>
    <g id="ytick_6">
     <g id="line2d_18">
      <g>
       <use xlink:href="#m5a2386105c" x="324" y="83.028511" style="stroke: #000000; stroke-width: 0.8"/>
      </g>
     </g>
    </g>
   </g>
   <g id="line2d_19">
    <path d="M 341.687292 129.134442 
L 343.797769 123.317326 
L 345.954189 117.755833 
L 347.335643 114.673509 
L 348.745381 112.006282 
L 350.145903 109.887718 
L 351.530267 108.298712 
L 353.484001 106.714399 
L 354.837889 105.970799 
L 356.167569 105.556061 
L 357.395484 105.250928 
L 358.719206 104.926858 
L 360.720208 104.717245 
L 363.699551 104.451833 
L 364.938546 104.106509 
L 366.827156 103.675978 
L 370.67281 102.54552 
L 371.995725 102.017448 
L 373.339244 101.589245 
L 376.589376 100.435699 
L 378.569408 100.159137 
L 380.99136 99.95885 
L 382.36703 100.056104 
L 383.779184 100.491 
L 385.676569 101.421142 
L 386.969454 102.28134 
L 388.328242 103.485739 
L 389.663595 104.947404 
L 391.004674 106.685727 
L 392.378146 108.776378 
L 394.798275 113.051008 
L 397.541568 118.432437 
L 401.031282 125.217775 
L 403.129317 128.783986 
L 405.019078 131.600262 
L 406.924777 133.933127 
L 408.968389 136.011297 
L 411.066885 137.761964 
L 413.565205 139.506243 
L 419.009075 143.257857 
L 421.491133 145.366401 
L 423.321145 147.139655 
L 430.446658 155.149885 
L 431.579383 156.141633 
L 432.63062 156.959626 
L 434.24978 158.217115 
L 435.909439 159.125973 
L 437.049061 159.682746 
L 439.300129 160.268501 
L 441.387431 160.323189 
L 441.908878 160.463842 
L 442.444116 160.488788 
L 444.4057 160.117868 
L 444.91003 160.322145 
L 445.457754 160.406549 
L 446.026587 160.34385 
L 448.152989 159.628156 
L 449.239682 159.527323 
L 450.943186 158.951591 
L 453.771064 157.683206 
L 456.139658 156.451082 
L 459.280442 154.367116 
L 462.515144 151.898498 
L 464.536815 150.14365 
L 466.488468 148.176399 
L 467.763776 146.672234 
L 469.022267 144.918577 
L 470.283717 142.788902 
L 471.590328 140.10805 
L 472.919419 136.847448 
L 474.234598 133.078904 
L 474.866328 131.207289 
L 474.866328 131.207289 
" clip-path="url(#pc3fc76805f)" style="fill: none; stroke: #d62728; stroke-width: 1.5; stroke-linecap: square"/>
   </g>
   <g id="line2d_20">
    <path d="M 341.687292 131.368534 
L 343.063515 126.684862 
L 345.954189 116.927287 
L 347.335643 112.823012 
L 348.745381 109.160103 
L 350.145903 106.126366 
L 351.530267 103.727038 
L 352.827478 101.973815 
L 354.161238 100.509687 
L 355.51363 99.45823 
L 358.046992 98.199912 
L 359.394818 97.759985 
L 361.353602 97.41868 
L 363.123591 97.236504 
L 365.571312 96.474387 
L 366.200269 96.35162 
L 368.764785 95.469677 
L 369.39692 95.278449 
L 372.679297 93.728374 
L 373.979026 93.206009 
L 375.23995 92.638048 
L 376.589376 92.022415 
L 377.944331 91.635815 
L 381.652429 91.113702 
L 383.095835 91.338348 
L 384.424391 91.837531 
L 385.676569 92.499898 
L 386.969454 93.414932 
L 388.328242 94.72743 
L 389.663595 96.34831 
L 391.004674 98.31304 
L 392.378146 100.698995 
L 394.798275 105.637889 
L 397.541568 111.953537 
L 401.031282 120.096317 
L 403.829299 125.863558 
L 405.598471 128.998817 
L 407.626516 132.053719 
L 409.644364 134.636139 
L 412.399932 137.670477 
L 419.009075 144.341866 
L 421.491133 147.413814 
L 423.321145 149.993491 
L 427.553187 156.78627 
L 429.280976 159.570728 
L 431.024867 162.082225 
L 434.80439 166.237681 
L 437.619322 168.120123 
L 439.300129 168.8192 
L 441.387431 169.058625 
L 441.908878 169.228911 
L 442.444116 169.272998 
L 443.465422 168.976924 
L 443.935876 168.8309 
L 444.4057 168.910308 
L 444.91003 169.113981 
L 445.457754 169.21517 
L 446.026587 169.131853 
L 448.152989 168.304016 
L 449.239682 168.154462 
L 450.380092 167.6942 
L 451.516068 167.150812 
L 456.760585 163.878653 
L 459.932841 161.268519 
L 463.186379 158.217048 
L 465.198495 156.041846 
L 466.488468 154.472881 
L 467.763776 152.70128 
L 469.022267 150.619913 
L 470.283717 148.077281 
L 471.590328 144.855187 
L 472.919419 140.926502 
L 474.234598 136.351946 
L 474.866328 134.079404 
L 474.866328 134.079404 
" clip-path="url(#pc3fc76805f)" style="fill: none; stroke: #2ca02c; stroke-width: 1.5; stroke-linecap: square"/>
   </g>
   <g id="patch_8">
    <path d="M 324 205.451163 
L 324 64.8 
" style="fill: none; stroke: #000000; stroke-width: 0.8; stroke-linejoin: miter; stroke-linecap: square"/>
   </g>
   <g id="patch_9">
    <path d="M 540 205.451163 
L 540 64.8 
" style="fill: none; stroke: #000000; stroke-width: 0.8; stroke-linejoin: miter; stroke-linecap: square"/>
   </g>
   <g id="patch_10">
    <path d="M 324 205.451163 
L 540 205.451163 
" style="fill: none; stroke: #000000; stroke-width: 0.8; stroke-linejoin: miter; stroke-linecap: square"/>
   </g>
   <g id="patch_11">
    <path d="M 324 64.8 
L 540 64.8 
" style="fill: none; stroke: #000000; stroke-width: 0.8; stroke-linejoin: miter; stroke-linecap: square"/>
   </g>
   <g id="text_5">
    <!-- $\mathbf{c}_0$ -->
    <g transform="translate(418.5 58.8) scale(0.25 -0.25)">
     <defs>
      <path id="DejaVuSans-Bold-63" d="M 3366 3391 
L 3366 2478 
Q 3138 2634 2908 2709 
Q 2678 2784 2431 2784 
Q 1963 2784 1702 2511 
Q 1441 2238 1441 1747 
Q 1441 1256 1702 982 
Q 1963 709 2431 709 
Q 2694 709 2930 787 
Q 3166 866 3366 1019 
L 3366 103 
Q 3103 6 2833 -42 
Q 2563 -91 2291 -91 
Q 1344 -91 809 395 
Q 275 881 275 1747 
Q 275 2613 809 3098 
Q 1344 3584 2291 3584 
Q 2566 3584 2833 3536 
Q 3100 3488 3366 3391 
z
" transform="scale(0.015625)"/>
     </defs>
     <use xlink:href="#DejaVuSans-Bold-63"/>
     <use xlink:href="#DejaVuSans-30" transform="translate(60.234375 -16.40625) scale(0.7)"/>
    </g>
   </g>
  </g>
  <g id="axes_3">
   <g id="patch_12">
    <path d="M 561.6 205.451163 
L 777.6 205.451163 
L 777.6 64.8 
L 561.6 64.8 
z
" style="fill: #ffffff"/>
   </g>
   <g id="line2d_21">
    <path d="M 561.6 131.530526 
L 777.6 131.530526 
" clip-path="url(#p96d54615a1)" style="fill: none; stroke-dasharray: 3.7,1.6; stroke-dashoffset: 0; stroke: #000000"/>
   </g>
   <g id="matplotlib.axis_5">
    <g id="xtick_9">
     <g id="line2d_22">
      <g>
       <use xlink:href="#me3de96a24a" x="578.272348" y="205.451163" style="stroke: #000000; stroke-width: 0.8"/>
      </g>
     </g>
    </g>
    <g id="xtick_10">
     <g id="line2d_23">
      <g>
       <use xlink:href="#me3de96a24a" x="639.840799" y="205.451163" style="stroke: #000000; stroke-width: 0.8"/>
      </g>
     </g>
    </g>
    <g id="xtick_11">
     <g id="line2d_24">
      <g>
       <use xlink:href="#me3de96a24a" x="701.40925" y="205.451163" style="stroke: #000000; stroke-width: 0.8"/>
      </g>
     </g>
    </g>
    <g id="xtick_12">
     <g id="line2d_25">
      <g>
       <use xlink:href="#me3de96a24a" x="762.977702" y="205.451163" style="stroke: #000000; stroke-width: 0.8"/>
      </g>
     </g>
    </g>
   </g>
   <g id="matplotlib.axis_6">
    <g id="ytick_7">
     <g id="line2d_26">
      <g>
       <use xlink:href="#m5a2386105c" x="561.6" y="180.032541" style="stroke: #000000; stroke-width: 0.8"/>
      </g>
     </g>
    </g>
    <g id="ytick_8">
     <g id="line2d_27">
      <g>
       <use xlink:href="#m5a2386105c" x="561.6" y="131.530526" style="stroke: #000000; stroke-width: 0.8"/>
      </g>
     </g>
    </g>
    <g id="ytick_9">
     <g id="line2d_28">
      <g>
       <use xlink:href="#m5a2386105c" x="561.6" y="83.028511" style="stroke: #000000; stroke-width: 0.8"/>
      </g>
     </g>
    </g>
   </g>
   <g id="line2d_29">
    <path d="M 571.418182 126.433764 
L 574.392069 104.0229 
L 575.606789 96.701908 
L 576.79898 90.952101 
L 577.551135 87.883903 
L 578.269572 86.129506 
L 580.06669 82.667056 
L 580.395859 82.563219 
L 580.744655 82.608994 
L 581.461897 82.320304 
L 582.494643 81.445961 
L 583.122815 80.828021 
L 583.419096 80.77525 
L 583.718296 80.969747 
L 584.032401 81.387934 
L 584.359489 81.563131 
L 585.009289 81.63223 
L 585.997424 82.115302 
L 586.321649 82.104489 
L 586.643655 82.233495 
L 586.968027 82.485765 
L 587.292103 82.592631 
L 587.620387 83.0982 
L 587.96263 83.26255 
L 588.308501 83.610435 
L 588.64208 83.445917 
L 588.965195 83.730571 
L 589.281773 83.688982 
L 589.601376 84.181671 
L 589.932075 84.404534 
L 590.281538 84.829336 
L 591.575469 84.743579 
L 591.869759 84.968295 
L 593.193688 86.717395 
L 594.550698 87.910048 
L 595.190679 89.272227 
L 596.558283 93.046322 
L 597.586362 96.767148 
L 599.544879 105.010196 
L 601.35177 114.137611 
L 603.545915 124.36721 
L 604.31079 127.385656 
L 604.951164 129.412286 
L 605.983475 133.282406 
L 607.471326 137.485906 
L 608.997263 141.368003 
L 611.213188 147.376581 
L 612.739327 151.885427 
L 620.922686 177.027872 
L 622.670363 180.625318 
L 624.525539 183.575135 
L 625.284336 184.439799 
L 626.015362 185.582908 
L 626.372869 186.020522 
L 626.722222 186.194221 
L 627.088019 186.166856 
L 627.466415 186.285402 
L 627.839573 186.617618 
L 628.197056 187.105158 
L 628.537629 187.339493 
L 628.88034 187.050005 
L 629.657682 186.133702 
L 630.083976 186.008628 
L 631.314452 186.138663 
L 632.13726 185.433406 
L 632.580046 184.99493 
L 634.452474 183.648628 
L 635.403513 182.869218 
L 637.456647 180.906515 
L 642.412115 175.542131 
L 646.907722 169.988012 
L 649.428082 166.372477 
L 651.160879 163.665069 
L 652.961565 160.488438 
L 654.838085 156.732898 
L 655.822667 154.610984 
L 657.932065 149.360836 
L 660.194031 142.722398 
L 663.728092 130.707804 
L 663.728092 130.707804 
" clip-path="url(#p96d54615a1)" style="fill: none; stroke: #d62728; stroke-width: 1.5; stroke-linecap: square"/>
   </g>
   <g id="line2d_30">
    <path d="M 571.418182 130.776867 
L 575.606789 95.533376 
L 576.79898 88.015108 
L 577.906751 82.317887 
L 579.734512 76.310353 
L 580.06669 75.326442 
L 580.395859 74.910886 
L 580.744655 74.673066 
L 581.81689 73.373268 
L 583.122815 71.426835 
L 583.419096 71.193235 
L 583.718296 71.397422 
L 584.032401 71.799547 
L 584.359489 71.812614 
L 584.685744 71.957011 
L 585.009289 71.800599 
L 585.331067 72.137903 
L 585.663042 72.318061 
L 586.643655 72.43064 
L 586.968027 72.885334 
L 587.292103 72.961591 
L 587.620387 73.535635 
L 588.308501 74.092385 
L 588.64208 73.921911 
L 588.965195 74.128279 
L 589.281773 74.180055 
L 590.281538 75.319822 
L 590.632771 75.39283 
L 590.964135 75.273642 
L 591.279008 75.014914 
L 591.575469 75.063349 
L 591.869759 75.24656 
L 592.833011 76.542877 
L 593.193688 77.011574 
L 593.561819 77.266249 
L 594.233751 77.53398 
L 594.868292 78.517613 
L 595.870399 81.222144 
L 596.899025 84.402409 
L 598.933539 92.543777 
L 599.88335 97.937937 
L 602.104966 109.883493 
L 604.646323 121.802288 
L 605.264147 124.460013 
L 605.983475 127.736176 
L 608.256696 135.846085 
L 609.648372 140.482255 
L 615.616078 163.609277 
L 621.254776 185.496093 
L 623.39589 190.904179 
L 624.89849 194.062612 
L 626.722222 197.307727 
L 627.088019 197.335578 
L 627.466415 197.577735 
L 627.839573 198.054793 
L 628.197056 198.725787 
L 628.537629 199.057928 
L 628.88034 198.785815 
L 629.251234 198.19804 
L 629.657682 197.771764 
L 630.083976 197.678664 
L 631.314452 197.991337 
L 631.718068 197.690528 
L 632.580046 196.750873 
L 634.926357 195.006939 
L 638.01276 191.709035 
L 641.056178 188.120302 
L 644.538775 183.505469 
L 646.907722 180.167057 
L 649.428082 176.128322 
L 651.160879 173.122832 
L 652.961565 169.610888 
L 654.838085 165.445279 
L 656.854495 160.262502 
L 659.048078 153.559695 
L 660.194031 149.625627 
L 663.728092 135.928536 
L 663.728092 135.928536 
" clip-path="url(#p96d54615a1)" style="fill: none; stroke: #2ca02c; stroke-width: 1.5; stroke-linecap: square"/>
   </g>
   <g id="patch_13">
    <path d="M 561.6 205.451163 
L 561.6 64.8 
" style="fill: none; stroke: #000000; stroke-width: 0.8; stroke-linejoin: miter; stroke-linecap: square"/>
   </g>
   <g id="patch_14">
    <path d="M 777.6 205.451163 
L 777.6 64.8 
" style="fill: none; stroke: #000000; stroke-width: 0.8; stroke-linejoin: miter; stroke-linecap: square"/>
   </g>
   <g id="patch_15">
    <path d="M 561.6 205.451163 
L 777.6 205.451163 
" style="fill: none; stroke: #000000; stroke-width: 0.8; stroke-linejoin: miter; stroke-linecap: square"/>
   </g>
   <g id="patch_16">
    <path d="M 561.6 64.8 
L 777.6 64.8 
" style="fill: none; stroke: #000000; stroke-width: 0.8; stroke-linejoin: miter; stroke-linecap: square"/>
   </g>
   <g id="text_6">
    <!-- +2$\sigma_{PC}$ -->
    <g transform="translate(631.475 58.8) scale(0.25 -0.25)">
     <defs>
      <path id="DejaVuSans-2b" d="M 2944 4013 
L 2944 2272 
L 4684 2272 
L 4684 1741 
L 2944 1741 
L 2944 0 
L 2419 0 
L 2419 1741 
L 678 1741 
L 678 2272 
L 2419 2272 
L 2419 4013 
L 2944 4013 
z
" transform="scale(0.015625)"/>
     </defs>
     <use xlink:href="#DejaVuSans-2b" transform="translate(0 0.78125)"/>
     <use xlink:href="#DejaVuSans-32" transform="translate(83.789062 0.78125)"/>
     <use xlink:href="#DejaVuSans-Oblique-3c3" transform="translate(147.412109 0.78125)"/>
     <use xlink:href="#DejaVuSans-Oblique-50" transform="translate(210.791016 -15.625) scale(0.7)"/>
     <use xlink:href="#DejaVuSans-Oblique-43" transform="translate(253.00293 -15.625) scale(0.7)"/>
    </g>
   </g>
   <g id="legend_1">
    <g id="patch_17">
     <path d="M 614.44375 139.5125 
L 763.6 139.5125 
Q 767.6 139.5125 767.6 135.5125 
L 767.6 78.8 
Q 767.6 74.8 763.6 74.8 
L 614.44375 74.8 
Q 610.44375 74.8 610.44375 78.8 
L 610.44375 135.5125 
Q 610.44375 139.5125 614.44375 139.5125 
z
" style="fill: #ffffff; opacity: 0.8; stroke: #cccccc; stroke-linejoin: miter"/>
    </g>
    <g id="line2d_31">
     <path d="M 618.44375 90.996875 
L 638.44375 90.996875 
L 658.44375 90.996875 
" style="fill: none; stroke: #d62728; stroke-width: 1.5; stroke-linecap: square"/>
    </g>
    <g id="text_7">
     <!-- Thoracic -->
     <g transform="translate(674.44375 97.996875) scale(0.2 -0.2)">
      <defs>
       <path id="DejaVuSans-54" d="M -19 4666 
L 3928 4666 
L 3928 4134 
L 2272 4134 
L 2272 0 
L 1638 0 
L 1638 4134 
L -19 4134 
L -19 4666 
z
" transform="scale(0.015625)"/>
       <path id="DejaVuSans-68" d="M 3513 2113 
L 3513 0 
L 2938 0 
L 2938 2094 
Q 2938 2591 2744 2837 
Q 2550 3084 2163 3084 
Q 1697 3084 1428 2787 
Q 1159 2491 1159 1978 
L 1159 0 
L 581 0 
L 581 4863 
L 1159 4863 
L 1159 2956 
Q 1366 3272 1645 3428 
Q 1925 3584 2291 3584 
Q 2894 3584 3203 3211 
Q 3513 2838 3513 2113 
z
" transform="scale(0.015625)"/>
       <path id="DejaVuSans-6f" d="M 1959 3097 
Q 1497 3097 1228 2736 
Q 959 2375 959 1747 
Q 959 1119 1226 758 
Q 1494 397 1959 397 
Q 2419 397 2687 759 
Q 2956 1122 2956 1747 
Q 2956 2369 2687 2733 
Q 2419 3097 1959 3097 
z
M 1959 3584 
Q 2709 3584 3137 3096 
Q 3566 2609 3566 1747 
Q 3566 888 3137 398 
Q 2709 -91 1959 -91 
Q 1206 -91 779 398 
Q 353 888 353 1747 
Q 353 2609 779 3096 
Q 1206 3584 1959 3584 
z
" transform="scale(0.015625)"/>
       <path id="DejaVuSans-72" d="M 2631 2963 
Q 2534 3019 2420 3045 
Q 2306 3072 2169 3072 
Q 1681 3072 1420 2755 
Q 1159 2438 1159 1844 
L 1159 0 
L 581 0 
L 581 3500 
L 1159 3500 
L 1159 2956 
Q 1341 3275 1631 3429 
Q 1922 3584 2338 3584 
Q 2397 3584 2469 3576 
Q 2541 3569 2628 3553 
L 2631 2963 
z
" transform="scale(0.015625)"/>
       <path id="DejaVuSans-61" d="M 2194 1759 
Q 1497 1759 1228 1600 
Q 959 1441 959 1056 
Q 959 750 1161 570 
Q 1363 391 1709 391 
Q 2188 391 2477 730 
Q 2766 1069 2766 1631 
L 2766 1759 
L 2194 1759 
z
M 3341 1997 
L 3341 0 
L 2766 0 
L 2766 531 
Q 2569 213 2275 61 
Q 1981 -91 1556 -91 
Q 1019 -91 701 211 
Q 384 513 384 1019 
Q 384 1609 779 1909 
Q 1175 2209 1959 2209 
L 2766 2209 
L 2766 2266 
Q 2766 2663 2505 2880 
Q 2244 3097 1772 3097 
Q 1472 3097 1187 3025 
Q 903 2953 641 2809 
L 641 3341 
Q 956 3463 1253 3523 
Q 1550 3584 1831 3584 
Q 2591 3584 2966 3190 
Q 3341 2797 3341 1997 
z
" transform="scale(0.015625)"/>
       <path id="DejaVuSans-63" d="M 3122 3366 
L 3122 2828 
Q 2878 2963 2633 3030 
Q 2388 3097 2138 3097 
Q 1578 3097 1268 2742 
Q 959 2388 959 1747 
Q 959 1106 1268 751 
Q 1578 397 2138 397 
Q 2388 397 2633 464 
Q 2878 531 3122 666 
L 3122 134 
Q 2881 22 2623 -34 
Q 2366 -91 2075 -91 
Q 1284 -91 818 406 
Q 353 903 353 1747 
Q 353 2603 823 3093 
Q 1294 3584 2113 3584 
Q 2378 3584 2631 3529 
Q 2884 3475 3122 3366 
z
" transform="scale(0.015625)"/>
       <path id="DejaVuSans-69" d="M 603 3500 
L 1178 3500 
L 1178 0 
L 603 0 
L 603 3500 
z
M 603 4863 
L 1178 4863 
L 1178 4134 
L 603 4134 
L 603 4863 
z
" transform="scale(0.015625)"/>
      </defs>
      <use xlink:href="#DejaVuSans-54"/>
      <use xlink:href="#DejaVuSans-68" x="61.083984"/>
      <use xlink:href="#DejaVuSans-6f" x="124.462891"/>
      <use xlink:href="#DejaVuSans-72" x="185.644531"/>
      <use xlink:href="#DejaVuSans-61" x="226.757812"/>
      <use xlink:href="#DejaVuSans-63" x="288.037109"/>
      <use xlink:href="#DejaVuSans-69" x="343.017578"/>
      <use xlink:href="#DejaVuSans-63" x="370.800781"/>
     </g>
    </g>
    <g id="line2d_32">
     <path d="M 618.44375 120.353125 
L 638.44375 120.353125 
L 658.44375 120.353125 
" style="fill: none; stroke: #2ca02c; stroke-width: 1.5; stroke-linecap: square"/>
    </g>
    <g id="text_8">
     <!-- Nasal -->
     <g transform="translate(674.44375 127.353125) scale(0.2 -0.2)">
      <defs>
       <path id="DejaVuSans-4e" d="M 628 4666 
L 1478 4666 
L 3547 763 
L 3547 4666 
L 4159 4666 
L 4159 0 
L 3309 0 
L 1241 3903 
L 1241 0 
L 628 0 
L 628 4666 
z
" transform="scale(0.015625)"/>
       <path id="DejaVuSans-73" d="M 2834 3397 
L 2834 2853 
Q 2591 2978 2328 3040 
Q 2066 3103 1784 3103 
Q 1356 3103 1142 2972 
Q 928 2841 928 2578 
Q 928 2378 1081 2264 
Q 1234 2150 1697 2047 
L 1894 2003 
Q 2506 1872 2764 1633 
Q 3022 1394 3022 966 
Q 3022 478 2636 193 
Q 2250 -91 1575 -91 
Q 1294 -91 989 -36 
Q 684 19 347 128 
L 347 722 
Q 666 556 975 473 
Q 1284 391 1588 391 
Q 1994 391 2212 530 
Q 2431 669 2431 922 
Q 2431 1156 2273 1281 
Q 2116 1406 1581 1522 
L 1381 1569 
Q 847 1681 609 1914 
Q 372 2147 372 2553 
Q 372 3047 722 3315 
Q 1072 3584 1716 3584 
Q 2034 3584 2315 3537 
Q 2597 3491 2834 3397 
z
" transform="scale(0.015625)"/>
       <path id="DejaVuSans-6c" d="M 603 4863 
L 1178 4863 
L 1178 0 
L 603 0 
L 603 4863 
z
" transform="scale(0.015625)"/>
      </defs>
      <use xlink:href="#DejaVuSans-4e"/>
      <use xlink:href="#DejaVuSans-61" x="74.804688"/>
      <use xlink:href="#DejaVuSans-73" x="136.083984"/>
      <use xlink:href="#DejaVuSans-61" x="188.183594"/>
      <use xlink:href="#DejaVuSans-6c" x="249.462891"/>
     </g>
    </g>
   </g>
  </g>
  <g id="axes_4">
   <g id="patch_18">
    <path d="M 86.4 367.2 
L 302.4 367.2 
L 302.4 226.548837 
L 86.4 226.548837 
z
" style="fill: #ffffff"/>
   </g>
   <g id="line2d_33">
    <path d="M 86.4 293.279363 
L 302.4 293.279363 
" clip-path="url(#p4cc9460768)" style="fill: none; stroke-dasharray: 3.7,1.6; stroke-dashoffset: 0; stroke: #000000"/>
   </g>
   <g id="matplotlib.axis_7">
    <g id="xtick_13">
     <g id="line2d_34">
      <g>
       <use xlink:href="#me3de96a24a" x="103.072348" y="367.2" style="stroke: #000000; stroke-width: 0.8"/>
      </g>
     </g>
     <g id="text_9">
      <!-- 0 -->
      <g transform="translate(96.709848 389.396875) scale(0.2 -0.2)">
       <use xlink:href="#DejaVuSans-30"/>
      </g>
     </g>
    </g>
    <g id="xtick_14">
     <g id="line2d_35">
      <g>
       <use xlink:href="#me3de96a24a" x="164.640799" y="367.2" style="stroke: #000000; stroke-width: 0.8"/>
      </g>
     </g>
     <g id="text_10">
      <!-- 200 -->
      <g transform="translate(145.553299 389.396875) scale(0.2 -0.2)">
       <use xlink:href="#DejaVuSans-32"/>
       <use xlink:href="#DejaVuSans-30" x="63.623047"/>
       <use xlink:href="#DejaVuSans-30" x="127.246094"/>
      </g>
     </g>
    </g>
    <g id="xtick_15">
     <g id="line2d_36">
      <g>
       <use xlink:href="#me3de96a24a" x="226.20925" y="367.2" style="stroke: #000000; stroke-width: 0.8"/>
      </g>
     </g>
     <g id="text_11">
      <!-- 400 -->
      <g transform="translate(207.12175 389.396875) scale(0.2 -0.2)">
       <defs>
        <path id="DejaVuSans-34" d="M 2419 4116 
L 825 1625 
L 2419 1625 
L 2419 4116 
z
M 2253 4666 
L 3047 4666 
L 3047 1625 
L 3713 1625 
L 3713 1100 
L 3047 1100 
L 3047 0 
L 2419 0 
L 2419 1100 
L 313 1100 
L 313 1709 
L 2253 4666 
z
" transform="scale(0.015625)"/>
       </defs>
       <use xlink:href="#DejaVuSans-34"/>
       <use xlink:href="#DejaVuSans-30" x="63.623047"/>
       <use xlink:href="#DejaVuSans-30" x="127.246094"/>
      </g>
     </g>
    </g>
    <g id="xtick_16">
     <g id="line2d_37">
      <g>
       <use xlink:href="#me3de96a24a" x="287.777702" y="367.2" style="stroke: #000000; stroke-width: 0.8"/>
      </g>
     </g>
     <g id="text_12">
      <!-- 600 -->
      <g transform="translate(268.690202 389.396875) scale(0.2 -0.2)">
       <defs>
        <path id="DejaVuSans-36" d="M 2113 2584 
Q 1688 2584 1439 2293 
Q 1191 2003 1191 1497 
Q 1191 994 1439 701 
Q 1688 409 2113 409 
Q 2538 409 2786 701 
Q 3034 994 3034 1497 
Q 3034 2003 2786 2293 
Q 2538 2584 2113 2584 
z
M 3366 4563 
L 3366 3988 
Q 3128 4100 2886 4159 
Q 2644 4219 2406 4219 
Q 1781 4219 1451 3797 
Q 1122 3375 1075 2522 
Q 1259 2794 1537 2939 
Q 1816 3084 2150 3084 
Q 2853 3084 3261 2657 
Q 3669 2231 3669 1497 
Q 3669 778 3244 343 
Q 2819 -91 2113 -91 
Q 1303 -91 875 529 
Q 447 1150 447 2328 
Q 447 3434 972 4092 
Q 1497 4750 2381 4750 
Q 2619 4750 2861 4703 
Q 3103 4656 3366 4563 
z
" transform="scale(0.015625)"/>
       </defs>
       <use xlink:href="#DejaVuSans-36"/>
       <use xlink:href="#DejaVuSans-30" x="63.623047"/>
       <use xlink:href="#DejaVuSans-30" x="127.246094"/>
      </g>
     </g>
    </g>
   </g>
   <g id="matplotlib.axis_8">
    <g id="ytick_10">
     <g id="line2d_38">
      <g>
       <use xlink:href="#m5a2386105c" x="86.4" y="341.781379" style="stroke: #000000; stroke-width: 0.8"/>
      </g>
     </g>
     <g id="text_13">
      <!-- −2 -->
      <g transform="translate(49.915625 349.379816) scale(0.2 -0.2)">
       <use xlink:href="#DejaVuSans-2212"/>
       <use xlink:href="#DejaVuSans-32" x="83.789062"/>
      </g>
     </g>
    </g>
    <g id="ytick_11">
     <g id="line2d_39">
      <g>
       <use xlink:href="#m5a2386105c" x="86.4" y="293.279363" style="stroke: #000000; stroke-width: 0.8"/>
      </g>
     </g>
     <g id="text_14">
      <!-- 0 -->
      <g transform="translate(66.675 300.877801) scale(0.2 -0.2)">
       <use xlink:href="#DejaVuSans-30"/>
      </g>
     </g>
    </g>
    <g id="ytick_12">
     <g id="line2d_40">
      <g>
       <use xlink:href="#m5a2386105c" x="86.4" y="244.777348" style="stroke: #000000; stroke-width: 0.8"/>
      </g>
     </g>
     <g id="text_15">
      <!-- 2 -->
      <g transform="translate(66.675 252.375785) scale(0.2 -0.2)">
       <use xlink:href="#DejaVuSans-32"/>
      </g>
     </g>
    </g>
   </g>
   <g id="line2d_41">
    <path d="M 105.148526 289.58233 
L 108.296853 279.374841 
L 109.885392 274.925594 
L 111.439736 271.216229 
L 113.03681 268.088616 
L 114.634591 265.757398 
L 115.435051 264.858005 
L 116.225059 264.193562 
L 118.488798 262.822175 
L 119.278778 262.504966 
L 120.070813 262.319691 
L 120.864521 262.256845 
L 122.362999 262.474571 
L 124.666989 262.336748 
L 126.282586 262.57517 
L 129.990378 263.458044 
L 136.962095 262.476282 
L 139.353084 261.845729 
L 141.018617 261.216102 
L 141.88137 260.950583 
L 143.525139 260.639318 
L 144.31979 260.503226 
L 145.955522 259.947908 
L 146.835871 259.70133 
L 148.556694 259.714741 
L 150.097639 259.939498 
L 152.422459 260.027169 
L 153.259029 260.111766 
L 154.16194 260.325352 
L 155.081075 260.729238 
L 159.108187 263.187553 
L 159.924602 263.729256 
L 161.601665 265.173291 
L 163.235705 266.832888 
L 164.860985 268.716287 
L 166.507351 270.984125 
L 169.35865 275.647924 
L 171.700944 280.057308 
L 178.599949 293.515298 
L 181.149728 297.477433 
L 182.482356 299.453426 
L 183.843211 301.052596 
L 186.479843 303.637482 
L 189.363788 305.717536 
L 191.22499 307.065004 
L 192.966448 308.364698 
L 194.012706 309.349021 
L 195.023321 310.484791 
L 196.986886 313.260881 
L 201.525859 322.168771 
L 202.38089 323.995031 
L 204.719873 328.323441 
L 205.892441 330.201286 
L 207.465698 332.203399 
L 208.623714 333.122121 
L 210.04989 333.614958 
L 210.767928 334.034029 
L 212.095893 334.430095 
L 212.806265 334.936718 
L 213.568402 335.016907 
L 215.744962 334.561358 
L 216.898168 333.871561 
L 218.433227 332.772863 
L 222.710288 329.109949 
L 224.083083 327.620681 
L 225.534267 325.571455 
L 226.995409 323.050877 
L 227.954645 320.857618 
L 228.915478 318.240078 
L 229.880801 315.063942 
L 230.880649 311.148488 
L 232.460812 303.792097 
L 234.045061 295.060436 
L 234.045061 295.060436 
" clip-path="url(#p4cc9460768)" style="fill: none; stroke: #d62728; stroke-width: 1.5; stroke-linecap: square"/>
   </g>
   <g id="line2d_42">
    <path d="M 105.148526 292.44365 
L 109.093885 277.129444 
L 110.664001 271.933144 
L 112.231793 267.410426 
L 113.837106 263.634025 
L 115.435051 260.713615 
L 116.983755 258.780486 
L 118.488798 257.266749 
L 119.278778 256.667986 
L 120.070813 256.234205 
L 120.864521 255.962462 
L 123.089326 255.674879 
L 123.864512 255.46872 
L 125.476228 255.424402 
L 127.071577 255.678432 
L 129.990378 256.409925 
L 132.995779 255.969276 
L 133.773088 255.961144 
L 138.551865 254.821556 
L 139.353084 254.566046 
L 141.018617 253.796991 
L 141.88137 253.468177 
L 143.525139 253.001579 
L 144.31979 252.768303 
L 146.835871 251.700506 
L 147.721213 251.552527 
L 149.350514 251.619331 
L 150.838816 251.608981 
L 152.422459 251.566736 
L 153.259029 251.602078 
L 154.16194 251.792528 
L 155.081075 252.172693 
L 158.317176 254.118007 
L 159.924602 255.205095 
L 161.601665 256.694325 
L 163.235705 258.462525 
L 164.860985 260.535608 
L 166.507351 263.086043 
L 168.652843 267.053747 
L 170.11406 270.002243 
L 172.50539 275.393563 
L 177.083904 286.161485 
L 179.331877 290.996876 
L 183.177012 297.97355 
L 185.802126 301.584427 
L 187.128578 303.060696 
L 189.363788 305.452138 
L 192.413238 308.768871 
L 194.012706 310.919679 
L 195.023321 312.562202 
L 196.509237 315.446122 
L 197.471347 317.665147 
L 198.885676 321.220177 
L 201.099504 327.236801 
L 202.38089 330.912277 
L 203.58508 333.972444 
L 205.892441 339.204988 
L 207.070496 341.38189 
L 208.232025 342.811023 
L 208.997582 343.416977 
L 209.708114 343.734374 
L 211.122969 344.600536 
L 212.095893 345.050835 
L 212.806265 345.557075 
L 213.568402 345.666757 
L 214.624233 345.504737 
L 215.744962 345.12818 
L 216.898168 344.310632 
L 218.433227 343.005335 
L 222.710288 338.661138 
L 224.083083 336.907898 
L 225.534267 334.584173 
L 226.995409 331.735838 
L 227.954645 329.31219 
L 229.396763 324.587897 
L 230.373642 320.585603 
L 231.928485 312.829416 
L 233.526883 302.948706 
L 234.045061 299.509017 
L 234.045061 299.509017 
" clip-path="url(#p4cc9460768)" style="fill: none; stroke: #2ca02c; stroke-width: 1.5; stroke-linecap: square"/>
   </g>
   <g id="patch_19">
    <path d="M 86.4 367.2 
L 86.4 226.548837 
" style="fill: none; stroke: #000000; stroke-width: 0.8; stroke-linejoin: miter; stroke-linecap: square"/>
   </g>
   <g id="patch_20">
    <path d="M 302.4 367.2 
L 302.4 226.548837 
" style="fill: none; stroke: #000000; stroke-width: 0.8; stroke-linejoin: miter; stroke-linecap: square"/>
   </g>
   <g id="patch_21">
    <path d="M 86.4 367.2 
L 302.4 367.2 
" style="fill: none; stroke: #000000; stroke-width: 0.8; stroke-linejoin: miter; stroke-linecap: square"/>
   </g>
   <g id="patch_22">
    <path d="M 86.4 226.548837 
L 302.4 226.548837 
" style="fill: none; stroke: #000000; stroke-width: 0.8; stroke-linejoin: miter; stroke-linecap: square"/>
   </g>
  </g>
  <g id="axes_5">
   <g id="patch_23">
    <path d="M 324 367.2 
L 540 367.2 
L 540 226.548837 
L 324 226.548837 
z
" style="fill: #ffffff"/>
   </g>
   <g id="line2d_43">
    <path d="M 324 293.279363 
L 540 293.279363 
" clip-path="url(#p760a4d6459)" style="fill: none; stroke-dasharray: 3.7,1.6; stroke-dashoffset: 0; stroke: #000000"/>
   </g>
   <g id="matplotlib.axis_9">
    <g id="xtick_17">
     <g id="line2d_44">
      <g>
       <use xlink:href="#me3de96a24a" x="340.672348" y="367.2" style="stroke: #000000; stroke-width: 0.8"/>
      </g>
     </g>
     <g id="text_16">
      <!-- 0 -->
      <g transform="translate(334.309848 389.396875) scale(0.2 -0.2)">
       <use xlink:href="#DejaVuSans-30"/>
      </g>
     </g>
    </g>
    <g id="xtick_18">
     <g id="line2d_45">
      <g>
       <use xlink:href="#me3de96a24a" x="402.240799" y="367.2" style="stroke: #000000; stroke-width: 0.8"/>
      </g>
     </g>
     <g id="text_17">
      <!-- 200 -->
      <g transform="translate(383.153299 389.396875) scale(0.2 -0.2)">
       <use xlink:href="#DejaVuSans-32"/>
       <use xlink:href="#DejaVuSans-30" x="63.623047"/>
       <use xlink:href="#DejaVuSans-30" x="127.246094"/>
      </g>
     </g>
    </g>
    <g id="xtick_19">
     <g id="line2d_46">
      <g>
       <use xlink:href="#me3de96a24a" x="463.80925" y="367.2" style="stroke: #000000; stroke-width: 0.8"/>
      </g>
     </g>
     <g id="text_18">
      <!-- 400 -->
      <g transform="translate(444.72175 389.396875) scale(0.2 -0.2)">
       <use xlink:href="#DejaVuSans-34"/>
       <use xlink:href="#DejaVuSans-30" x="63.623047"/>
       <use xlink:href="#DejaVuSans-30" x="127.246094"/>
      </g>
     </g>
    </g>
    <g id="xtick_20">
     <g id="line2d_47">
      <g>
       <use xlink:href="#me3de96a24a" x="525.377702" y="367.2" style="stroke: #000000; stroke-width: 0.8"/>
      </g>
     </g>
     <g id="text_19">
      <!-- 600 -->
      <g transform="translate(506.290202 389.396875) scale(0.2 -0.2)">
       <use xlink:href="#DejaVuSans-36"/>
       <use xlink:href="#DejaVuSans-30" x="63.623047"/>
       <use xlink:href="#DejaVuSans-30" x="127.246094"/>
      </g>
     </g>
    </g>
    <g id="text_20">
     <!-- time (ms) -->
     <g transform="translate(383.476562 412.753125) scale(0.2 -0.2)">
      <defs>
       <path id="DejaVuSans-74" d="M 1172 4494 
L 1172 3500 
L 2356 3500 
L 2356 3053 
L 1172 3053 
L 1172 1153 
Q 1172 725 1289 603 
Q 1406 481 1766 481 
L 2356 481 
L 2356 0 
L 1766 0 
Q 1100 0 847 248 
Q 594 497 594 1153 
L 594 3053 
L 172 3053 
L 172 3500 
L 594 3500 
L 594 4494 
L 1172 4494 
z
" transform="scale(0.015625)"/>
       <path id="DejaVuSans-6d" d="M 3328 2828 
Q 3544 3216 3844 3400 
Q 4144 3584 4550 3584 
Q 5097 3584 5394 3201 
Q 5691 2819 5691 2113 
L 5691 0 
L 5113 0 
L 5113 2094 
Q 5113 2597 4934 2840 
Q 4756 3084 4391 3084 
Q 3944 3084 3684 2787 
Q 3425 2491 3425 1978 
L 3425 0 
L 2847 0 
L 2847 2094 
Q 2847 2600 2669 2842 
Q 2491 3084 2119 3084 
Q 1678 3084 1418 2786 
Q 1159 2488 1159 1978 
L 1159 0 
L 581 0 
L 581 3500 
L 1159 3500 
L 1159 2956 
Q 1356 3278 1631 3431 
Q 1906 3584 2284 3584 
Q 2666 3584 2933 3390 
Q 3200 3197 3328 2828 
z
" transform="scale(0.015625)"/>
       <path id="DejaVuSans-65" d="M 3597 1894 
L 3597 1613 
L 953 1613 
Q 991 1019 1311 708 
Q 1631 397 2203 397 
Q 2534 397 2845 478 
Q 3156 559 3463 722 
L 3463 178 
Q 3153 47 2828 -22 
Q 2503 -91 2169 -91 
Q 1331 -91 842 396 
Q 353 884 353 1716 
Q 353 2575 817 3079 
Q 1281 3584 2069 3584 
Q 2775 3584 3186 3129 
Q 3597 2675 3597 1894 
z
M 3022 2063 
Q 3016 2534 2758 2815 
Q 2500 3097 2075 3097 
Q 1594 3097 1305 2825 
Q 1016 2553 972 2059 
L 3022 2063 
z
" transform="scale(0.015625)"/>
       <path id="DejaVuSans-20" transform="scale(0.015625)"/>
       <path id="DejaVuSans-28" d="M 1984 4856 
Q 1566 4138 1362 3434 
Q 1159 2731 1159 2009 
Q 1159 1288 1364 580 
Q 1569 -128 1984 -844 
L 1484 -844 
Q 1016 -109 783 600 
Q 550 1309 550 2009 
Q 550 2706 781 3412 
Q 1013 4119 1484 4856 
L 1984 4856 
z
" transform="scale(0.015625)"/>
       <path id="DejaVuSans-29" d="M 513 4856 
L 1013 4856 
Q 1481 4119 1714 3412 
Q 1947 2706 1947 2009 
Q 1947 1309 1714 600 
Q 1481 -109 1013 -844 
L 513 -844 
Q 928 -128 1133 580 
Q 1338 1288 1338 2009 
Q 1338 2731 1133 3434 
Q 928 4138 513 4856 
z
" transform="scale(0.015625)"/>
      </defs>
      <use xlink:href="#DejaVuSans-74"/>
      <use xlink:href="#DejaVuSans-69" x="39.208984"/>
      <use xlink:href="#DejaVuSans-6d" x="66.992188"/>
      <use xlink:href="#DejaVuSans-65" x="164.404297"/>
      <use xlink:href="#DejaVuSans-20" x="225.927734"/>
      <use xlink:href="#DejaVuSans-28" x="257.714844"/>
      <use xlink:href="#DejaVuSans-6d" x="296.728516"/>
      <use xlink:href="#DejaVuSans-73" x="394.140625"/>
      <use xlink:href="#DejaVuSans-29" x="446.240234"/>
     </g>
    </g>
   </g>
   <g id="matplotlib.axis_10">
    <g id="ytick_13">
     <g id="line2d_48">
      <g>
       <use xlink:href="#m5a2386105c" x="324" y="341.781379" style="stroke: #000000; stroke-width: 0.8"/>
      </g>
     </g>
    </g>
    <g id="ytick_14">
     <g id="line2d_49">
      <g>
       <use xlink:href="#m5a2386105c" x="324" y="293.279363" style="stroke: #000000; stroke-width: 0.8"/>
      </g>
     </g>
    </g>
    <g id="ytick_15">
     <g id="line2d_50">
      <g>
       <use xlink:href="#m5a2386105c" x="324" y="244.777348" style="stroke: #000000; stroke-width: 0.8"/>
      </g>
     </g>
    </g>
   </g>
   <g id="line2d_51">
    <path d="M 341.687292 290.883279 
L 343.797769 285.066163 
L 345.954189 279.50467 
L 347.335643 276.422346 
L 348.745381 273.755119 
L 350.145903 271.636555 
L 351.530267 270.04755 
L 353.484001 268.463236 
L 354.837889 267.719636 
L 356.167569 267.304898 
L 357.395484 266.999765 
L 358.719206 266.675696 
L 360.720208 266.466082 
L 363.699551 266.20067 
L 364.938546 265.855346 
L 366.827156 265.424815 
L 370.67281 264.294357 
L 371.995725 263.766286 
L 373.339244 263.338082 
L 376.589376 262.184537 
L 378.569408 261.907974 
L 380.99136 261.707687 
L 382.36703 261.804941 
L 383.779184 262.239838 
L 385.676569 263.169979 
L 386.969454 264.030177 
L 388.328242 265.234577 
L 389.663595 266.696241 
L 391.004674 268.434564 
L 392.378146 270.525215 
L 394.798275 274.799845 
L 397.541568 280.181275 
L 401.031282 286.966612 
L 403.129317 290.532823 
L 405.019078 293.3491 
L 406.924777 295.681965 
L 408.968389 297.760135 
L 411.066885 299.510801 
L 413.565205 301.25508 
L 419.009075 305.006694 
L 421.491133 307.115239 
L 423.321145 308.888492 
L 430.446658 316.898722 
L 431.579383 317.89047 
L 432.63062 318.708463 
L 434.24978 319.965952 
L 435.909439 320.87481 
L 437.049061 321.431583 
L 439.300129 322.017338 
L 441.387431 322.072026 
L 441.908878 322.212679 
L 442.444116 322.237625 
L 444.4057 321.866705 
L 444.91003 322.070982 
L 445.457754 322.155386 
L 446.026587 322.092687 
L 448.152989 321.376993 
L 449.239682 321.27616 
L 450.943186 320.700428 
L 453.771064 319.432043 
L 456.139658 318.19992 
L 459.280442 316.115953 
L 462.515144 313.647335 
L 464.536815 311.892487 
L 466.488468 309.925236 
L 467.763776 308.421071 
L 469.022267 306.667414 
L 470.283717 304.537739 
L 471.590328 301.856887 
L 472.919419 298.596285 
L 474.234598 294.827741 
L 474.866328 292.956127 
L 474.866328 292.956127 
" clip-path="url(#p760a4d6459)" style="fill: none; stroke: #d62728; stroke-width: 1.5; stroke-linecap: square"/>
   </g>
   <g id="line2d_52">
    <path d="M 341.687292 293.117371 
L 343.063515 288.433699 
L 345.954189 278.676124 
L 347.335643 274.571849 
L 348.745381 270.90894 
L 350.145903 267.875204 
L 351.530267 265.475875 
L 352.827478 263.722653 
L 354.161238 262.258525 
L 355.51363 261.207068 
L 358.046992 259.948749 
L 359.394818 259.508822 
L 361.353602 259.167517 
L 363.123591 258.985341 
L 365.571312 258.223225 
L 366.200269 258.100458 
L 368.764785 257.218514 
L 369.39692 257.027287 
L 372.679297 255.477211 
L 373.979026 254.954846 
L 375.23995 254.386885 
L 376.589376 253.771252 
L 377.944331 253.384652 
L 381.652429 252.862539 
L 383.095835 253.087185 
L 384.424391 253.586368 
L 385.676569 254.248735 
L 386.969454 255.163769 
L 388.328242 256.476267 
L 389.663595 258.097148 
L 391.004674 260.061877 
L 392.378146 262.447832 
L 394.798275 267.386726 
L 397.541568 273.702374 
L 401.031282 281.845155 
L 403.829299 287.612395 
L 405.598471 290.747654 
L 407.626516 293.802556 
L 409.644364 296.384976 
L 412.399932 299.419314 
L 419.009075 306.090703 
L 421.491133 309.162651 
L 423.321145 311.742328 
L 427.553187 318.535107 
L 429.280976 321.319565 
L 431.024867 323.831062 
L 434.80439 327.986519 
L 437.619322 329.868961 
L 439.300129 330.568037 
L 441.387431 330.807463 
L 441.908878 330.977748 
L 442.444116 331.021835 
L 443.465422 330.725762 
L 443.935876 330.579737 
L 444.4057 330.659146 
L 444.91003 330.862818 
L 445.457754 330.964007 
L 446.026587 330.88069 
L 448.152989 330.052854 
L 449.239682 329.903299 
L 450.380092 329.443038 
L 451.516068 328.89965 
L 456.760585 325.62749 
L 459.932841 323.017356 
L 463.186379 319.965885 
L 465.198495 317.790683 
L 466.488468 316.221718 
L 467.763776 314.450118 
L 469.022267 312.36875 
L 470.283717 309.826118 
L 471.590328 306.604024 
L 472.919419 302.675339 
L 474.234598 298.100784 
L 474.866328 295.828241 
L 474.866328 295.828241 
" clip-path="url(#p760a4d6459)" style="fill: none; stroke: #2ca02c; stroke-width: 1.5; stroke-linecap: square"/>
   </g>
   <g id="patch_24">
    <path d="M 324 367.2 
L 324 226.548837 
" style="fill: none; stroke: #000000; stroke-width: 0.8; stroke-linejoin: miter; stroke-linecap: square"/>
   </g>
   <g id="patch_25">
    <path d="M 540 367.2 
L 540 226.548837 
" style="fill: none; stroke: #000000; stroke-width: 0.8; stroke-linejoin: miter; stroke-linecap: square"/>
   </g>
   <g id="patch_26">
    <path d="M 324 367.2 
L 540 367.2 
" style="fill: none; stroke: #000000; stroke-width: 0.8; stroke-linejoin: miter; stroke-linecap: square"/>
   </g>
   <g id="patch_27">
    <path d="M 324 226.548837 
L 540 226.548837 
" style="fill: none; stroke: #000000; stroke-width: 0.8; stroke-linejoin: miter; stroke-linecap: square"/>
   </g>
  </g>
  <g id="axes_6">
   <g id="patch_28">
    <path d="M 561.6 367.2 
L 777.6 367.2 
L 777.6 226.548837 
L 561.6 226.548837 
z
" style="fill: #ffffff"/>
   </g>
   <g id="line2d_53">
    <path d="M 561.6 293.279363 
L 777.6 293.279363 
" clip-path="url(#pf8a7a01d56)" style="fill: none; stroke-dasharray: 3.7,1.6; stroke-dashoffset: 0; stroke: #000000"/>
   </g>
   <g id="matplotlib.axis_11">
    <g id="xtick_21">
     <g id="line2d_54">
      <g>
       <use xlink:href="#me3de96a24a" x="578.272348" y="367.2" style="stroke: #000000; stroke-width: 0.8"/>
      </g>
     </g>
     <g id="text_21">
      <!-- 0 -->
      <g transform="translate(571.909848 389.396875) scale(0.2 -0.2)">
       <use xlink:href="#DejaVuSans-30"/>
      </g>
     </g>
    </g>
    <g id="xtick_22">
     <g id="line2d_55">
      <g>
       <use xlink:href="#me3de96a24a" x="639.840799" y="367.2" style="stroke: #000000; stroke-width: 0.8"/>
      </g>
     </g>
     <g id="text_22">
      <!-- 200 -->
      <g transform="translate(620.753299 389.396875) scale(0.2 -0.2)">
       <use xlink:href="#DejaVuSans-32"/>
       <use xlink:href="#DejaVuSans-30" x="63.623047"/>
       <use xlink:href="#DejaVuSans-30" x="127.246094"/>
      </g>
     </g>
    </g>
    <g id="xtick_23">
     <g id="line2d_56">
      <g>
       <use xlink:href="#me3de96a24a" x="701.40925" y="367.2" style="stroke: #000000; stroke-width: 0.8"/>
      </g>
     </g>
     <g id="text_23">
      <!-- 400 -->
      <g transform="translate(682.32175 389.396875) scale(0.2 -0.2)">
       <use xlink:href="#DejaVuSans-34"/>
       <use xlink:href="#DejaVuSans-30" x="63.623047"/>
       <use xlink:href="#DejaVuSans-30" x="127.246094"/>
      </g>
     </g>
    </g>
    <g id="xtick_24">
     <g id="line2d_57">
      <g>
       <use xlink:href="#me3de96a24a" x="762.977702" y="367.2" style="stroke: #000000; stroke-width: 0.8"/>
      </g>
     </g>
     <g id="text_24">
      <!-- 600 -->
      <g transform="translate(743.890202 389.396875) scale(0.2 -0.2)">
       <use xlink:href="#DejaVuSans-36"/>
       <use xlink:href="#DejaVuSans-30" x="63.623047"/>
       <use xlink:href="#DejaVuSans-30" x="127.246094"/>
      </g>
     </g>
    </g>
   </g>
   <g id="matplotlib.axis_12">
    <g id="ytick_16">
     <g id="line2d_58">
      <g>
       <use xlink:href="#m5a2386105c" x="561.6" y="341.781379" style="stroke: #000000; stroke-width: 0.8"/>
      </g>
     </g>
    </g>
    <g id="ytick_17">
     <g id="line2d_59">
      <g>
       <use xlink:href="#m5a2386105c" x="561.6" y="293.279363" style="stroke: #000000; stroke-width: 0.8"/>
      </g>
     </g>
    </g>
    <g id="ytick_18">
     <g id="line2d_60">
      <g>
       <use xlink:href="#m5a2386105c" x="561.6" y="244.777348" style="stroke: #000000; stroke-width: 0.8"/>
      </g>
     </g>
    </g>
   </g>
   <g id="line2d_61">
    <path d="M 576.99967 292.204821 
L 577.585748 291.128753 
L 580.069949 285.500391 
L 581.849365 281.755707 
L 583.633414 278.56261 
L 584.803778 276.837649 
L 586.456095 274.910165 
L 587.560133 273.819855 
L 588.674165 272.927005 
L 591.843361 270.962103 
L 593.923204 270.039763 
L 595.316931 269.403558 
L 596.816404 268.691052 
L 608.57987 263.742664 
L 610.192453 263.39325 
L 611.329463 263.392738 
L 612.357263 263.60217 
L 613.382268 264.06464 
L 614.474141 264.840734 
L 615.58288 265.955902 
L 616.687941 267.372616 
L 617.822421 269.107573 
L 619.934778 272.945825 
L 625.92074 284.558627 
L 628.481938 288.511353 
L 629.594278 290.086528 
L 632.085355 292.581625 
L 633.397902 293.812424 
L 636.204779 295.995512 
L 637.4545 297.054975 
L 640.275374 298.696502 
L 646.850368 303.166973 
L 649.023001 304.680664 
L 650.518481 305.687552 
L 655.744654 309.139958 
L 657.250468 309.902152 
L 660.244687 311.284998 
L 661.66174 311.6234 
L 664.702838 312.015395 
L 666.258931 312.045541 
L 668.671051 312.133957 
L 670.279726 312.172706 
L 672.564737 312.444299 
L 673.29125 312.408627 
L 674.82582 312.151845 
L 676.999599 312.000364 
L 677.68532 311.775019 
L 679.221563 310.993245 
L 680.870851 310.582286 
L 682.398873 310.342921 
L 684.728489 309.591557 
L 687.18622 308.992552 
L 689.593934 308.335598 
L 692.017158 307.434963 
L 695.366822 305.636815 
L 698.773154 303.578144 
L 705.55504 299.593757 
L 712.447905 296.236504 
L 713.941525 295.067449 
L 716.170215 292.704059 
L 717.575506 290.877858 
L 717.575506 290.877858 
" clip-path="url(#pf8a7a01d56)" style="fill: none; stroke: #d62728; stroke-width: 1.5; stroke-linecap: square"/>
   </g>
   <g id="line2d_62">
    <path d="M 576.99967 293.806467 
L 577.585748 292.365032 
L 582.442589 278.070115 
L 584.219354 273.831922 
L 585.376983 271.535897 
L 587.00022 268.878356 
L 588.11819 267.366617 
L 589.21096 266.171379 
L 591.294473 264.245003 
L 592.917031 263.104913 
L 599.363502 259.357224 
L 601.394718 258.275996 
L 606.656861 255.463629 
L 609.089123 254.422626 
L 610.192453 254.153782 
L 611.329463 254.095189 
L 612.357263 254.27761 
L 613.382268 254.792326 
L 614.474141 255.697458 
L 615.58288 257.003581 
L 616.687941 258.665759 
L 617.822421 260.700606 
L 619.446024 264.051272 
L 622.204015 270.501711 
L 625.324794 277.827688 
L 627.164942 281.634883 
L 629.594278 286.210796 
L 632.085355 289.61925 
L 633.397902 291.318845 
L 638.068818 296.441941 
L 639.513402 297.678119 
L 643.285681 301.424472 
L 645.413779 303.539302 
L 649.768392 307.943314 
L 652.763306 311.095242 
L 655.744654 314.010438 
L 660.244687 317.236323 
L 660.948868 317.629779 
L 664.702838 318.812332 
L 673.29125 319.848004 
L 674.82582 319.603387 
L 676.999599 319.408586 
L 678.421716 318.690565 
L 679.221563 318.273419 
L 680.870851 317.769721 
L 682.398873 317.439231 
L 690.408427 314.503548 
L 692.017158 313.718659 
L 694.513313 312.095441 
L 697.062669 310.320729 
L 703.856111 305.220809 
L 706.376335 303.568274 
L 711.713398 300.127443 
L 713.191572 298.72799 
L 714.69127 296.846142 
L 716.170215 294.630262 
L 717.575506 292.202859 
L 717.575506 292.202859 
" clip-path="url(#pf8a7a01d56)" style="fill: none; stroke: #2ca02c; stroke-width: 1.5; stroke-linecap: square"/>
   </g>
   <g id="patch_29">
    <path d="M 561.6 367.2 
L 561.6 226.548837 
" style="fill: none; stroke: #000000; stroke-width: 0.8; stroke-linejoin: miter; stroke-linecap: square"/>
   </g>
   <g id="patch_30">
    <path d="M 777.6 367.2 
L 777.6 226.548837 
" style="fill: none; stroke: #000000; stroke-width: 0.8; stroke-linejoin: miter; stroke-linecap: square"/>
   </g>
   <g id="patch_31">
    <path d="M 561.6 367.2 
L 777.6 367.2 
" style="fill: none; stroke: #000000; stroke-width: 0.8; stroke-linejoin: miter; stroke-linecap: square"/>
   </g>
   <g id="patch_32">
    <path d="M 561.6 226.548837 
L 777.6 226.548837 
" style="fill: none; stroke: #000000; stroke-width: 0.8; stroke-linejoin: miter; stroke-linecap: square"/>
   </g>
  </g>
  <g id="text_25">
   <!--   -->
   <g transform="translate(428.027344 27.636094) scale(0.25 -0.25)">
    <use xlink:href="#DejaVuSans-20"/>
   </g>
  </g>
 </g>
 <defs>
  <clipPath id="p3da16670d0">
   <rect x="86.4" y="64.8" width="216" height="140.651163"/>
  </clipPath>
  <clipPath id="pc3fc76805f">
   <rect x="324" y="64.8" width="216" height="140.651163"/>
  </clipPath>
  <clipPath id="p96d54615a1">
   <rect x="561.6" y="64.8" width="216" height="140.651163"/>
  </clipPath>
  <clipPath id="p4cc9460768">
   <rect x="86.4" y="226.548837" width="216" height="140.651163"/>
  </clipPath>
  <clipPath id="p760a4d6459">
   <rect x="324" y="226.548837" width="216" height="140.651163"/>
  </clipPath>
  <clipPath id="pf8a7a01d56">
   <rect x="561.6" y="226.548837" width="216" height="140.651163"/>
  </clipPath>
 </defs>
</svg>
