<?xml version="1.0" encoding="utf-8" standalone="no"?>
<!DOCTYPE svg PUBLIC "-//W3C//DTD SVG 1.1//EN"
  "http://www.w3.org/Graphics/SVG/1.1/DTD/svg11.dtd">
<svg xmlns:xlink="http://www.w3.org/1999/xlink" width="1080pt" height="216pt" viewBox="0 0 1080 216" xmlns="http://www.w3.org/2000/svg" version="1.1">
 <metadata>
  <rdf:RDF xmlns:dc="http://purl.org/dc/elements/1.1/" xmlns:cc="http://creativecommons.org/ns#" xmlns:rdf="http://www.w3.org/1999/02/22-rdf-syntax-ns#">
   <cc:Work>
    <dc:type rdf:resource="http://purl.org/dc/dcmitype/StillImage"/>
    <dc:date>2024-10-15T13:21:20.092496</dc:date>
    <dc:format>image/svg+xml</dc:format>
    <dc:creator>
     <cc:Agent>
      <dc:title>Matplotlib v3.8.4, https://matplotlib.org/</dc:title>
     </cc:Agent>
    </dc:creator>
   </cc:Work>
  </rdf:RDF>
 </metadata>
 <defs>
  <style type="text/css">*{stroke-linejoin: round; stroke-linecap: butt}</style>
 </defs>
 <g id="figure_1">
  <g id="patch_1">
   <path d="M 0 216 
L 1080 216 
L 1080 0 
L 0 0 
z
" style="fill: #ffffff"/>
  </g>
  <g id="axes_1">
   <g id="patch_2">
    <path d="M 108 172.8 
L 378 172.8 
L 378 43.2 
L 108 43.2 
z
" style="fill: #ffffff"/>
   </g>
   <g id="line2d_1">
    <path d="M 108 111.981418 
L 378 111.981418 
" clip-path="url(#p5d41e81044)" style="fill: none; stroke-dasharray: 3.7,1.6; stroke-dashoffset: 0; stroke: #000000"/>
   </g>
   <g id="matplotlib.axis_1">
    <g id="xtick_1">
     <g id="line2d_2">
      <defs>
       <path id="m2c7c378328" d="M 0 0 
L 0 3.5 
" style="stroke: #000000; stroke-width: 0.8"/>
      </defs>
      <g>
       <use xlink:href="#m2c7c378328" x="134.07445" y="172.8" style="stroke: #000000; stroke-width: 0.8"/>
      </g>
     </g>
     <g id="text_1">
      <!-- 0 -->
      <g transform="translate(128.98445 191.9575) scale(0.16 -0.16)">
       <defs>
        <path id="DejaVuSans-30" d="M 2034 4250 
Q 1547 4250 1301 3770 
Q 1056 3291 1056 2328 
Q 1056 1369 1301 889 
Q 1547 409 2034 409 
Q 2525 409 2770 889 
Q 3016 1369 3016 2328 
Q 3016 3291 2770 3770 
Q 2525 4250 2034 4250 
z
M 2034 4750 
Q 2819 4750 3233 4129 
Q 3647 3509 3647 2328 
Q 3647 1150 3233 529 
Q 2819 -91 2034 -91 
Q 1250 -91 836 529 
Q 422 1150 422 2328 
Q 422 3509 836 4129 
Q 1250 4750 2034 4750 
z
" transform="scale(0.015625)"/>
       </defs>
       <use xlink:href="#DejaVuSans-30"/>
      </g>
     </g>
    </g>
    <g id="xtick_2">
     <g id="line2d_3">
      <g>
       <use xlink:href="#m2c7c378328" x="242.010035" y="172.8" style="stroke: #000000; stroke-width: 0.8"/>
      </g>
     </g>
     <g id="text_2">
      <!-- 500 -->
      <g transform="translate(226.740035 191.9575) scale(0.16 -0.16)">
       <defs>
        <path id="DejaVuSans-35" d="M 691 4666 
L 3169 4666 
L 3169 4134 
L 1269 4134 
L 1269 2991 
Q 1406 3038 1543 3061 
Q 1681 3084 1819 3084 
Q 2600 3084 3056 2656 
Q 3513 2228 3513 1497 
Q 3513 744 3044 326 
Q 2575 -91 1722 -91 
Q 1428 -91 1123 -41 
Q 819 9 494 109 
L 494 744 
Q 775 591 1075 516 
Q 1375 441 1709 441 
Q 2250 441 2565 725 
Q 2881 1009 2881 1497 
Q 2881 1984 2565 2268 
Q 2250 2553 1709 2553 
Q 1456 2553 1204 2497 
Q 953 2441 691 2322 
L 691 4666 
z
" transform="scale(0.015625)"/>
       </defs>
       <use xlink:href="#DejaVuSans-35"/>
       <use xlink:href="#DejaVuSans-30" x="63.623047"/>
       <use xlink:href="#DejaVuSans-30" x="127.246094"/>
      </g>
     </g>
    </g>
    <g id="xtick_3">
     <g id="line2d_4">
      <g>
       <use xlink:href="#m2c7c378328" x="349.94562" y="172.8" style="stroke: #000000; stroke-width: 0.8"/>
      </g>
     </g>
     <g id="text_3">
      <!-- 1000 -->
      <g transform="translate(329.58562 191.9575) scale(0.16 -0.16)">
       <defs>
        <path id="DejaVuSans-31" d="M 794 531 
L 1825 531 
L 1825 4091 
L 703 3866 
L 703 4441 
L 1819 4666 
L 2450 4666 
L 2450 531 
L 3481 531 
L 3481 0 
L 794 0 
L 794 531 
z
" transform="scale(0.015625)"/>
       </defs>
       <use xlink:href="#DejaVuSans-31"/>
       <use xlink:href="#DejaVuSans-30" x="63.623047"/>
       <use xlink:href="#DejaVuSans-30" x="127.246094"/>
       <use xlink:href="#DejaVuSans-30" x="190.869141"/>
      </g>
     </g>
    </g>
   </g>
   <g id="matplotlib.axis_2">
    <g id="ytick_1">
     <g id="line2d_5">
      <defs>
       <path id="m5d92ac6db7" d="M 0 0 
L -3.5 0 
" style="stroke: #000000; stroke-width: 0.8"/>
      </defs>
      <g>
       <use xlink:href="#m5d92ac6db7" x="108" y="111.981418" style="stroke: #000000; stroke-width: 0.8"/>
      </g>
     </g>
     <g id="text_4">
      <!-- 0 -->
      <g transform="translate(90.82 118.060168) scale(0.16 -0.16)">
       <use xlink:href="#DejaVuSans-30"/>
      </g>
     </g>
    </g>
    <g id="ytick_2">
     <g id="line2d_6">
      <g>
       <use xlink:href="#m5d92ac6db7" x="108" y="49.931416" style="stroke: #000000; stroke-width: 0.8"/>
      </g>
     </g>
     <g id="text_5">
      <!-- 2 -->
      <g transform="translate(90.82 56.010166) scale(0.16 -0.16)">
       <defs>
        <path id="DejaVuSans-32" d="M 1228 531 
L 3431 531 
L 3431 0 
L 469 0 
L 469 531 
Q 828 903 1448 1529 
Q 2069 2156 2228 2338 
Q 2531 2678 2651 2914 
Q 2772 3150 2772 3378 
Q 2772 3750 2511 3984 
Q 2250 4219 1831 4219 
Q 1534 4219 1204 4116 
Q 875 4013 500 3803 
L 500 4441 
Q 881 4594 1212 4672 
Q 1544 4750 1819 4750 
Q 2544 4750 2975 4387 
Q 3406 4025 3406 3419 
Q 3406 3131 3298 2873 
Q 3191 2616 2906 2266 
Q 2828 2175 2409 1742 
Q 1991 1309 1228 531 
z
" transform="scale(0.015625)"/>
       </defs>
       <use xlink:href="#DejaVuSans-32"/>
      </g>
     </g>
    </g>
   </g>
   <g id="line2d_7">
    <path d="M 134.139855 110.358769 
L 135.898306 107.39662 
L 137.591393 104.87561 
L 139.370204 102.754233 
L 141.164176 101.2011 
L 142.947192 100.183341 
L 144.830668 99.472506 
L 147.789356 98.624891 
L 151.581149 97.802178 
L 154.608899 97.038026 
L 157.653001 96.168232 
L 159.637879 95.470531 
L 161.757549 94.835276 
L 164.015039 93.809114 
L 167.031188 92.300838 
L 173.331898 89.975368 
L 176.498553 89.313394 
L 178.582615 89.062525 
L 180.660684 89.114286 
L 181.693095 89.253416 
L 183.795181 89.891043 
L 186.171957 91.046752 
L 188.383922 92.38466 
L 190.577154 94.257956 
L 192.754068 96.282243 
L 195.971654 99.841987 
L 202.683246 107.669654 
L 204.856576 109.815954 
L 207.009128 111.578564 
L 209.145033 112.958446 
L 211.289963 114.022405 
L 213.481225 114.809997 
L 215.765218 115.353484 
L 217.911354 115.621276 
L 221.117174 115.792339 
L 225.316154 115.679605 
L 232.815944 115.280759 
L 236.687797 115.376779 
L 239.641855 115.444844 
L 243.581359 115.218909 
L 249.998612 114.745552 
L 264.044191 115.135007 
L 265.693068 115.343304 
L 267.420762 115.438143 
L 269.160406 115.574747 
L 272.650486 115.604565 
L 274.460897 115.534211 
L 276.334895 115.646752 
L 279.074735 116.249015 
L 282.773874 117.06657 
L 285.615379 117.31586 
L 288.653017 117.182001 
L 290.684794 117.307522 
L 293.883795 117.324177 
L 296.131022 117.413563 
L 299.702646 117.306671 
L 300.983696 117.231751 
L 302.27692 117.318469 
L 303.59249 117.214104 
L 304.940196 117.261572 
L 307.71934 117.113773 
L 313.618879 117.109739 
L 318.388309 117.627829 
L 320.127084 117.943729 
L 323.83289 119.05376 
L 325.736058 119.671376 
L 327.689637 120.177067 
L 329.681175 120.513361 
L 331.701344 120.69289 
L 333.739695 120.623274 
L 335.803344 120.349185 
L 339.946413 119.385766 
L 348.055627 117.051029 
L 351.789682 116.477501 
L 355.15056 116.20087 
L 358.011301 116.008649 
L 359.251507 115.811249 
L 360.371233 115.492984 
L 362.208773 114.599712 
L 364.531681 113.135563 
L 364.915358 113.093268 
L 365.234685 113.22864 
L 365.727273 113.986076 
L 365.727273 113.986076 
" clip-path="url(#p5d41e81044)" style="fill: none; stroke: #d62728; stroke-width: 1.5; stroke-linecap: square"/>
   </g>
   <g id="line2d_8">
    <path d="M 134.139855 110.973971 
L 136.72159 105.329561 
L 138.471559 101.94881 
L 140.273409 99.151168 
L 142.053578 97.099954 
L 143.867549 95.634955 
L 145.834309 94.524037 
L 147.789356 93.652743 
L 150.611612 92.704124 
L 154.608899 91.455331 
L 157.653001 90.405227 
L 159.637879 89.562041 
L 161.757549 88.776532 
L 164.015039 87.530849 
L 167.031188 85.635654 
L 172.300943 82.931055 
L 174.371216 82.152006 
L 177.549288 81.256157 
L 179.623349 81.021796 
L 181.693095 81.198258 
L 182.728991 81.45281 
L 183.795181 81.860154 
L 186.171957 83.150674 
L 187.315598 83.8817 
L 188.383922 84.698044 
L 190.577154 86.848236 
L 192.754068 89.225765 
L 194.891962 91.947579 
L 198.180532 96.501 
L 202.683246 102.722523 
L 204.856576 105.450947 
L 207.009128 107.848528 
L 209.145033 109.871297 
L 211.289963 111.602803 
L 213.481225 113.039014 
L 215.765218 114.195516 
L 217.911354 114.993922 
L 220.033153 115.622252 
L 222.178933 116.070706 
L 225.316154 116.46614 
L 236.687797 117.310827 
L 239.641855 117.564879 
L 242.620967 117.516028 
L 250.875338 117.119867 
L 264.867411 117.508667 
L 269.160406 117.796797 
L 273.54857 117.704067 
L 275.388074 117.694244 
L 276.334895 117.764913 
L 281.833733 118.985091 
L 282.773874 119.174453 
L 285.615379 119.338206 
L 288.653017 119.140182 
L 290.684794 119.215087 
L 297.283371 119.094596 
L 307.71934 118.669117 
L 309.163295 118.758295 
L 310.647449 118.653182 
L 316.740447 119.478712 
L 318.388309 119.98897 
L 320.127084 120.652003 
L 323.83289 122.483901 
L 325.736058 123.472735 
L 327.689637 124.301724 
L 329.681175 124.862347 
L 331.701344 125.180262 
L 333.739695 125.135529 
L 335.803344 124.779195 
L 337.871196 124.212081 
L 339.946413 123.43716 
L 346.101297 120.710623 
L 348.055627 120.024253 
L 351.789682 119.164343 
L 355.15056 118.806226 
L 358.011301 118.578399 
L 359.251507 118.334338 
L 360.371233 117.953784 
L 361.359465 117.422597 
L 362.933886 116.217129 
L 364.531681 114.867802 
L 364.915358 114.731947 
L 365.234685 114.770533 
L 365.499306 115.048459 
L 365.727273 115.508441 
L 365.727273 115.508441 
" clip-path="url(#p5d41e81044)" style="fill: none; stroke: #2ca02c; stroke-width: 1.5; stroke-linecap: square"/>
   </g>
   <g id="patch_3">
    <path d="M 108 172.8 
L 108 43.2 
" style="fill: none; stroke: #000000; stroke-width: 0.8; stroke-linejoin: miter; stroke-linecap: square"/>
   </g>
   <g id="patch_4">
    <path d="M 378 172.8 
L 378 43.2 
" style="fill: none; stroke: #000000; stroke-width: 0.8; stroke-linejoin: miter; stroke-linecap: square"/>
   </g>
   <g id="patch_5">
    <path d="M 108 172.8 
L 378 172.8 
" style="fill: none; stroke: #000000; stroke-width: 0.8; stroke-linejoin: miter; stroke-linecap: square"/>
   </g>
   <g id="patch_6">
    <path d="M 108 43.2 
L 378 43.2 
" style="fill: none; stroke: #000000; stroke-width: 0.8; stroke-linejoin: miter; stroke-linecap: square"/>
   </g>
   <g id="text_6">
    <!-- -1.5$\sigma_{PC}$ -->
    <g transform="translate(207.7 37.2) scale(0.2 -0.2)">
     <defs>
      <path id="DejaVuSans-2d" d="M 313 2009 
L 1997 2009 
L 1997 1497 
L 313 1497 
L 313 2009 
z
" transform="scale(0.015625)"/>
      <path id="DejaVuSans-2e" d="M 684 794 
L 1344 794 
L 1344 0 
L 684 0 
L 684 794 
z
" transform="scale(0.015625)"/>
      <path id="DejaVuSans-Oblique-3c3" d="M 2219 3044 
Q 1744 3044 1422 2700 
Q 1081 2341 969 1747 
Q 844 1119 1044 756 
Q 1241 397 1706 397 
Q 2166 397 2503 759 
Q 2844 1122 2966 1747 
Q 3075 2319 2881 2700 
Q 2700 3044 2219 3044 
z
M 2309 3503 
L 4219 3500 
L 4106 2925 
L 3463 2925 
Q 3706 2438 3575 1747 
Q 3406 888 2884 400 
Q 2359 -91 1609 -91 
Q 856 -91 525 400 
Q 194 888 363 1747 
Q 528 2609 1050 3097 
Q 1484 3503 2309 3503 
z
" transform="scale(0.015625)"/>
      <path id="DejaVuSans-Oblique-50" d="M 1081 4666 
L 2541 4666 
Q 3178 4666 3512 4369 
Q 3847 4072 3847 3500 
Q 3847 2731 3353 2303 
Q 2859 1875 1966 1875 
L 1172 1875 
L 806 0 
L 172 0 
L 1081 4666 
z
M 1613 4147 
L 1275 2394 
L 2069 2394 
Q 2606 2394 2893 2669 
Q 3181 2944 3181 3456 
Q 3181 3784 2986 3965 
Q 2791 4147 2438 4147 
L 1613 4147 
z
" transform="scale(0.015625)"/>
      <path id="DejaVuSans-Oblique-43" d="M 4447 4306 
L 4319 3641 
Q 4019 3944 3683 4091 
Q 3347 4238 2956 4238 
Q 2422 4238 2017 3981 
Q 1613 3725 1319 3200 
Q 1131 2863 1032 2486 
Q 934 2109 934 1728 
Q 934 1091 1264 756 
Q 1594 422 2222 422 
Q 2656 422 3056 561 
Q 3456 700 3834 978 
L 3688 231 
Q 3316 72 2936 -9 
Q 2556 -91 2175 -91 
Q 1278 -91 773 396 
Q 269 884 269 1753 
Q 269 2309 461 2846 
Q 653 3384 1013 3828 
Q 1394 4300 1883 4525 
Q 2372 4750 3022 4750 
Q 3422 4750 3780 4639 
Q 4138 4528 4447 4306 
z
" transform="scale(0.015625)"/>
     </defs>
     <use xlink:href="#DejaVuSans-2d" transform="translate(0 0.09375)"/>
     <use xlink:href="#DejaVuSans-31" transform="translate(36.083984 0.09375)"/>
     <use xlink:href="#DejaVuSans-2e" transform="translate(99.707031 0.09375)"/>
     <use xlink:href="#DejaVuSans-35" transform="translate(131.494141 0.09375)"/>
     <use xlink:href="#DejaVuSans-Oblique-3c3" transform="translate(195.117188 0.09375)"/>
     <use xlink:href="#DejaVuSans-Oblique-50" transform="translate(258.496094 -16.3125) scale(0.7)"/>
     <use xlink:href="#DejaVuSans-Oblique-43" transform="translate(300.708008 -16.3125) scale(0.7)"/>
    </g>
   </g>
  </g>
  <g id="axes_2">
   <g id="patch_7">
    <path d="M 405 172.8 
L 675 172.8 
L 675 43.2 
L 405 43.2 
z
" style="fill: #ffffff"/>
   </g>
   <g id="line2d_9">
    <path d="M 405 111.981418 
L 675 111.981418 
" clip-path="url(#p9a272b8b0c)" style="fill: none; stroke-dasharray: 3.7,1.6; stroke-dashoffset: 0; stroke: #000000"/>
   </g>
   <g id="matplotlib.axis_3">
    <g id="xtick_4">
     <g id="line2d_10">
      <g>
       <use xlink:href="#m2c7c378328" x="431.07445" y="172.8" style="stroke: #000000; stroke-width: 0.8"/>
      </g>
     </g>
     <g id="text_7">
      <!-- 0 -->
      <g transform="translate(425.98445 191.9575) scale(0.16 -0.16)">
       <use xlink:href="#DejaVuSans-30"/>
      </g>
     </g>
    </g>
    <g id="xtick_5">
     <g id="line2d_11">
      <g>
       <use xlink:href="#m2c7c378328" x="539.010035" y="172.8" style="stroke: #000000; stroke-width: 0.8"/>
      </g>
     </g>
     <g id="text_8">
      <!-- 500 -->
      <g transform="translate(523.740035 191.9575) scale(0.16 -0.16)">
       <use xlink:href="#DejaVuSans-35"/>
       <use xlink:href="#DejaVuSans-30" x="63.623047"/>
       <use xlink:href="#DejaVuSans-30" x="127.246094"/>
      </g>
     </g>
    </g>
    <g id="xtick_6">
     <g id="line2d_12">
      <g>
       <use xlink:href="#m2c7c378328" x="646.94562" y="172.8" style="stroke: #000000; stroke-width: 0.8"/>
      </g>
     </g>
     <g id="text_9">
      <!-- 1000 -->
      <g transform="translate(626.58562 191.9575) scale(0.16 -0.16)">
       <use xlink:href="#DejaVuSans-31"/>
       <use xlink:href="#DejaVuSans-30" x="63.623047"/>
       <use xlink:href="#DejaVuSans-30" x="127.246094"/>
       <use xlink:href="#DejaVuSans-30" x="190.869141"/>
      </g>
     </g>
    </g>
    <g id="text_10">
     <!-- time (ms) -->
     <g transform="translate(501.18125 211.4425) scale(0.16 -0.16)">
      <defs>
       <path id="DejaVuSans-74" d="M 1172 4494 
L 1172 3500 
L 2356 3500 
L 2356 3053 
L 1172 3053 
L 1172 1153 
Q 1172 725 1289 603 
Q 1406 481 1766 481 
L 2356 481 
L 2356 0 
L 1766 0 
Q 1100 0 847 248 
Q 594 497 594 1153 
L 594 3053 
L 172 3053 
L 172 3500 
L 594 3500 
L 594 4494 
L 1172 4494 
z
" transform="scale(0.015625)"/>
       <path id="DejaVuSans-69" d="M 603 3500 
L 1178 3500 
L 1178 0 
L 603 0 
L 603 3500 
z
M 603 4863 
L 1178 4863 
L 1178 4134 
L 603 4134 
L 603 4863 
z
" transform="scale(0.015625)"/>
       <path id="DejaVuSans-6d" d="M 3328 2828 
Q 3544 3216 3844 3400 
Q 4144 3584 4550 3584 
Q 5097 3584 5394 3201 
Q 5691 2819 5691 2113 
L 5691 0 
L 5113 0 
L 5113 2094 
Q 5113 2597 4934 2840 
Q 4756 3084 4391 3084 
Q 3944 3084 3684 2787 
Q 3425 2491 3425 1978 
L 3425 0 
L 2847 0 
L 2847 2094 
Q 2847 2600 2669 2842 
Q 2491 3084 2119 3084 
Q 1678 3084 1418 2786 
Q 1159 2488 1159 1978 
L 1159 0 
L 581 0 
L 581 3500 
L 1159 3500 
L 1159 2956 
Q 1356 3278 1631 3431 
Q 1906 3584 2284 3584 
Q 2666 3584 2933 3390 
Q 3200 3197 3328 2828 
z
" transform="scale(0.015625)"/>
       <path id="DejaVuSans-65" d="M 3597 1894 
L 3597 1613 
L 953 1613 
Q 991 1019 1311 708 
Q 1631 397 2203 397 
Q 2534 397 2845 478 
Q 3156 559 3463 722 
L 3463 178 
Q 3153 47 2828 -22 
Q 2503 -91 2169 -91 
Q 1331 -91 842 396 
Q 353 884 353 1716 
Q 353 2575 817 3079 
Q 1281 3584 2069 3584 
Q 2775 3584 3186 3129 
Q 3597 2675 3597 1894 
z
M 3022 2063 
Q 3016 2534 2758 2815 
Q 2500 3097 2075 3097 
Q 1594 3097 1305 2825 
Q 1016 2553 972 2059 
L 3022 2063 
z
" transform="scale(0.015625)"/>
       <path id="DejaVuSans-20" transform="scale(0.015625)"/>
       <path id="DejaVuSans-28" d="M 1984 4856 
Q 1566 4138 1362 3434 
Q 1159 2731 1159 2009 
Q 1159 1288 1364 580 
Q 1569 -128 1984 -844 
L 1484 -844 
Q 1016 -109 783 600 
Q 550 1309 550 2009 
Q 550 2706 781 3412 
Q 1013 4119 1484 4856 
L 1984 4856 
z
" transform="scale(0.015625)"/>
       <path id="DejaVuSans-73" d="M 2834 3397 
L 2834 2853 
Q 2591 2978 2328 3040 
Q 2066 3103 1784 3103 
Q 1356 3103 1142 2972 
Q 928 2841 928 2578 
Q 928 2378 1081 2264 
Q 1234 2150 1697 2047 
L 1894 2003 
Q 2506 1872 2764 1633 
Q 3022 1394 3022 966 
Q 3022 478 2636 193 
Q 2250 -91 1575 -91 
Q 1294 -91 989 -36 
Q 684 19 347 128 
L 347 722 
Q 666 556 975 473 
Q 1284 391 1588 391 
Q 1994 391 2212 530 
Q 2431 669 2431 922 
Q 2431 1156 2273 1281 
Q 2116 1406 1581 1522 
L 1381 1569 
Q 847 1681 609 1914 
Q 372 2147 372 2553 
Q 372 3047 722 3315 
Q 1072 3584 1716 3584 
Q 2034 3584 2315 3537 
Q 2597 3491 2834 3397 
z
" transform="scale(0.015625)"/>
       <path id="DejaVuSans-29" d="M 513 4856 
L 1013 4856 
Q 1481 4119 1714 3412 
Q 1947 2706 1947 2009 
Q 1947 1309 1714 600 
Q 1481 -109 1013 -844 
L 513 -844 
Q 928 -128 1133 580 
Q 1338 1288 1338 2009 
Q 1338 2731 1133 3434 
Q 928 4138 513 4856 
z
" transform="scale(0.015625)"/>
      </defs>
      <use xlink:href="#DejaVuSans-74"/>
      <use xlink:href="#DejaVuSans-69" x="39.208984"/>
      <use xlink:href="#DejaVuSans-6d" x="66.992188"/>
      <use xlink:href="#DejaVuSans-65" x="164.404297"/>
      <use xlink:href="#DejaVuSans-20" x="225.927734"/>
      <use xlink:href="#DejaVuSans-28" x="257.714844"/>
      <use xlink:href="#DejaVuSans-6d" x="296.728516"/>
      <use xlink:href="#DejaVuSans-73" x="394.140625"/>
      <use xlink:href="#DejaVuSans-29" x="446.240234"/>
     </g>
    </g>
   </g>
   <g id="matplotlib.axis_4">
    <g id="ytick_3">
     <g id="line2d_13">
      <g>
       <use xlink:href="#m5d92ac6db7" x="405" y="111.981418" style="stroke: #000000; stroke-width: 0.8"/>
      </g>
     </g>
    </g>
    <g id="ytick_4">
     <g id="line2d_14">
      <g>
       <use xlink:href="#m5d92ac6db7" x="405" y="49.931416" style="stroke: #000000; stroke-width: 0.8"/>
      </g>
     </g>
    </g>
   </g>
   <g id="line2d_15">
    <path d="M 432.868584 109.591633 
L 435.884716 100.108712 
L 437.38627 96.116588 
L 438.865349 92.946061 
L 440.301562 90.562831 
L 441.783749 88.699347 
L 442.55957 87.956156 
L 444.044437 86.945175 
L 445.445587 86.278465 
L 447.555747 85.463302 
L 451.092125 84.621791 
L 452.440304 84.343389 
L 454.624497 83.477568 
L 457.331001 82.760681 
L 459.376031 81.778808 
L 465.439074 80.000866 
L 466.769533 79.843803 
L 468.872992 79.666798 
L 469.661685 79.830007 
L 472.532743 80.992161 
L 474.665511 82.455863 
L 476.098725 83.627055 
L 477.578659 84.998421 
L 479.119495 86.717493 
L 481.39239 89.601612 
L 484.397771 93.746728 
L 488.293888 99.593245 
L 494.103509 108.430323 
L 496.617866 111.67594 
L 498.420398 113.660793 
L 500.322585 115.419759 
L 502.173479 116.827916 
L 504.0254 117.983959 
L 506.736478 119.367943 
L 509.614578 120.602578 
L 513.663487 122.094968 
L 518.691747 123.946774 
L 522.684297 125.670109 
L 527.652997 128.211347 
L 533.358733 131.191686 
L 539.059997 133.76827 
L 541.259376 134.434305 
L 542.625021 134.601173 
L 546.27645 134.698581 
L 547.823307 134.299095 
L 550.05276 133.894987 
L 550.841709 133.57632 
L 551.601264 133.480967 
L 551.978472 133.306204 
L 552.662832 132.764617 
L 553.634556 132.522108 
L 554.546909 132.073626 
L 555.98396 131.627476 
L 556.78731 131.250906 
L 558.048043 131.054245 
L 558.802446 131.770722 
L 560.166543 133.33767 
L 561.056787 133.873834 
L 561.705731 134.036034 
L 562.427037 134.004314 
L 563.666583 133.738568 
L 564.652668 133.254973 
L 565.75018 132.45561 
L 566.968698 131.232844 
L 568.27465 129.489516 
L 569.547136 127.240866 
L 570.712727 124.306938 
L 571.24384 122.473764 
L 572.175707 117.922899 
L 572.917698 112.82024 
L 572.917698 112.82024 
" clip-path="url(#p9a272b8b0c)" style="fill: none; stroke: #d62728; stroke-width: 1.5; stroke-linecap: square"/>
   </g>
   <g id="line2d_16">
    <path d="M 432.868584 111.806953 
L 436.632114 96.732521 
L 438.135291 91.709641 
L 439.585885 87.744765 
L 441.030201 84.59602 
L 442.55957 82.053697 
L 444.044437 80.314925 
L 445.445587 79.11715 
L 446.833393 78.139848 
L 448.273474 77.391999 
L 451.092125 76.340591 
L 452.440304 75.928615 
L 454.624497 74.833835 
L 456.694215 74.200439 
L 457.982831 73.443418 
L 459.376031 72.614913 
L 462.068834 71.37319 
L 463.433863 70.744753 
L 466.105546 69.914377 
L 468.872992 69.497892 
L 469.661685 69.639858 
L 472.532743 70.861207 
L 473.964269 71.924909 
L 475.379837 73.108004 
L 477.578659 75.373372 
L 479.119495 77.358402 
L 481.39239 80.773306 
L 483.643866 84.54613 
L 486.695797 90.143484 
L 494.94661 105.890571 
L 496.617866 108.561789 
L 498.420398 111.112244 
L 500.322585 113.433809 
L 502.173479 115.351559 
L 504.0254 116.99463 
L 506.736478 119.071205 
L 509.614578 121.013378 
L 513.663487 123.437719 
L 519.709744 127.049144 
L 522.684297 129.02697 
L 527.652997 132.713622 
L 532.455379 136.333156 
L 534.211249 137.451506 
L 535.937652 138.680457 
L 538.29396 139.957666 
L 539.059997 140.48614 
L 541.259376 141.428922 
L 542.625021 141.718091 
L 546.27645 142.040719 
L 547.823307 141.588563 
L 549.202872 141.41663 
L 551.601264 140.717002 
L 551.978472 140.495969 
L 552.330251 140.103375 
L 553.319893 139.626585 
L 557.048611 137.877664 
L 557.308055 137.887559 
L 557.559158 137.706736 
L 558.048043 137.870391 
L 558.802446 138.945682 
L 560.166543 141.31456 
L 560.750465 141.907129 
L 561.373888 142.208469 
L 562.057958 142.222684 
L 563.22741 141.788994 
L 564.142517 141.282528 
L 565.185995 140.426867 
L 566.346645 139.178989 
L 567.616509 137.363165 
L 568.921499 134.926782 
L 570.146039 131.80702 
L 570.712727 129.878842 
L 571.24384 127.620393 
L 572.175707 122.104618 
L 572.917698 115.808134 
L 572.917698 115.808134 
" clip-path="url(#p9a272b8b0c)" style="fill: none; stroke: #2ca02c; stroke-width: 1.5; stroke-linecap: square"/>
   </g>
   <g id="patch_8">
    <path d="M 405 172.8 
L 405 43.2 
" style="fill: none; stroke: #000000; stroke-width: 0.8; stroke-linejoin: miter; stroke-linecap: square"/>
   </g>
   <g id="patch_9">
    <path d="M 675 172.8 
L 675 43.2 
" style="fill: none; stroke: #000000; stroke-width: 0.8; stroke-linejoin: miter; stroke-linecap: square"/>
   </g>
   <g id="patch_10">
    <path d="M 405 172.8 
L 675 172.8 
" style="fill: none; stroke: #000000; stroke-width: 0.8; stroke-linejoin: miter; stroke-linecap: square"/>
   </g>
   <g id="patch_11">
    <path d="M 405 43.2 
L 675 43.2 
" style="fill: none; stroke: #000000; stroke-width: 0.8; stroke-linejoin: miter; stroke-linecap: square"/>
   </g>
   <g id="text_11">
    <!-- $\mathbf{c}_0$ -->
    <g transform="translate(529.2 37.2) scale(0.2 -0.2)">
     <defs>
      <path id="DejaVuSans-Bold-63" d="M 3366 3391 
L 3366 2478 
Q 3138 2634 2908 2709 
Q 2678 2784 2431 2784 
Q 1963 2784 1702 2511 
Q 1441 2238 1441 1747 
Q 1441 1256 1702 982 
Q 1963 709 2431 709 
Q 2694 709 2930 787 
Q 3166 866 3366 1019 
L 3366 103 
Q 3103 6 2833 -42 
Q 2563 -91 2291 -91 
Q 1344 -91 809 395 
Q 275 881 275 1747 
Q 275 2613 809 3098 
Q 1344 3584 2291 3584 
Q 2566 3584 2833 3536 
Q 3100 3488 3366 3391 
z
" transform="scale(0.015625)"/>
     </defs>
     <use xlink:href="#DejaVuSans-Bold-63"/>
     <use xlink:href="#DejaVuSans-30" transform="translate(60.234375 -16.40625) scale(0.7)"/>
    </g>
   </g>
  </g>
  <g id="axes_3">
   <g id="patch_12">
    <path d="M 702 172.8 
L 972 172.8 
L 972 43.2 
L 702 43.2 
z
" style="fill: #ffffff"/>
   </g>
   <g id="line2d_17">
    <path d="M 702 111.981418 
L 972 111.981418 
" clip-path="url(#pa655b79196)" style="fill: none; stroke-dasharray: 3.7,1.6; stroke-dashoffset: 0; stroke: #000000"/>
   </g>
   <g id="matplotlib.axis_5">
    <g id="xtick_7">
     <g id="line2d_18">
      <g>
       <use xlink:href="#m2c7c378328" x="728.07445" y="172.8" style="stroke: #000000; stroke-width: 0.8"/>
      </g>
     </g>
     <g id="text_12">
      <!-- 0 -->
      <g transform="translate(722.98445 191.9575) scale(0.16 -0.16)">
       <use xlink:href="#DejaVuSans-30"/>
      </g>
     </g>
    </g>
    <g id="xtick_8">
     <g id="line2d_19">
      <g>
       <use xlink:href="#m2c7c378328" x="836.010035" y="172.8" style="stroke: #000000; stroke-width: 0.8"/>
      </g>
     </g>
     <g id="text_13">
      <!-- 500 -->
      <g transform="translate(820.740035 191.9575) scale(0.16 -0.16)">
       <use xlink:href="#DejaVuSans-35"/>
       <use xlink:href="#DejaVuSans-30" x="63.623047"/>
       <use xlink:href="#DejaVuSans-30" x="127.246094"/>
      </g>
     </g>
    </g>
    <g id="xtick_9">
     <g id="line2d_20">
      <g>
       <use xlink:href="#m2c7c378328" x="943.94562" y="172.8" style="stroke: #000000; stroke-width: 0.8"/>
      </g>
     </g>
     <g id="text_14">
      <!-- 1000 -->
      <g transform="translate(923.58562 191.9575) scale(0.16 -0.16)">
       <use xlink:href="#DejaVuSans-31"/>
       <use xlink:href="#DejaVuSans-30" x="63.623047"/>
       <use xlink:href="#DejaVuSans-30" x="127.246094"/>
       <use xlink:href="#DejaVuSans-30" x="190.869141"/>
      </g>
     </g>
    </g>
   </g>
   <g id="matplotlib.axis_6">
    <g id="ytick_5">
     <g id="line2d_21">
      <g>
       <use xlink:href="#m5d92ac6db7" x="702" y="111.981418" style="stroke: #000000; stroke-width: 0.8"/>
      </g>
     </g>
    </g>
    <g id="ytick_6">
     <g id="line2d_22">
      <g>
       <use xlink:href="#m5d92ac6db7" x="702" y="49.931416" style="stroke: #000000; stroke-width: 0.8"/>
      </g>
     </g>
    </g>
   </g>
   <g id="line2d_23">
    <path d="M 714.272727 108.746331 
L 716.354692 82.944737 
L 717.058707 77.156758 
L 718.225008 71.272917 
L 718.645069 70.269108 
L 719.288444 69.722977 
L 719.707066 69.340974 
L 719.913179 69.280663 
L 720.514659 68.862481 
L 720.927899 69.480569 
L 721.149317 69.411437 
L 721.748634 68.669092 
L 722.525714 68.962964 
L 724.10787 67.457917 
L 724.306928 67.073513 
L 724.506402 66.972948 
L 724.706106 66.464804 
L 724.907782 66.508879 
L 725.116836 66.281519 
L 725.345913 66.389814 
L 726.258416 64.479352 
L 726.490207 64.236633 
L 726.950555 63.293068 
L 727.413822 63.189955 
L 727.65237 63.240043 
L 728.150849 63.957161 
L 728.946655 65.179938 
L 729.485993 66.664407 
L 730.032993 68.973549 
L 730.884823 73.826791 
L 732.121558 82.832583 
L 733.171183 90.495662 
L 735.366703 105.225195 
L 736.625052 111.660697 
L 737.567651 115.360032 
L 738.515942 118.321977 
L 739.495804 120.715965 
L 740.488002 122.627783 
L 742.072964 125.035178 
L 745.7255 129.709462 
L 751.005039 136.611085 
L 755.169956 142.562286 
L 757.270459 145.709115 
L 760.551677 150.01796 
L 761.757754 150.936131 
L 763.497316 152.74446 
L 765.156374 153.697696 
L 767.647569 154.382552 
L 768.591254 154.275482 
L 770.251367 153.329454 
L 772.402354 152.432247 
L 772.729692 152.384559 
L 773.061299 152.191624 
L 773.701992 152.050679 
L 774.58605 151.564164 
L 774.87089 151.715139 
L 775.152824 151.259492 
L 775.707987 151.056742 
L 776.255073 150.696936 
L 776.530485 150.744798 
L 776.799399 150.291181 
L 777.06425 150.418948 
L 777.327208 149.940193 
L 777.587518 149.990607 
L 777.845555 149.90201 
L 778.103651 149.564125 
L 778.361961 149.730889 
L 778.61401 149.429331 
L 778.860913 149.36757 
L 779.110721 149.090163 
L 779.364308 149.125176 
L 779.623643 148.779824 
L 779.89387 148.694674 
L 780.175818 148.442675 
L 780.463309 148.338586 
L 780.755277 148.069537 
L 781.056915 147.94319 
L 782.026145 147.971428 
L 782.748383 148.471686 
L 784.021889 149.925059 
L 784.510979 150.364581 
L 785.0415 150.654955 
L 785.622767 150.748929 
L 786.272093 150.610425 
L 786.992608 150.203217 
L 788.641696 148.789692 
L 791.843491 145.371501 
L 794.489691 142.27326 
L 795.916392 140.363682 
L 797.398715 138.062123 
L 798.921869 135.221587 
L 800.470188 131.684969 
L 802.020109 127.280569 
L 803.513064 122.263937 
L 806.275738 111.47247 
L 806.275738 111.47247 
" clip-path="url(#pa655b79196)" style="fill: none; stroke: #d62728; stroke-width: 1.5; stroke-linecap: square"/>
   </g>
   <g id="line2d_24">
    <path d="M 714.272727 112.624864 
L 716.82412 73.630468 
L 717.543972 67.19895 
L 718.225008 62.087752 
L 718.645069 60.200868 
L 720.320995 56.958498 
L 720.514659 56.86867 
L 720.927899 57.570524 
L 721.149317 57.476158 
L 721.748634 56.449796 
L 721.932957 56.493412 
L 722.321022 56.932709 
L 722.525714 56.841371 
L 723.115478 56.124538 
L 723.310766 56.022238 
L 723.711989 55.603623 
L 724.10787 54.869636 
L 724.706106 53.575679 
L 725.345913 53.341699 
L 725.588924 52.773282 
L 726.036813 51.087464 
L 726.490207 50.511779 
L 726.950555 49.301359 
L 727.413822 49.10804 
L 727.65237 49.090909 
L 727.896539 49.385973 
L 728.414437 50.288074 
L 728.946655 51.17747 
L 729.485993 52.81415 
L 730.032993 55.441716 
L 730.884823 60.974924 
L 732.121558 71.471661 
L 733.171183 80.425039 
L 735.761254 100.423207 
L 736.625052 105.574269 
L 737.567651 110.138931 
L 738.515942 113.912285 
L 739.495804 117.106412 
L 740.986367 120.969764 
L 742.641011 124.525214 
L 745.7255 130.606477 
L 751.676067 142.361593 
L 756.572699 152.685621 
L 757.964227 155.397752 
L 759.262313 157.632005 
L 760.551677 160.136049 
L 762.332973 162.478659 
L 762.917663 163.529871 
L 764.05882 164.727827 
L 765.156374 165.676521 
L 767.647569 166.884685 
L 768.591254 166.909091 
L 769.85761 166.051276 
L 770.251367 165.984662 
L 770.633644 165.762566 
L 771.007344 165.73276 
L 771.372661 165.571181 
L 771.726518 165.567276 
L 772.068428 165.403759 
L 772.402354 165.399594 
L 773.061299 165.127158 
L 773.391766 165.12809 
L 773.701992 164.979345 
L 773.997158 165.001669 
L 774.292479 164.659823 
L 774.87089 164.734251 
L 775.43378 164.268632 
L 775.707987 164.230967 
L 776.255073 163.86652 
L 776.799399 163.625813 
L 777.06425 163.283723 
L 777.327208 163.167029 
L 777.587518 162.736564 
L 777.845555 162.941803 
L 778.103651 162.391112 
L 778.361961 162.637478 
L 778.860913 162.22734 
L 781.056915 160.546938 
L 781.691129 160.40178 
L 782.026145 160.446206 
L 782.748383 161.024861 
L 784.510979 163.196398 
L 785.0415 163.523783 
L 785.622767 163.608907 
L 786.272093 163.390512 
L 786.992608 162.848583 
L 788.641696 161.02377 
L 791.843491 156.774041 
L 794.489691 153.019279 
L 795.916392 150.738278 
L 797.398715 147.950702 
L 798.921869 144.516104 
L 800.470188 140.217853 
L 802.020109 134.90321 
L 803.513064 128.91347 
L 804.919402 122.549379 
L 806.275738 115.737404 
L 806.275738 115.737404 
" clip-path="url(#pa655b79196)" style="fill: none; stroke: #2ca02c; stroke-width: 1.5; stroke-linecap: square"/>
   </g>
   <g id="patch_13">
    <path d="M 702 172.8 
L 702 43.2 
" style="fill: none; stroke: #000000; stroke-width: 0.8; stroke-linejoin: miter; stroke-linecap: square"/>
   </g>
   <g id="patch_14">
    <path d="M 972 172.8 
L 972 43.2 
" style="fill: none; stroke: #000000; stroke-width: 0.8; stroke-linejoin: miter; stroke-linecap: square"/>
   </g>
   <g id="patch_15">
    <path d="M 702 172.8 
L 972 172.8 
" style="fill: none; stroke: #000000; stroke-width: 0.8; stroke-linejoin: miter; stroke-linecap: square"/>
   </g>
   <g id="patch_16">
    <path d="M 702 43.2 
L 972 43.2 
" style="fill: none; stroke: #000000; stroke-width: 0.8; stroke-linejoin: miter; stroke-linecap: square"/>
   </g>
   <g id="text_15">
    <!-- +1.5$\sigma_{PC}$ -->
    <g transform="translate(796.9 37.2) scale(0.2 -0.2)">
     <defs>
      <path id="DejaVuSans-2b" d="M 2944 4013 
L 2944 2272 
L 4684 2272 
L 4684 1741 
L 2944 1741 
L 2944 0 
L 2419 0 
L 2419 1741 
L 678 1741 
L 678 2272 
L 2419 2272 
L 2419 4013 
L 2944 4013 
z
" transform="scale(0.015625)"/>
     </defs>
     <use xlink:href="#DejaVuSans-2b" transform="translate(0 0.09375)"/>
     <use xlink:href="#DejaVuSans-31" transform="translate(83.789062 0.09375)"/>
     <use xlink:href="#DejaVuSans-2e" transform="translate(147.412109 0.09375)"/>
     <use xlink:href="#DejaVuSans-35" transform="translate(179.199219 0.09375)"/>
     <use xlink:href="#DejaVuSans-Oblique-3c3" transform="translate(242.822266 0.09375)"/>
     <use xlink:href="#DejaVuSans-Oblique-50" transform="translate(306.201172 -16.3125) scale(0.7)"/>
     <use xlink:href="#DejaVuSans-Oblique-43" transform="translate(348.413086 -16.3125) scale(0.7)"/>
    </g>
   </g>
   <g id="legend_1">
    <g id="patch_17">
     <path d="M 841.475 102.97 
L 960.8 102.97 
Q 964 102.97 964 99.77 
L 964 54.4 
Q 964 51.2 960.8 51.2 
L 841.475 51.2 
Q 838.275 51.2 838.275 54.4 
L 838.275 99.77 
Q 838.275 102.97 841.475 102.97 
z
" style="fill: #ffffff; opacity: 0.8; stroke: #cccccc; stroke-linejoin: miter"/>
    </g>
    <g id="line2d_25">
     <path d="M 844.675 64.1575 
L 860.675 64.1575 
L 876.675 64.1575 
" style="fill: none; stroke: #d62728; stroke-width: 1.5; stroke-linecap: square"/>
    </g>
    <g id="text_16">
     <!-- Thoracic -->
     <g transform="translate(889.475 69.7575) scale(0.16 -0.16)">
      <defs>
       <path id="DejaVuSans-54" d="M -19 4666 
L 3928 4666 
L 3928 4134 
L 2272 4134 
L 2272 0 
L 1638 0 
L 1638 4134 
L -19 4134 
L -19 4666 
z
" transform="scale(0.015625)"/>
       <path id="DejaVuSans-68" d="M 3513 2113 
L 3513 0 
L 2938 0 
L 2938 2094 
Q 2938 2591 2744 2837 
Q 2550 3084 2163 3084 
Q 1697 3084 1428 2787 
Q 1159 2491 1159 1978 
L 1159 0 
L 581 0 
L 581 4863 
L 1159 4863 
L 1159 2956 
Q 1366 3272 1645 3428 
Q 1925 3584 2291 3584 
Q 2894 3584 3203 3211 
Q 3513 2838 3513 2113 
z
" transform="scale(0.015625)"/>
       <path id="DejaVuSans-6f" d="M 1959 3097 
Q 1497 3097 1228 2736 
Q 959 2375 959 1747 
Q 959 1119 1226 758 
Q 1494 397 1959 397 
Q 2419 397 2687 759 
Q 2956 1122 2956 1747 
Q 2956 2369 2687 2733 
Q 2419 3097 1959 3097 
z
M 1959 3584 
Q 2709 3584 3137 3096 
Q 3566 2609 3566 1747 
Q 3566 888 3137 398 
Q 2709 -91 1959 -91 
Q 1206 -91 779 398 
Q 353 888 353 1747 
Q 353 2609 779 3096 
Q 1206 3584 1959 3584 
z
" transform="scale(0.015625)"/>
       <path id="DejaVuSans-72" d="M 2631 2963 
Q 2534 3019 2420 3045 
Q 2306 3072 2169 3072 
Q 1681 3072 1420 2755 
Q 1159 2438 1159 1844 
L 1159 0 
L 581 0 
L 581 3500 
L 1159 3500 
L 1159 2956 
Q 1341 3275 1631 3429 
Q 1922 3584 2338 3584 
Q 2397 3584 2469 3576 
Q 2541 3569 2628 3553 
L 2631 2963 
z
" transform="scale(0.015625)"/>
       <path id="DejaVuSans-61" d="M 2194 1759 
Q 1497 1759 1228 1600 
Q 959 1441 959 1056 
Q 959 750 1161 570 
Q 1363 391 1709 391 
Q 2188 391 2477 730 
Q 2766 1069 2766 1631 
L 2766 1759 
L 2194 1759 
z
M 3341 1997 
L 3341 0 
L 2766 0 
L 2766 531 
Q 2569 213 2275 61 
Q 1981 -91 1556 -91 
Q 1019 -91 701 211 
Q 384 513 384 1019 
Q 384 1609 779 1909 
Q 1175 2209 1959 2209 
L 2766 2209 
L 2766 2266 
Q 2766 2663 2505 2880 
Q 2244 3097 1772 3097 
Q 1472 3097 1187 3025 
Q 903 2953 641 2809 
L 641 3341 
Q 956 3463 1253 3523 
Q 1550 3584 1831 3584 
Q 2591 3584 2966 3190 
Q 3341 2797 3341 1997 
z
" transform="scale(0.015625)"/>
       <path id="DejaVuSans-63" d="M 3122 3366 
L 3122 2828 
Q 2878 2963 2633 3030 
Q 2388 3097 2138 3097 
Q 1578 3097 1268 2742 
Q 959 2388 959 1747 
Q 959 1106 1268 751 
Q 1578 397 2138 397 
Q 2388 397 2633 464 
Q 2878 531 3122 666 
L 3122 134 
Q 2881 22 2623 -34 
Q 2366 -91 2075 -91 
Q 1284 -91 818 406 
Q 353 903 353 1747 
Q 353 2603 823 3093 
Q 1294 3584 2113 3584 
Q 2378 3584 2631 3529 
Q 2884 3475 3122 3366 
z
" transform="scale(0.015625)"/>
      </defs>
      <use xlink:href="#DejaVuSans-54"/>
      <use xlink:href="#DejaVuSans-68" x="61.083984"/>
      <use xlink:href="#DejaVuSans-6f" x="124.462891"/>
      <use xlink:href="#DejaVuSans-72" x="185.644531"/>
      <use xlink:href="#DejaVuSans-61" x="226.757812"/>
      <use xlink:href="#DejaVuSans-63" x="288.037109"/>
      <use xlink:href="#DejaVuSans-69" x="343.017578"/>
      <use xlink:href="#DejaVuSans-63" x="370.800781"/>
     </g>
    </g>
    <g id="line2d_26">
     <path d="M 844.675 87.6425 
L 860.675 87.6425 
L 876.675 87.6425 
" style="fill: none; stroke: #2ca02c; stroke-width: 1.5; stroke-linecap: square"/>
    </g>
    <g id="text_17">
     <!-- Nasal -->
     <g transform="translate(889.475 93.2425) scale(0.16 -0.16)">
      <defs>
       <path id="DejaVuSans-4e" d="M 628 4666 
L 1478 4666 
L 3547 763 
L 3547 4666 
L 4159 4666 
L 4159 0 
L 3309 0 
L 1241 3903 
L 1241 0 
L 628 0 
L 628 4666 
z
" transform="scale(0.015625)"/>
       <path id="DejaVuSans-6c" d="M 603 4863 
L 1178 4863 
L 1178 0 
L 603 0 
L 603 4863 
z
" transform="scale(0.015625)"/>
      </defs>
      <use xlink:href="#DejaVuSans-4e"/>
      <use xlink:href="#DejaVuSans-61" x="74.804688"/>
      <use xlink:href="#DejaVuSans-73" x="136.083984"/>
      <use xlink:href="#DejaVuSans-61" x="188.183594"/>
      <use xlink:href="#DejaVuSans-6c" x="249.462891"/>
     </g>
    </g>
   </g>
  </g>
 </g>
 <defs>
  <clipPath id="p5d41e81044">
   <rect x="108" y="43.2" width="270" height="129.6"/>
  </clipPath>
  <clipPath id="p9a272b8b0c">
   <rect x="405" y="43.2" width="270" height="129.6"/>
  </clipPath>
  <clipPath id="pa655b79196">
   <rect x="702" y="43.2" width="270" height="129.6"/>
  </clipPath>
 </defs>
</svg>
